%FSLAX33Y33*%
%MOMM*%
%AMRect-W1850000-H1850000-RO1.000*
21,1,1.85,1.85,0.,0.,180*%
%AMRect-W3100000-H3100000-RO0.500*
21,1,3.1,3.1,0.,0.,270*%
%ADD10C,0.0508*%
%ADD11C,0.508*%
%ADD12C,1.85*%
%ADD13Rect-W1850000-H1850000-RO1.000*%
%ADD14C,3.1*%
%ADD15Rect-W3100000-H3100000-RO0.500*%
D10*
%LNpour fill*%
G01*
X14575Y3919D02*
X14575Y3919D01*
X14519Y3935*
X14492Y3892*
X14490Y3889*
X14211Y3610*
X14208Y3608*
X13873Y3397*
X13871Y3396*
X13497Y3265*
X13495Y3265*
X13193Y3231*
X13176Y3246*
X13176Y3475*
X13024Y3475*
X13024Y3246*
X13007Y3231*
X12705Y3265*
X12703Y3265*
X12329Y3396*
X12327Y3397*
X11992Y3608*
X11989Y3610*
X11710Y3889*
X11708Y3892*
X11497Y4227*
X11496Y4229*
X11365Y4603*
X11365Y4605*
X11320Y4999*
X11320Y5001*
X11365Y5395*
X11365Y5397*
X11496Y5771*
X11497Y5773*
X11708Y6108*
X11710Y6111*
X11989Y6390*
X11992Y6392*
X12327Y6603*
X12329Y6604*
X12703Y6735*
X12705Y6735*
X13007Y6769*
X13024Y6754*
X13024Y6525*
X13176Y6525*
X13176Y6754*
X13193Y6769*
X13495Y6735*
X13497Y6735*
X13871Y6604*
X13873Y6603*
X14208Y6392*
X14211Y6390*
X14490Y6111*
X14492Y6108*
X14519Y6065*
X14575Y6081*
X14575Y13919*
X14519Y13935*
X14492Y13892*
X14490Y13889*
X14211Y13610*
X14208Y13608*
X13873Y13397*
X13871Y13396*
X13497Y13265*
X13495Y13265*
X13193Y13231*
X13176Y13246*
X13176Y13475*
X13024Y13475*
X13024Y13246*
X13007Y13231*
X12705Y13265*
X12703Y13265*
X12329Y13396*
X12327Y13397*
X11992Y13608*
X11989Y13610*
X11710Y13889*
X11708Y13892*
X11497Y14227*
X11496Y14229*
X11365Y14603*
X11365Y14605*
X11331Y14907*
X11346Y14924*
X11575Y14924*
X11575Y15076*
X11346Y15076*
X11331Y15093*
X11365Y15395*
X11365Y15397*
X11496Y15771*
X11497Y15773*
X11708Y16108*
X11710Y16111*
X11989Y16390*
X11992Y16392*
X12327Y16603*
X12329Y16604*
X12703Y16735*
X12705Y16735*
X13007Y16769*
X13024Y16754*
X13024Y16525*
X13176Y16525*
X13176Y16754*
X13193Y16769*
X13495Y16735*
X13497Y16735*
X13871Y16604*
X13873Y16603*
X14208Y16392*
X14211Y16390*
X14490Y16111*
X14492Y16108*
X14519Y16065*
X14575Y16081*
X14575Y23919*
X14519Y23935*
X14492Y23892*
X14490Y23889*
X14211Y23610*
X14208Y23608*
X13873Y23397*
X13871Y23396*
X13497Y23265*
X13495Y23265*
X13193Y23231*
X13176Y23246*
X13176Y23475*
X13024Y23475*
X13024Y23246*
X13007Y23231*
X12705Y23265*
X12703Y23265*
X12329Y23396*
X12327Y23397*
X11992Y23608*
X11989Y23610*
X11710Y23889*
X11708Y23892*
X11497Y24227*
X11496Y24229*
X11365Y24603*
X11365Y24605*
X11320Y24999*
X11320Y25001*
X11365Y25395*
X11365Y25397*
X11496Y25771*
X11497Y25773*
X11708Y26108*
X11710Y26111*
X11989Y26390*
X11992Y26392*
X12327Y26603*
X12329Y26604*
X12703Y26735*
X12705Y26735*
X13007Y26769*
X13024Y26754*
X13024Y26525*
X13176Y26525*
X13176Y26754*
X13193Y26769*
X13495Y26735*
X13497Y26735*
X13871Y26604*
X13873Y26603*
X14208Y26392*
X14211Y26390*
X14490Y26111*
X14492Y26108*
X14519Y26065*
X14575Y26081*
X14575Y103919*
X14519Y103935*
X14492Y103892*
X14490Y103889*
X14211Y103610*
X14208Y103608*
X13873Y103397*
X13871Y103396*
X13497Y103265*
X13495Y103265*
X13193Y103231*
X13176Y103246*
X13176Y103475*
X13024Y103475*
X13024Y103246*
X13007Y103231*
X12705Y103265*
X12703Y103265*
X12329Y103396*
X12327Y103397*
X11992Y103608*
X11989Y103610*
X11710Y103889*
X11708Y103892*
X11497Y104227*
X11496Y104229*
X11365Y104603*
X11365Y104605*
X11320Y104999*
X11320Y105001*
X11365Y105395*
X11365Y105397*
X11496Y105771*
X11497Y105773*
X11708Y106108*
X11710Y106111*
X11989Y106390*
X11992Y106392*
X12327Y106603*
X12329Y106604*
X12703Y106735*
X12705Y106735*
X13007Y106769*
X13024Y106754*
X13024Y106525*
X13176Y106525*
X13176Y106754*
X13193Y106769*
X13495Y106735*
X13497Y106735*
X13871Y106604*
X13873Y106603*
X14208Y106392*
X14211Y106390*
X14490Y106111*
X14492Y106108*
X14519Y106065*
X14575Y106081*
X14575Y109475*
X0525Y109475*
X0525Y106780*
X1909Y106780*
X1924Y106765*
X1924Y106525*
X2076Y106525*
X2076Y106765*
X2091Y106780*
X3550Y106780*
X3551Y106780*
X3585Y106777*
X3587Y106777*
X3620Y106769*
X3622Y106768*
X3653Y106755*
X3655Y106754*
X3684Y106736*
X3686Y106735*
X3712Y106713*
X3713Y106712*
X3735Y106686*
X3736Y106684*
X3754Y106655*
X3755Y106653*
X3768Y106622*
X3769Y106620*
X3777Y106587*
X3777Y106585*
X3780Y106551*
X3780Y106550*
X3780Y105091*
X3765Y105076*
X3525Y105076*
X3525Y104924*
X3765Y104924*
X3780Y104909*
X3780Y103450*
X3780Y103449*
X3777Y103415*
X3777Y103413*
X3769Y103380*
X3768Y103378*
X3755Y103347*
X3754Y103345*
X3736Y103316*
X3735Y103314*
X3713Y103288*
X3712Y103287*
X3686Y103265*
X3684Y103264*
X3655Y103246*
X3653Y103245*
X3622Y103232*
X3620Y103231*
X3587Y103223*
X3585Y103223*
X3552Y103220*
X3551Y103220*
X2091Y103220*
X2076Y103235*
X2076Y103475*
X1924Y103475*
X1924Y103235*
X1909Y103220*
X0525Y103220*
X0525Y26780*
X1909Y26780*
X1924Y26765*
X1924Y26525*
X2076Y26525*
X2076Y26765*
X2091Y26780*
X3550Y26780*
X3551Y26780*
X3585Y26777*
X3587Y26777*
X3620Y26769*
X3622Y26768*
X3653Y26755*
X3655Y26754*
X3684Y26736*
X3686Y26735*
X3712Y26713*
X3713Y26712*
X3735Y26686*
X3736Y26684*
X3754Y26655*
X3755Y26653*
X3768Y26622*
X3769Y26620*
X3777Y26587*
X3777Y26585*
X3780Y26551*
X3780Y26550*
X3780Y25091*
X3765Y25076*
X3525Y25076*
X3525Y24924*
X3765Y24924*
X3780Y24909*
X3780Y23450*
X3780Y23449*
X3777Y23415*
X3777Y23413*
X3769Y23380*
X3768Y23378*
X3755Y23347*
X3754Y23345*
X3736Y23316*
X3735Y23314*
X3713Y23288*
X3712Y23287*
X3686Y23265*
X3684Y23264*
X3655Y23246*
X3653Y23245*
X3622Y23232*
X3620Y23231*
X3587Y23223*
X3585Y23223*
X3552Y23220*
X3551Y23220*
X2091Y23220*
X2076Y23235*
X2076Y23475*
X1924Y23475*
X1924Y23235*
X1909Y23220*
X0525Y23220*
X0525Y16780*
X1909Y16780*
X1924Y16765*
X1924Y16525*
X2076Y16525*
X2076Y16765*
X2091Y16780*
X3550Y16780*
X3551Y16780*
X3585Y16777*
X3587Y16777*
X3620Y16769*
X3622Y16768*
X3653Y16755*
X3655Y16754*
X3684Y16736*
X3686Y16735*
X3712Y16713*
X3713Y16712*
X3735Y16686*
X3736Y16684*
X3754Y16655*
X3755Y16653*
X3768Y16622*
X3769Y16620*
X3777Y16587*
X3777Y16585*
X3780Y16551*
X3780Y16550*
X3780Y15091*
X3765Y15076*
X3525Y15076*
X3525Y14924*
X3765Y14924*
X3780Y14909*
X3780Y13450*
X3780Y13449*
X3777Y13415*
X3777Y13413*
X3769Y13380*
X3768Y13378*
X3755Y13347*
X3754Y13345*
X3736Y13316*
X3735Y13314*
X3713Y13288*
X3712Y13287*
X3686Y13265*
X3684Y13264*
X3655Y13246*
X3653Y13245*
X3622Y13232*
X3620Y13231*
X3587Y13223*
X3585Y13223*
X3552Y13220*
X3551Y13220*
X2091Y13220*
X2076Y13235*
X2076Y13475*
X1924Y13475*
X1924Y13235*
X1909Y13220*
X0525Y13220*
X0525Y6780*
X1909Y6780*
X1924Y6765*
X1924Y6525*
X2076Y6525*
X2076Y6765*
X2091Y6780*
X3550Y6780*
X3551Y6780*
X3585Y6777*
X3587Y6777*
X3620Y6769*
X3622Y6768*
X3653Y6755*
X3655Y6754*
X3684Y6736*
X3686Y6735*
X3712Y6713*
X3713Y6712*
X3735Y6686*
X3736Y6684*
X3754Y6655*
X3755Y6653*
X3768Y6622*
X3769Y6620*
X3777Y6587*
X3777Y6585*
X3780Y6551*
X3780Y6550*
X3780Y5091*
X3765Y5076*
X3525Y5076*
X3525Y4924*
X3765Y4924*
X3780Y4909*
X3780Y3450*
X3780Y3449*
X3777Y3415*
X3777Y3413*
X3769Y3380*
X3768Y3378*
X3755Y3347*
X3754Y3345*
X3736Y3316*
X3735Y3314*
X3713Y3288*
X3712Y3287*
X3686Y3265*
X3684Y3264*
X3655Y3246*
X3653Y3245*
X3622Y3232*
X3620Y3231*
X3587Y3223*
X3585Y3223*
X3552Y3220*
X3551Y3220*
X2091Y3220*
X2076Y3235*
X2076Y3475*
X1924Y3475*
X1924Y3235*
X1909Y3220*
X0525Y3220*
X0525Y0525*
X14575Y0525*
X14575Y3919*
X7695Y103265D02*
X7695Y103265D01*
X7697Y103265*
X8071Y103396*
X8073Y103397*
X8408Y103608*
X8411Y103610*
X8690Y103889*
X8692Y103892*
X8903Y104227*
X8904Y104229*
X9035Y104603*
X9035Y104605*
X9080Y104999*
X9080Y105001*
X9035Y105395*
X9035Y105397*
X8904Y105771*
X8903Y105773*
X8692Y106108*
X8690Y106111*
X8411Y106390*
X8408Y106392*
X8073Y106603*
X8071Y106604*
X7697Y106735*
X7695Y106735*
X7301Y106780*
X7299Y106780*
X6905Y106735*
X6903Y106735*
X6529Y106604*
X6527Y106603*
X6192Y106392*
X6189Y106390*
X5910Y106111*
X5908Y106108*
X5697Y105773*
X5696Y105771*
X5565Y105397*
X5565Y105395*
X5520Y105001*
X5520Y104999*
X5565Y104605*
X5565Y104603*
X5696Y104229*
X5697Y104227*
X5908Y103892*
X5910Y103889*
X6189Y103610*
X6192Y103608*
X6527Y103397*
X6529Y103396*
X6903Y103265*
X6905Y103265*
X7299Y103220*
X7301Y103220*
X7695Y103265*
X4977Y91345D02*
X4977Y91345D01*
X5010Y91348*
X5012Y91348*
X5045Y91356*
X5047Y91357*
X5078Y91370*
X5080Y91371*
X5109Y91389*
X5111Y91390*
X5137Y91412*
X5138Y91413*
X5160Y91439*
X5161Y91441*
X5179Y91470*
X5180Y91472*
X5193Y91503*
X5194Y91505*
X5202Y91538*
X5202Y91540*
X5205Y91574*
X5205Y91575*
X5205Y93425*
X5205Y93426*
X5202Y93460*
X5202Y93462*
X5194Y93495*
X5193Y93497*
X5180Y93528*
X5179Y93530*
X5161Y93559*
X5160Y93561*
X5138Y93587*
X5137Y93588*
X5111Y93610*
X5109Y93611*
X5080Y93629*
X5078Y93630*
X5047Y93643*
X5045Y93644*
X5012Y93652*
X5010Y93652*
X4976Y93655*
X4975Y93655*
X3125Y93655*
X3124Y93655*
X3090Y93652*
X3088Y93652*
X3055Y93644*
X3053Y93643*
X3022Y93630*
X3020Y93629*
X2991Y93611*
X2989Y93610*
X2963Y93588*
X2962Y93587*
X2940Y93561*
X2939Y93559*
X2921Y93530*
X2920Y93528*
X2907Y93497*
X2906Y93495*
X2898Y93462*
X2898Y93460*
X2895Y93427*
X2895Y93426*
X2895Y91574*
X2895Y91573*
X2898Y91540*
X2898Y91538*
X2906Y91505*
X2907Y91503*
X2920Y91472*
X2921Y91470*
X2939Y91441*
X2940Y91439*
X2962Y91413*
X2963Y91412*
X2989Y91390*
X2991Y91389*
X3020Y91371*
X3022Y91370*
X3053Y91357*
X3055Y91356*
X3088Y91348*
X3090Y91348*
X3123Y91345*
X3124Y91345*
X4976Y91345*
X4977Y91345*
X4191Y86354D02*
X4191Y86354D01*
X4458Y86420*
X4461Y86421*
X4705Y86549*
X4707Y86551*
X4913Y86733*
X4915Y86736*
X5072Y86962*
X5073Y86965*
X5171Y87222*
X5171Y87225*
X5205Y87498*
X5205Y87502*
X5171Y87775*
X5171Y87778*
X5073Y88035*
X5072Y88038*
X4915Y88264*
X4913Y88267*
X4707Y88449*
X4705Y88451*
X4461Y88579*
X4458Y88580*
X4191Y88646*
X4188Y88646*
X3912Y88646*
X3909Y88646*
X3642Y88580*
X3639Y88579*
X3395Y88451*
X3393Y88449*
X3187Y88267*
X3185Y88264*
X3028Y88038*
X3027Y88035*
X2929Y87778*
X2929Y87775*
X2895Y87502*
X2895Y87498*
X2929Y87225*
X2929Y87222*
X3027Y86965*
X3028Y86962*
X3185Y86736*
X3187Y86733*
X3393Y86551*
X3395Y86549*
X3639Y86421*
X3642Y86420*
X3909Y86354*
X3912Y86354*
X4188Y86354*
X4191Y86354*
X3974Y81289D02*
X3974Y81289D01*
X3974Y81527*
X4126Y81527*
X4126Y81289*
X4141Y81274*
X4188Y81274*
X4191Y81274*
X4458Y81340*
X4461Y81341*
X4705Y81469*
X4707Y81471*
X4913Y81653*
X4915Y81656*
X5072Y81882*
X5073Y81885*
X5171Y82142*
X5171Y82145*
X5193Y82327*
X5178Y82344*
X4950Y82344*
X4950Y82496*
X5178Y82496*
X5193Y82513*
X5171Y82695*
X5171Y82698*
X5073Y82955*
X5072Y82958*
X4915Y83184*
X4913Y83187*
X4707Y83369*
X4705Y83371*
X4461Y83499*
X4458Y83500*
X4191Y83566*
X4188Y83566*
X4141Y83566*
X4126Y83551*
X4126Y83313*
X3974Y83313*
X3974Y83551*
X3959Y83566*
X3912Y83566*
X3909Y83566*
X3642Y83500*
X3639Y83499*
X3395Y83371*
X3393Y83369*
X3187Y83187*
X3185Y83184*
X3028Y82958*
X3027Y82955*
X2929Y82698*
X2929Y82695*
X2907Y82513*
X2922Y82496*
X3150Y82496*
X3150Y82344*
X2922Y82344*
X2907Y82327*
X2929Y82145*
X2929Y82142*
X3027Y81885*
X3028Y81882*
X3185Y81656*
X3187Y81653*
X3393Y81471*
X3395Y81469*
X3639Y81341*
X3642Y81340*
X3909Y81274*
X3912Y81274*
X3959Y81274*
X3974Y81289*
X4977Y68845D02*
X4977Y68845D01*
X5010Y68848*
X5012Y68848*
X5045Y68856*
X5047Y68857*
X5078Y68870*
X5080Y68871*
X5109Y68889*
X5111Y68890*
X5137Y68912*
X5138Y68913*
X5160Y68939*
X5161Y68941*
X5179Y68970*
X5180Y68972*
X5193Y69003*
X5194Y69005*
X5202Y69038*
X5202Y69040*
X5205Y69074*
X5205Y69075*
X5205Y70925*
X5205Y70926*
X5202Y70960*
X5202Y70962*
X5194Y70995*
X5193Y70997*
X5180Y71028*
X5179Y71030*
X5161Y71059*
X5160Y71061*
X5138Y71087*
X5137Y71088*
X5111Y71110*
X5109Y71111*
X5080Y71129*
X5078Y71130*
X5047Y71143*
X5045Y71144*
X5012Y71152*
X5010Y71152*
X4976Y71155*
X4975Y71155*
X3125Y71155*
X3124Y71155*
X3090Y71152*
X3088Y71152*
X3055Y71144*
X3053Y71143*
X3022Y71130*
X3020Y71129*
X2991Y71111*
X2989Y71110*
X2963Y71088*
X2962Y71087*
X2940Y71061*
X2939Y71059*
X2921Y71030*
X2920Y71028*
X2907Y70997*
X2906Y70995*
X2898Y70962*
X2898Y70960*
X2895Y70927*
X2895Y70926*
X2895Y69074*
X2895Y69073*
X2898Y69040*
X2898Y69038*
X2906Y69005*
X2907Y69003*
X2920Y68972*
X2921Y68970*
X2939Y68941*
X2940Y68939*
X2962Y68913*
X2963Y68912*
X2989Y68890*
X2991Y68889*
X3020Y68871*
X3022Y68870*
X3053Y68857*
X3055Y68856*
X3088Y68848*
X3090Y68848*
X3123Y68845*
X3124Y68845*
X4976Y68845*
X4977Y68845*
X4191Y63854D02*
X4191Y63854D01*
X4458Y63920*
X4461Y63921*
X4705Y64049*
X4707Y64051*
X4913Y64233*
X4915Y64236*
X5072Y64462*
X5073Y64465*
X5171Y64722*
X5171Y64725*
X5205Y64998*
X5205Y65002*
X5171Y65275*
X5171Y65278*
X5073Y65535*
X5072Y65538*
X4915Y65764*
X4913Y65767*
X4707Y65949*
X4705Y65951*
X4461Y66079*
X4458Y66080*
X4191Y66146*
X4188Y66146*
X3912Y66146*
X3909Y66146*
X3642Y66080*
X3639Y66079*
X3395Y65951*
X3393Y65949*
X3187Y65767*
X3185Y65764*
X3028Y65538*
X3027Y65535*
X2929Y65278*
X2929Y65275*
X2895Y65002*
X2895Y64998*
X2929Y64725*
X2929Y64722*
X3027Y64465*
X3028Y64462*
X3185Y64236*
X3187Y64233*
X3393Y64051*
X3395Y64049*
X3639Y63921*
X3642Y63920*
X3909Y63854*
X3912Y63854*
X4188Y63854*
X4191Y63854*
X3974Y58789D02*
X3974Y58789D01*
X3974Y59027*
X4126Y59027*
X4126Y58789*
X4141Y58774*
X4188Y58774*
X4191Y58774*
X4458Y58840*
X4461Y58841*
X4705Y58969*
X4707Y58971*
X4913Y59153*
X4915Y59156*
X5072Y59382*
X5073Y59385*
X5171Y59642*
X5171Y59645*
X5193Y59827*
X5178Y59844*
X4950Y59844*
X4950Y59996*
X5178Y59996*
X5193Y60013*
X5171Y60195*
X5171Y60198*
X5073Y60455*
X5072Y60458*
X4915Y60684*
X4913Y60687*
X4707Y60869*
X4705Y60871*
X4461Y60999*
X4458Y61000*
X4191Y61066*
X4188Y61066*
X4141Y61066*
X4126Y61051*
X4126Y60813*
X3974Y60813*
X3974Y61051*
X3959Y61066*
X3912Y61066*
X3909Y61066*
X3642Y61000*
X3639Y60999*
X3395Y60871*
X3393Y60869*
X3187Y60687*
X3185Y60684*
X3028Y60458*
X3027Y60455*
X2929Y60198*
X2929Y60195*
X2907Y60013*
X2922Y59996*
X3150Y59996*
X3150Y59844*
X2922Y59844*
X2907Y59827*
X2929Y59645*
X2929Y59642*
X3027Y59385*
X3028Y59382*
X3185Y59156*
X3187Y59153*
X3393Y58971*
X3395Y58969*
X3639Y58841*
X3642Y58840*
X3909Y58774*
X3912Y58774*
X3959Y58774*
X3974Y58789*
X4977Y46345D02*
X4977Y46345D01*
X5010Y46348*
X5012Y46348*
X5045Y46356*
X5047Y46357*
X5078Y46370*
X5080Y46371*
X5109Y46389*
X5111Y46390*
X5137Y46412*
X5138Y46413*
X5160Y46439*
X5161Y46441*
X5179Y46470*
X5180Y46472*
X5193Y46503*
X5194Y46505*
X5202Y46538*
X5202Y46540*
X5205Y46574*
X5205Y46575*
X5205Y48425*
X5205Y48426*
X5202Y48460*
X5202Y48462*
X5194Y48495*
X5193Y48497*
X5180Y48528*
X5179Y48530*
X5161Y48559*
X5160Y48561*
X5138Y48587*
X5137Y48588*
X5111Y48610*
X5109Y48611*
X5080Y48629*
X5078Y48630*
X5047Y48643*
X5045Y48644*
X5012Y48652*
X5010Y48652*
X4976Y48655*
X4975Y48655*
X3125Y48655*
X3124Y48655*
X3090Y48652*
X3088Y48652*
X3055Y48644*
X3053Y48643*
X3022Y48630*
X3020Y48629*
X2991Y48611*
X2989Y48610*
X2963Y48588*
X2962Y48587*
X2940Y48561*
X2939Y48559*
X2921Y48530*
X2920Y48528*
X2907Y48497*
X2906Y48495*
X2898Y48462*
X2898Y48460*
X2895Y48427*
X2895Y48426*
X2895Y46574*
X2895Y46573*
X2898Y46540*
X2898Y46538*
X2906Y46505*
X2907Y46503*
X2920Y46472*
X2921Y46470*
X2939Y46441*
X2940Y46439*
X2962Y46413*
X2963Y46412*
X2989Y46390*
X2991Y46389*
X3020Y46371*
X3022Y46370*
X3053Y46357*
X3055Y46356*
X3088Y46348*
X3090Y46348*
X3123Y46345*
X3124Y46345*
X4976Y46345*
X4977Y46345*
X7695Y3265D02*
X7695Y3265D01*
X7697Y3265*
X8071Y3396*
X8073Y3397*
X8408Y3608*
X8411Y3610*
X8690Y3889*
X8692Y3892*
X8903Y4227*
X8904Y4229*
X9035Y4603*
X9035Y4605*
X9080Y4999*
X9080Y5001*
X9035Y5395*
X9035Y5397*
X8904Y5771*
X8903Y5773*
X8692Y6108*
X8690Y6111*
X8411Y6390*
X8408Y6392*
X8073Y6603*
X8071Y6604*
X7697Y6735*
X7695Y6735*
X7301Y6780*
X7299Y6780*
X6905Y6735*
X6903Y6735*
X6529Y6604*
X6527Y6603*
X6437Y6547*
X5284Y7700*
X5284Y30001*
X5284Y30002*
X5275Y30093*
X5274Y30096*
X5247Y30184*
X5246Y30186*
X5203Y30268*
X5201Y30270*
X5143Y30341*
X5142Y30342*
X2534Y32950*
X2534Y40300*
X3651Y41418*
X3909Y41354*
X3912Y41354*
X4188Y41354*
X4191Y41354*
X4458Y41420*
X4461Y41421*
X4705Y41549*
X4707Y41551*
X4913Y41733*
X4915Y41736*
X5072Y41962*
X5073Y41965*
X5171Y42222*
X5171Y42225*
X5205Y42498*
X5205Y42502*
X5171Y42775*
X5171Y42778*
X5073Y43035*
X5072Y43038*
X4915Y43264*
X4913Y43267*
X4707Y43449*
X4705Y43451*
X4461Y43579*
X4458Y43580*
X4191Y43646*
X4188Y43646*
X3912Y43646*
X3909Y43646*
X3642Y43580*
X3639Y43579*
X3395Y43451*
X3393Y43449*
X3187Y43267*
X3185Y43264*
X3028Y43038*
X3027Y43035*
X2929Y42778*
X2929Y42775*
X2895Y42502*
X2895Y42498*
X2929Y42225*
X2929Y42222*
X2973Y42107*
X1708Y40842*
X1707Y40841*
X1649Y40770*
X1647Y40768*
X1604Y40686*
X1603Y40684*
X1576Y40596*
X1575Y40593*
X1566Y40502*
X1566Y40501*
X1566Y32749*
X1566Y32748*
X1575Y32657*
X1576Y32654*
X1603Y32566*
X1604Y32564*
X1647Y32482*
X1649Y32480*
X1707Y32409*
X1708Y32408*
X4316Y29800*
X4316Y7499*
X4316Y7498*
X4325Y7407*
X4326Y7404*
X4353Y7316*
X4354Y7314*
X4397Y7232*
X4399Y7230*
X4457Y7159*
X4458Y7158*
X5753Y5863*
X5697Y5773*
X5696Y5771*
X5565Y5397*
X5565Y5395*
X5520Y5001*
X5520Y4999*
X5565Y4605*
X5565Y4603*
X5696Y4229*
X5697Y4227*
X5908Y3892*
X5910Y3889*
X6189Y3610*
X6192Y3608*
X6527Y3397*
X6529Y3396*
X6903Y3265*
X6905Y3265*
X7299Y3220*
X7301Y3220*
X7695Y3265*
X3974Y36289D02*
X3974Y36289D01*
X3974Y36527*
X4126Y36527*
X4126Y36289*
X4141Y36274*
X4188Y36274*
X4191Y36274*
X4458Y36340*
X4461Y36341*
X4705Y36469*
X4707Y36471*
X4913Y36653*
X4915Y36656*
X5072Y36882*
X5073Y36885*
X5171Y37142*
X5171Y37145*
X5193Y37327*
X5178Y37344*
X4950Y37344*
X4950Y37496*
X5178Y37496*
X5193Y37513*
X5171Y37695*
X5171Y37698*
X5073Y37955*
X5072Y37958*
X4915Y38184*
X4913Y38187*
X4707Y38369*
X4705Y38371*
X4461Y38499*
X4458Y38500*
X4191Y38566*
X4188Y38566*
X4141Y38566*
X4126Y38551*
X4126Y38313*
X3974Y38313*
X3974Y38551*
X3959Y38566*
X3912Y38566*
X3909Y38566*
X3642Y38500*
X3639Y38499*
X3395Y38371*
X3393Y38369*
X3187Y38187*
X3185Y38184*
X3028Y37958*
X3027Y37955*
X2929Y37698*
X2929Y37695*
X2907Y37513*
X2922Y37496*
X3150Y37496*
X3150Y37344*
X2922Y37344*
X2907Y37327*
X2929Y37145*
X2929Y37142*
X3027Y36885*
X3028Y36882*
X3185Y36656*
X3187Y36653*
X3393Y36471*
X3395Y36469*
X3639Y36341*
X3642Y36340*
X3909Y36274*
X3912Y36274*
X3959Y36274*
X3974Y36289*
X7695Y23265D02*
X7695Y23265D01*
X7697Y23265*
X8071Y23396*
X8073Y23397*
X8408Y23608*
X8411Y23610*
X8690Y23889*
X8692Y23892*
X8903Y24227*
X8904Y24229*
X9035Y24603*
X9035Y24605*
X9080Y24999*
X9080Y25001*
X9035Y25395*
X9035Y25397*
X8904Y25771*
X8903Y25773*
X8692Y26108*
X8690Y26111*
X8411Y26390*
X8408Y26392*
X8073Y26603*
X8071Y26604*
X7697Y26735*
X7695Y26735*
X7301Y26780*
X7299Y26780*
X6905Y26735*
X6903Y26735*
X6529Y26604*
X6527Y26603*
X6192Y26392*
X6189Y26390*
X5910Y26111*
X5908Y26108*
X5697Y25773*
X5696Y25771*
X5565Y25397*
X5565Y25395*
X5520Y25001*
X5520Y24999*
X5565Y24605*
X5565Y24603*
X5696Y24229*
X5697Y24227*
X5908Y23892*
X5910Y23889*
X6189Y23610*
X6192Y23608*
X6527Y23397*
X6529Y23396*
X6903Y23265*
X6905Y23265*
X7299Y23220*
X7301Y23220*
X7695Y23265*
X7695Y13265D02*
X7695Y13265D01*
X7697Y13265*
X8071Y13396*
X8073Y13397*
X8408Y13608*
X8411Y13610*
X8690Y13889*
X8692Y13892*
X8903Y14227*
X8904Y14229*
X9035Y14603*
X9035Y14605*
X9080Y14999*
X9080Y15001*
X9035Y15395*
X9035Y15397*
X8904Y15771*
X8903Y15773*
X8692Y16108*
X8690Y16111*
X8411Y16390*
X8408Y16392*
X8073Y16603*
X8071Y16604*
X7697Y16735*
X7695Y16735*
X7301Y16780*
X7299Y16780*
X6905Y16735*
X6903Y16735*
X6529Y16604*
X6527Y16603*
X6192Y16392*
X6189Y16390*
X5910Y16111*
X5908Y16108*
X5697Y15773*
X5696Y15771*
X5565Y15397*
X5565Y15395*
X5520Y15001*
X5520Y14999*
X5565Y14605*
X5565Y14603*
X5696Y14229*
X5697Y14227*
X5908Y13892*
X5910Y13889*
X6189Y13610*
X6192Y13608*
X6527Y13397*
X6529Y13396*
X6903Y13265*
X6905Y13265*
X7299Y13220*
X7301Y13220*
X7695Y13265*
X0525Y0550D02*
X14575Y0550D01*
X0525Y0599D02*
X14575Y0599D01*
X0525Y0649D02*
X14575Y0649D01*
X0525Y0698D02*
X14575Y0698D01*
X0525Y0748D02*
X14575Y0748D01*
X0525Y0797D02*
X14575Y0797D01*
X0525Y0847D02*
X14575Y0847D01*
X0525Y0896D02*
X14575Y0896D01*
X0525Y0946D02*
X14575Y0946D01*
X0525Y0995D02*
X14575Y0995D01*
X0525Y1045D02*
X14575Y1045D01*
X0525Y1094D02*
X14575Y1094D01*
X0525Y1144D02*
X14575Y1144D01*
X0525Y1193D02*
X14575Y1193D01*
X0525Y1243D02*
X14575Y1243D01*
X0525Y1292D02*
X14575Y1292D01*
X0525Y1342D02*
X14575Y1342D01*
X0525Y1392D02*
X14575Y1392D01*
X0525Y1441D02*
X14575Y1441D01*
X0525Y1491D02*
X14575Y1491D01*
X0525Y1540D02*
X14575Y1540D01*
X0525Y1590D02*
X14575Y1590D01*
X0525Y1639D02*
X14575Y1639D01*
X0525Y1689D02*
X14575Y1689D01*
X0525Y1738D02*
X14575Y1738D01*
X0525Y1788D02*
X14575Y1788D01*
X0525Y1837D02*
X14575Y1837D01*
X0525Y1887D02*
X14575Y1887D01*
X0525Y1936D02*
X14575Y1936D01*
X0525Y1986D02*
X14575Y1986D01*
X0525Y2035D02*
X14575Y2035D01*
X0525Y2085D02*
X14575Y2085D01*
X0525Y2134D02*
X14575Y2134D01*
X0525Y2184D02*
X14575Y2184D01*
X0525Y2234D02*
X14575Y2234D01*
X0525Y2283D02*
X14575Y2283D01*
X0525Y2333D02*
X14575Y2333D01*
X0525Y2382D02*
X14575Y2382D01*
X0525Y2432D02*
X14575Y2432D01*
X0525Y2481D02*
X14575Y2481D01*
X0525Y2531D02*
X14575Y2531D01*
X0525Y2580D02*
X14575Y2580D01*
X0525Y2630D02*
X14575Y2630D01*
X0525Y2679D02*
X14575Y2679D01*
X0525Y2729D02*
X14575Y2729D01*
X0525Y2778D02*
X14575Y2778D01*
X0525Y2828D02*
X14575Y2828D01*
X0525Y2877D02*
X14575Y2877D01*
X0525Y2927D02*
X14575Y2927D01*
X0525Y2977D02*
X14575Y2977D01*
X0525Y3026D02*
X14575Y3026D01*
X0525Y3076D02*
X14575Y3076D01*
X0525Y3125D02*
X14575Y3125D01*
X0525Y3175D02*
X14575Y3175D01*
X1913Y3224D02*
X2087Y3224D01*
X3590Y3224D02*
X7265Y3224D01*
X7335Y3224D02*
X14575Y3224D01*
X1924Y3274D02*
X2076Y3274D01*
X3696Y3274D02*
X6879Y3274D01*
X7721Y3274D02*
X12679Y3274D01*
X13024Y3274D02*
X13176Y3274D01*
X13521Y3274D02*
X14575Y3274D01*
X1924Y3323D02*
X2076Y3323D01*
X3741Y3323D02*
X6737Y3323D01*
X7863Y3323D02*
X12537Y3323D01*
X13024Y3323D02*
X13176Y3323D01*
X13663Y3323D02*
X14575Y3323D01*
X1924Y3373D02*
X2076Y3373D01*
X3766Y3373D02*
X6596Y3373D01*
X8004Y3373D02*
X12396Y3373D01*
X13024Y3373D02*
X13176Y3373D01*
X13804Y3373D02*
X14575Y3373D01*
X1924Y3422D02*
X2076Y3422D01*
X3777Y3422D02*
X6487Y3422D01*
X8113Y3422D02*
X12287Y3422D01*
X13024Y3422D02*
X13176Y3422D01*
X13913Y3422D02*
X14575Y3422D01*
X1924Y3472D02*
X2076Y3472D01*
X3780Y3472D02*
X6408Y3472D01*
X8192Y3472D02*
X12208Y3472D01*
X13024Y3472D02*
X13176Y3472D01*
X13992Y3472D02*
X14575Y3472D01*
X3780Y3521D02*
X6329Y3521D01*
X8271Y3521D02*
X12129Y3521D01*
X14071Y3521D02*
X14575Y3521D01*
X3780Y3571D02*
X6250Y3571D01*
X8350Y3571D02*
X12050Y3571D01*
X14150Y3571D02*
X14575Y3571D01*
X3780Y3620D02*
X6178Y3620D01*
X8422Y3620D02*
X11978Y3620D01*
X14222Y3620D02*
X14575Y3620D01*
X3780Y3670D02*
X6129Y3670D01*
X8471Y3670D02*
X11929Y3670D01*
X14271Y3670D02*
X14575Y3670D01*
X3780Y3719D02*
X6079Y3719D01*
X8521Y3719D02*
X11879Y3719D01*
X14321Y3719D02*
X14575Y3719D01*
X3780Y3769D02*
X6030Y3769D01*
X8570Y3769D02*
X11830Y3769D01*
X14370Y3769D02*
X14575Y3769D01*
X3780Y3819D02*
X5980Y3819D01*
X8620Y3819D02*
X11780Y3819D01*
X14420Y3819D02*
X14575Y3819D01*
X3780Y3868D02*
X5931Y3868D01*
X8669Y3868D02*
X11731Y3868D01*
X14469Y3868D02*
X14575Y3868D01*
X3780Y3918D02*
X5891Y3918D01*
X8709Y3918D02*
X11691Y3918D01*
X14509Y3918D02*
X14575Y3918D01*
X3780Y3967D02*
X5860Y3967D01*
X8740Y3967D02*
X11660Y3967D01*
X3780Y4017D02*
X5829Y4017D01*
X8771Y4017D02*
X11629Y4017D01*
X3780Y4066D02*
X5798Y4066D01*
X8802Y4066D02*
X11598Y4066D01*
X3780Y4116D02*
X5767Y4116D01*
X8833Y4116D02*
X11567Y4116D01*
X3780Y4165D02*
X5736Y4165D01*
X8864Y4165D02*
X11536Y4165D01*
X3780Y4215D02*
X5705Y4215D01*
X8895Y4215D02*
X11505Y4215D01*
X3780Y4264D02*
X5684Y4264D01*
X8916Y4264D02*
X11484Y4264D01*
X3780Y4314D02*
X5666Y4314D01*
X8934Y4314D02*
X11466Y4314D01*
X3780Y4363D02*
X5649Y4363D01*
X8951Y4363D02*
X11449Y4363D01*
X3780Y4413D02*
X5632Y4413D01*
X8968Y4413D02*
X11432Y4413D01*
X3780Y4462D02*
X5614Y4462D01*
X8986Y4462D02*
X11414Y4462D01*
X3780Y4512D02*
X5597Y4512D01*
X9003Y4512D02*
X11397Y4512D01*
X3780Y4561D02*
X5580Y4561D01*
X9020Y4561D02*
X11380Y4561D01*
X3780Y4611D02*
X5564Y4611D01*
X9036Y4611D02*
X11364Y4611D01*
X3780Y4661D02*
X5558Y4661D01*
X9042Y4661D02*
X11358Y4661D01*
X3780Y4710D02*
X5553Y4710D01*
X9047Y4710D02*
X11353Y4710D01*
X3780Y4760D02*
X5547Y4760D01*
X9053Y4760D02*
X11347Y4760D01*
X3780Y4809D02*
X5542Y4809D01*
X9058Y4809D02*
X11342Y4809D01*
X3780Y4859D02*
X5536Y4859D01*
X9064Y4859D02*
X11336Y4859D01*
X3780Y4908D02*
X5531Y4908D01*
X9069Y4908D02*
X11331Y4908D01*
X3525Y4958D02*
X5525Y4958D01*
X9075Y4958D02*
X11325Y4958D01*
X3525Y5007D02*
X5521Y5007D01*
X9079Y5007D02*
X11321Y5007D01*
X3525Y5057D02*
X5527Y5057D01*
X9073Y5057D02*
X11327Y5057D01*
X3780Y5106D02*
X5532Y5106D01*
X9068Y5106D02*
X11332Y5106D01*
X3780Y5156D02*
X5538Y5156D01*
X9062Y5156D02*
X11338Y5156D01*
X3780Y5205D02*
X5543Y5205D01*
X9057Y5205D02*
X11343Y5205D01*
X3780Y5255D02*
X5549Y5255D01*
X9051Y5255D02*
X11349Y5255D01*
X3780Y5304D02*
X5555Y5304D01*
X9045Y5304D02*
X11355Y5304D01*
X3780Y5354D02*
X5560Y5354D01*
X9040Y5354D02*
X11360Y5354D01*
X3780Y5403D02*
X5567Y5403D01*
X9033Y5403D02*
X11367Y5403D01*
X3780Y5453D02*
X5585Y5453D01*
X9015Y5453D02*
X11385Y5453D01*
X3780Y5503D02*
X5602Y5503D01*
X8998Y5503D02*
X11402Y5503D01*
X3780Y5552D02*
X5619Y5552D01*
X8981Y5552D02*
X11419Y5552D01*
X3780Y5602D02*
X5637Y5602D01*
X8963Y5602D02*
X11437Y5602D01*
X3780Y5651D02*
X5654Y5651D01*
X8946Y5651D02*
X11454Y5651D01*
X3780Y5701D02*
X5671Y5701D01*
X8929Y5701D02*
X11471Y5701D01*
X3780Y5750D02*
X5689Y5750D01*
X8911Y5750D02*
X11489Y5750D01*
X3780Y5800D02*
X5714Y5800D01*
X8886Y5800D02*
X11514Y5800D01*
X3780Y5849D02*
X5745Y5849D01*
X8855Y5849D02*
X11545Y5849D01*
X3780Y5899D02*
X5717Y5899D01*
X8824Y5899D02*
X11576Y5899D01*
X3780Y5948D02*
X5668Y5948D01*
X8793Y5948D02*
X11607Y5948D01*
X3780Y5998D02*
X5618Y5998D01*
X8762Y5998D02*
X11638Y5998D01*
X3780Y6047D02*
X5569Y6047D01*
X8731Y6047D02*
X11669Y6047D01*
X3780Y6097D02*
X5519Y6097D01*
X8699Y6097D02*
X11701Y6097D01*
X14499Y6097D02*
X14575Y6097D01*
X3780Y6146D02*
X5470Y6146D01*
X8655Y6146D02*
X11745Y6146D01*
X14455Y6146D02*
X14575Y6146D01*
X3780Y6196D02*
X5420Y6196D01*
X8605Y6196D02*
X11795Y6196D01*
X14405Y6196D02*
X14575Y6196D01*
X3780Y6245D02*
X5371Y6245D01*
X8556Y6245D02*
X11844Y6245D01*
X14356Y6245D02*
X14575Y6245D01*
X3780Y6295D02*
X5321Y6295D01*
X8506Y6295D02*
X11894Y6295D01*
X14306Y6295D02*
X14575Y6295D01*
X3780Y6345D02*
X5272Y6345D01*
X8457Y6345D02*
X11943Y6345D01*
X14257Y6345D02*
X14575Y6345D01*
X3780Y6394D02*
X5222Y6394D01*
X8406Y6394D02*
X11994Y6394D01*
X14206Y6394D02*
X14575Y6394D01*
X3780Y6444D02*
X5172Y6444D01*
X8327Y6444D02*
X12073Y6444D01*
X14127Y6444D02*
X14575Y6444D01*
X3780Y6493D02*
X5123Y6493D01*
X8248Y6493D02*
X12152Y6493D01*
X14048Y6493D02*
X14575Y6493D01*
X1924Y6543D02*
X2076Y6543D01*
X3780Y6543D02*
X5073Y6543D01*
X8169Y6543D02*
X12231Y6543D01*
X13024Y6543D02*
X13176Y6543D01*
X13969Y6543D02*
X14575Y6543D01*
X1924Y6592D02*
X2076Y6592D01*
X3775Y6592D02*
X5024Y6592D01*
X6392Y6592D02*
X6510Y6592D01*
X8090Y6592D02*
X12310Y6592D01*
X13024Y6592D02*
X13176Y6592D01*
X13890Y6592D02*
X14575Y6592D01*
X1924Y6642D02*
X2076Y6642D01*
X3760Y6642D02*
X4974Y6642D01*
X6342Y6642D02*
X6637Y6642D01*
X7963Y6642D02*
X12437Y6642D01*
X13024Y6642D02*
X13176Y6642D01*
X13763Y6642D02*
X14575Y6642D01*
X1924Y6691D02*
X2076Y6691D01*
X3730Y6691D02*
X4925Y6691D01*
X6293Y6691D02*
X6779Y6691D01*
X7821Y6691D02*
X12579Y6691D01*
X13024Y6691D02*
X13176Y6691D01*
X13621Y6691D02*
X14575Y6691D01*
X1924Y6741D02*
X2076Y6741D01*
X3677Y6741D02*
X4875Y6741D01*
X6243Y6741D02*
X6954Y6741D01*
X7646Y6741D02*
X12754Y6741D01*
X13024Y6741D02*
X13176Y6741D01*
X13446Y6741D02*
X14575Y6741D01*
X0525Y6790D02*
X4826Y6790D01*
X6194Y6790D02*
X14575Y6790D01*
X0525Y6840D02*
X4776Y6840D01*
X6144Y6840D02*
X14575Y6840D01*
X0525Y6889D02*
X4727Y6889D01*
X6095Y6889D02*
X14575Y6889D01*
X0525Y6939D02*
X4677Y6939D01*
X6045Y6939D02*
X14575Y6939D01*
X0525Y6988D02*
X4628Y6988D01*
X5995Y6988D02*
X14575Y6988D01*
X0525Y7038D02*
X4578Y7038D01*
X5946Y7038D02*
X14575Y7038D01*
X0525Y7087D02*
X4529Y7087D01*
X5896Y7087D02*
X14575Y7087D01*
X0525Y7137D02*
X4479Y7137D01*
X5847Y7137D02*
X14575Y7137D01*
X0525Y7187D02*
X4434Y7187D01*
X5797Y7187D02*
X14575Y7187D01*
X0525Y7236D02*
X4395Y7236D01*
X5748Y7236D02*
X14575Y7236D01*
X0525Y7286D02*
X4369Y7286D01*
X5698Y7286D02*
X14575Y7286D01*
X0525Y7335D02*
X4347Y7335D01*
X5649Y7335D02*
X14575Y7335D01*
X0525Y7385D02*
X4332Y7385D01*
X5599Y7385D02*
X14575Y7385D01*
X0525Y7434D02*
X4323Y7434D01*
X5550Y7434D02*
X14575Y7434D01*
X0525Y7484D02*
X4318Y7484D01*
X5500Y7484D02*
X14575Y7484D01*
X0525Y7533D02*
X4316Y7533D01*
X5451Y7533D02*
X14575Y7533D01*
X0525Y7583D02*
X4316Y7583D01*
X5401Y7583D02*
X14575Y7583D01*
X0525Y7632D02*
X4316Y7632D01*
X5352Y7632D02*
X14575Y7632D01*
X0525Y7682D02*
X4316Y7682D01*
X5302Y7682D02*
X14575Y7682D01*
X0525Y7731D02*
X4316Y7731D01*
X5284Y7731D02*
X14575Y7731D01*
X0525Y7781D02*
X4316Y7781D01*
X5284Y7781D02*
X14575Y7781D01*
X0525Y7830D02*
X4316Y7830D01*
X5284Y7830D02*
X14575Y7830D01*
X0525Y7880D02*
X4316Y7880D01*
X5284Y7880D02*
X14575Y7880D01*
X0525Y7929D02*
X4316Y7929D01*
X5284Y7929D02*
X14575Y7929D01*
X0525Y7979D02*
X4316Y7979D01*
X5284Y7979D02*
X14575Y7979D01*
X0525Y8029D02*
X4316Y8029D01*
X5284Y8029D02*
X14575Y8029D01*
X0525Y8078D02*
X4316Y8078D01*
X5284Y8078D02*
X14575Y8078D01*
X0525Y8128D02*
X4316Y8128D01*
X5284Y8128D02*
X14575Y8128D01*
X0525Y8177D02*
X4316Y8177D01*
X5284Y8177D02*
X14575Y8177D01*
X0525Y8227D02*
X4316Y8227D01*
X5284Y8227D02*
X14575Y8227D01*
X0525Y8276D02*
X4316Y8276D01*
X5284Y8276D02*
X14575Y8276D01*
X0525Y8326D02*
X4316Y8326D01*
X5284Y8326D02*
X14575Y8326D01*
X0525Y8375D02*
X4316Y8375D01*
X5284Y8375D02*
X14575Y8375D01*
X0525Y8425D02*
X4316Y8425D01*
X5284Y8425D02*
X14575Y8425D01*
X0525Y8474D02*
X4316Y8474D01*
X5284Y8474D02*
X14575Y8474D01*
X0525Y8524D02*
X4316Y8524D01*
X5284Y8524D02*
X14575Y8524D01*
X0525Y8573D02*
X4316Y8573D01*
X5284Y8573D02*
X14575Y8573D01*
X0525Y8623D02*
X4316Y8623D01*
X5284Y8623D02*
X14575Y8623D01*
X0525Y8672D02*
X4316Y8672D01*
X5284Y8672D02*
X14575Y8672D01*
X0525Y8722D02*
X4316Y8722D01*
X5284Y8722D02*
X14575Y8722D01*
X0525Y8772D02*
X4316Y8772D01*
X5284Y8772D02*
X14575Y8772D01*
X0525Y8821D02*
X4316Y8821D01*
X5284Y8821D02*
X14575Y8821D01*
X0525Y8871D02*
X4316Y8871D01*
X5284Y8871D02*
X14575Y8871D01*
X0525Y8920D02*
X4316Y8920D01*
X5284Y8920D02*
X14575Y8920D01*
X0525Y8970D02*
X4316Y8970D01*
X5284Y8970D02*
X14575Y8970D01*
X0525Y9019D02*
X4316Y9019D01*
X5284Y9019D02*
X14575Y9019D01*
X0525Y9069D02*
X4316Y9069D01*
X5284Y9069D02*
X14575Y9069D01*
X0525Y9118D02*
X4316Y9118D01*
X5284Y9118D02*
X14575Y9118D01*
X0525Y9168D02*
X4316Y9168D01*
X5284Y9168D02*
X14575Y9168D01*
X0525Y9217D02*
X4316Y9217D01*
X5284Y9217D02*
X14575Y9217D01*
X0525Y9267D02*
X4316Y9267D01*
X5284Y9267D02*
X14575Y9267D01*
X0525Y9316D02*
X4316Y9316D01*
X5284Y9316D02*
X14575Y9316D01*
X0525Y9366D02*
X4316Y9366D01*
X5284Y9366D02*
X14575Y9366D01*
X0525Y9415D02*
X4316Y9415D01*
X5284Y9415D02*
X14575Y9415D01*
X0525Y9465D02*
X4316Y9465D01*
X5284Y9465D02*
X14575Y9465D01*
X0525Y9514D02*
X4316Y9514D01*
X5284Y9514D02*
X14575Y9514D01*
X0525Y9564D02*
X4316Y9564D01*
X5284Y9564D02*
X14575Y9564D01*
X0525Y9614D02*
X4316Y9614D01*
X5284Y9614D02*
X14575Y9614D01*
X0525Y9663D02*
X4316Y9663D01*
X5284Y9663D02*
X14575Y9663D01*
X0525Y9713D02*
X4316Y9713D01*
X5284Y9713D02*
X14575Y9713D01*
X0525Y9762D02*
X4316Y9762D01*
X5284Y9762D02*
X14575Y9762D01*
X0525Y9812D02*
X4316Y9812D01*
X5284Y9812D02*
X14575Y9812D01*
X0525Y9861D02*
X4316Y9861D01*
X5284Y9861D02*
X14575Y9861D01*
X0525Y9911D02*
X4316Y9911D01*
X5284Y9911D02*
X14575Y9911D01*
X0525Y9960D02*
X4316Y9960D01*
X5284Y9960D02*
X14575Y9960D01*
X0525Y10010D02*
X4316Y10010D01*
X5284Y10010D02*
X14575Y10010D01*
X0525Y10059D02*
X4316Y10059D01*
X5284Y10059D02*
X14575Y10059D01*
X0525Y10109D02*
X4316Y10109D01*
X5284Y10109D02*
X14575Y10109D01*
X0525Y10158D02*
X4316Y10158D01*
X5284Y10158D02*
X14575Y10158D01*
X0525Y10208D02*
X4316Y10208D01*
X5284Y10208D02*
X14575Y10208D01*
X0525Y10257D02*
X4316Y10257D01*
X5284Y10257D02*
X14575Y10257D01*
X0525Y10307D02*
X4316Y10307D01*
X5284Y10307D02*
X14575Y10307D01*
X0525Y10356D02*
X4316Y10356D01*
X5284Y10356D02*
X14575Y10356D01*
X0525Y10406D02*
X4316Y10406D01*
X5284Y10406D02*
X14575Y10406D01*
X0525Y10456D02*
X4316Y10456D01*
X5284Y10456D02*
X14575Y10456D01*
X0525Y10505D02*
X4316Y10505D01*
X5284Y10505D02*
X14575Y10505D01*
X0525Y10555D02*
X4316Y10555D01*
X5284Y10555D02*
X14575Y10555D01*
X0525Y10604D02*
X4316Y10604D01*
X5284Y10604D02*
X14575Y10604D01*
X0525Y10654D02*
X4316Y10654D01*
X5284Y10654D02*
X14575Y10654D01*
X0525Y10703D02*
X4316Y10703D01*
X5284Y10703D02*
X14575Y10703D01*
X0525Y10753D02*
X4316Y10753D01*
X5284Y10753D02*
X14575Y10753D01*
X0525Y10802D02*
X4316Y10802D01*
X5284Y10802D02*
X14575Y10802D01*
X0525Y10852D02*
X4316Y10852D01*
X5284Y10852D02*
X14575Y10852D01*
X0525Y10901D02*
X4316Y10901D01*
X5284Y10901D02*
X14575Y10901D01*
X0525Y10951D02*
X4316Y10951D01*
X5284Y10951D02*
X14575Y10951D01*
X0525Y11000D02*
X4316Y11000D01*
X5284Y11000D02*
X14575Y11000D01*
X0525Y11050D02*
X4316Y11050D01*
X5284Y11050D02*
X14575Y11050D01*
X0525Y11099D02*
X4316Y11099D01*
X5284Y11099D02*
X14575Y11099D01*
X0525Y11149D02*
X4316Y11149D01*
X5284Y11149D02*
X14575Y11149D01*
X0525Y11198D02*
X4316Y11198D01*
X5284Y11198D02*
X14575Y11198D01*
X0525Y11248D02*
X4316Y11248D01*
X5284Y11248D02*
X14575Y11248D01*
X0525Y11298D02*
X4316Y11298D01*
X5284Y11298D02*
X14575Y11298D01*
X0525Y11347D02*
X4316Y11347D01*
X5284Y11347D02*
X14575Y11347D01*
X0525Y11397D02*
X4316Y11397D01*
X5284Y11397D02*
X14575Y11397D01*
X0525Y11446D02*
X4316Y11446D01*
X5284Y11446D02*
X14575Y11446D01*
X0525Y11496D02*
X4316Y11496D01*
X5284Y11496D02*
X14575Y11496D01*
X0525Y11545D02*
X4316Y11545D01*
X5284Y11545D02*
X14575Y11545D01*
X0525Y11595D02*
X4316Y11595D01*
X5284Y11595D02*
X14575Y11595D01*
X0525Y11644D02*
X4316Y11644D01*
X5284Y11644D02*
X14575Y11644D01*
X0525Y11694D02*
X4316Y11694D01*
X5284Y11694D02*
X14575Y11694D01*
X0525Y11743D02*
X4316Y11743D01*
X5284Y11743D02*
X14575Y11743D01*
X0525Y11793D02*
X4316Y11793D01*
X5284Y11793D02*
X14575Y11793D01*
X0525Y11842D02*
X4316Y11842D01*
X5284Y11842D02*
X14575Y11842D01*
X0525Y11892D02*
X4316Y11892D01*
X5284Y11892D02*
X14575Y11892D01*
X0525Y11941D02*
X4316Y11941D01*
X5284Y11941D02*
X14575Y11941D01*
X0525Y11991D02*
X4316Y11991D01*
X5284Y11991D02*
X14575Y11991D01*
X0525Y12040D02*
X4316Y12040D01*
X5284Y12040D02*
X14575Y12040D01*
X0525Y12090D02*
X4316Y12090D01*
X5284Y12090D02*
X14575Y12090D01*
X0525Y12140D02*
X4316Y12140D01*
X5284Y12140D02*
X14575Y12140D01*
X0525Y12189D02*
X4316Y12189D01*
X5284Y12189D02*
X14575Y12189D01*
X0525Y12239D02*
X4316Y12239D01*
X5284Y12239D02*
X14575Y12239D01*
X0525Y12288D02*
X4316Y12288D01*
X5284Y12288D02*
X14575Y12288D01*
X0525Y12338D02*
X4316Y12338D01*
X5284Y12338D02*
X14575Y12338D01*
X0525Y12387D02*
X4316Y12387D01*
X5284Y12387D02*
X14575Y12387D01*
X0525Y12437D02*
X4316Y12437D01*
X5284Y12437D02*
X14575Y12437D01*
X0525Y12486D02*
X4316Y12486D01*
X5284Y12486D02*
X14575Y12486D01*
X0525Y12536D02*
X4316Y12536D01*
X5284Y12536D02*
X14575Y12536D01*
X0525Y12585D02*
X4316Y12585D01*
X5284Y12585D02*
X14575Y12585D01*
X0525Y12635D02*
X4316Y12635D01*
X5284Y12635D02*
X14575Y12635D01*
X0525Y12684D02*
X4316Y12684D01*
X5284Y12684D02*
X14575Y12684D01*
X0525Y12734D02*
X4316Y12734D01*
X5284Y12734D02*
X14575Y12734D01*
X0525Y12783D02*
X4316Y12783D01*
X5284Y12783D02*
X14575Y12783D01*
X0525Y12833D02*
X4316Y12833D01*
X5284Y12833D02*
X14575Y12833D01*
X0525Y12883D02*
X4316Y12883D01*
X5284Y12883D02*
X14575Y12883D01*
X0525Y12932D02*
X4316Y12932D01*
X5284Y12932D02*
X14575Y12932D01*
X0525Y12982D02*
X4316Y12982D01*
X5284Y12982D02*
X14575Y12982D01*
X0525Y13031D02*
X4316Y13031D01*
X5284Y13031D02*
X14575Y13031D01*
X0525Y13081D02*
X4316Y13081D01*
X5284Y13081D02*
X14575Y13081D01*
X0525Y13130D02*
X4316Y13130D01*
X5284Y13130D02*
X14575Y13130D01*
X0525Y13180D02*
X4316Y13180D01*
X5284Y13180D02*
X14575Y13180D01*
X1918Y13229D02*
X2082Y13229D01*
X3611Y13229D02*
X4316Y13229D01*
X5284Y13229D02*
X7220Y13229D01*
X7380Y13229D02*
X14575Y13229D01*
X1924Y13279D02*
X2076Y13279D01*
X3702Y13279D02*
X4316Y13279D01*
X5284Y13279D02*
X6864Y13279D01*
X7736Y13279D02*
X12664Y13279D01*
X13024Y13279D02*
X13176Y13279D01*
X13536Y13279D02*
X14575Y13279D01*
X1924Y13328D02*
X2076Y13328D01*
X3744Y13328D02*
X4316Y13328D01*
X5284Y13328D02*
X6723Y13328D01*
X7877Y13328D02*
X12523Y13328D01*
X13024Y13328D02*
X13176Y13328D01*
X13677Y13328D02*
X14575Y13328D01*
X1924Y13378D02*
X2076Y13378D01*
X3768Y13378D02*
X4316Y13378D01*
X5284Y13378D02*
X6581Y13378D01*
X8019Y13378D02*
X12381Y13378D01*
X13024Y13378D02*
X13176Y13378D01*
X13819Y13378D02*
X14575Y13378D01*
X1924Y13427D02*
X2076Y13427D01*
X3778Y13427D02*
X4316Y13427D01*
X5284Y13427D02*
X6479Y13427D01*
X8121Y13427D02*
X12279Y13427D01*
X13024Y13427D02*
X13176Y13427D01*
X13921Y13427D02*
X14575Y13427D01*
X3780Y13477D02*
X4316Y13477D01*
X5284Y13477D02*
X6400Y13477D01*
X8200Y13477D02*
X12200Y13477D01*
X14000Y13477D02*
X14575Y13477D01*
X3780Y13526D02*
X4316Y13526D01*
X5284Y13526D02*
X6321Y13526D01*
X8279Y13526D02*
X12121Y13526D01*
X14079Y13526D02*
X14575Y13526D01*
X3780Y13576D02*
X4316Y13576D01*
X5284Y13576D02*
X6242Y13576D01*
X8358Y13576D02*
X12042Y13576D01*
X14158Y13576D02*
X14575Y13576D01*
X3780Y13625D02*
X4316Y13625D01*
X5284Y13625D02*
X6173Y13625D01*
X8427Y13625D02*
X11973Y13625D01*
X14227Y13625D02*
X14575Y13625D01*
X3780Y13675D02*
X4316Y13675D01*
X5284Y13675D02*
X6124Y13675D01*
X8476Y13675D02*
X11924Y13675D01*
X14276Y13675D02*
X14575Y13675D01*
X3780Y13725D02*
X4316Y13725D01*
X5284Y13725D02*
X6074Y13725D01*
X8526Y13725D02*
X11874Y13725D01*
X14326Y13725D02*
X14575Y13725D01*
X3780Y13774D02*
X4316Y13774D01*
X5284Y13774D02*
X6025Y13774D01*
X8575Y13774D02*
X11825Y13774D01*
X14375Y13774D02*
X14575Y13774D01*
X3780Y13824D02*
X4316Y13824D01*
X5284Y13824D02*
X5975Y13824D01*
X8625Y13824D02*
X11775Y13824D01*
X14425Y13824D02*
X14575Y13824D01*
X3780Y13873D02*
X4316Y13873D01*
X5284Y13873D02*
X5926Y13873D01*
X8674Y13873D02*
X11726Y13873D01*
X14474Y13873D02*
X14575Y13873D01*
X3780Y13923D02*
X4316Y13923D01*
X5284Y13923D02*
X5888Y13923D01*
X8712Y13923D02*
X11688Y13923D01*
X14512Y13923D02*
X14562Y13923D01*
X3780Y13972D02*
X4316Y13972D01*
X5284Y13972D02*
X5857Y13972D01*
X8743Y13972D02*
X11657Y13972D01*
X3780Y14022D02*
X4316Y14022D01*
X5284Y14022D02*
X5826Y14022D01*
X8774Y14022D02*
X11626Y14022D01*
X3780Y14071D02*
X4316Y14071D01*
X5284Y14071D02*
X5795Y14071D01*
X8805Y14071D02*
X11595Y14071D01*
X3780Y14121D02*
X4316Y14121D01*
X5284Y14121D02*
X5764Y14121D01*
X8836Y14121D02*
X11564Y14121D01*
X3780Y14170D02*
X4316Y14170D01*
X5284Y14170D02*
X5733Y14170D01*
X8867Y14170D02*
X11533Y14170D01*
X3780Y14220D02*
X4316Y14220D01*
X5284Y14220D02*
X5702Y14220D01*
X8898Y14220D02*
X11502Y14220D01*
X3780Y14269D02*
X4316Y14269D01*
X5284Y14269D02*
X5682Y14269D01*
X8918Y14269D02*
X11482Y14269D01*
X3780Y14319D02*
X4316Y14319D01*
X5284Y14319D02*
X5665Y14319D01*
X8935Y14319D02*
X11465Y14319D01*
X3780Y14368D02*
X4316Y14368D01*
X5284Y14368D02*
X5647Y14368D01*
X8953Y14368D02*
X11447Y14368D01*
X3780Y14418D02*
X4316Y14418D01*
X5284Y14418D02*
X5630Y14418D01*
X8970Y14418D02*
X11430Y14418D01*
X3780Y14467D02*
X4316Y14467D01*
X5284Y14467D02*
X5613Y14467D01*
X8987Y14467D02*
X11413Y14467D01*
X3780Y14517D02*
X4316Y14517D01*
X5284Y14517D02*
X5595Y14517D01*
X9005Y14517D02*
X11395Y14517D01*
X3780Y14567D02*
X4316Y14567D01*
X5284Y14567D02*
X5578Y14567D01*
X9022Y14567D02*
X11378Y14567D01*
X3780Y14616D02*
X4316Y14616D01*
X5284Y14616D02*
X5563Y14616D01*
X9036Y14616D02*
X11363Y14616D01*
X3780Y14666D02*
X4316Y14666D01*
X5284Y14666D02*
X5558Y14666D01*
X9042Y14666D02*
X11358Y14666D01*
X3780Y14715D02*
X4316Y14715D01*
X5284Y14715D02*
X5552Y14715D01*
X9048Y14715D02*
X11352Y14715D01*
X3780Y14765D02*
X4316Y14765D01*
X5284Y14765D02*
X5547Y14765D01*
X9053Y14765D02*
X11347Y14765D01*
X3780Y14814D02*
X4316Y14814D01*
X5284Y14814D02*
X5541Y14814D01*
X9059Y14814D02*
X11341Y14814D01*
X3780Y14864D02*
X4316Y14864D01*
X5284Y14864D02*
X5536Y14864D01*
X9064Y14864D02*
X11336Y14864D01*
X3775Y14913D02*
X4316Y14913D01*
X5284Y14913D02*
X5530Y14913D01*
X9070Y14913D02*
X11336Y14913D01*
X3525Y14963D02*
X4316Y14963D01*
X5284Y14963D02*
X5524Y14963D01*
X9076Y14963D02*
X11575Y14963D01*
X3525Y15012D02*
X4316Y15012D01*
X5284Y15012D02*
X5522Y15012D01*
X9078Y15012D02*
X11575Y15012D01*
X3525Y15062D02*
X4316Y15062D01*
X5284Y15062D02*
X5527Y15062D01*
X9073Y15062D02*
X11575Y15062D01*
X3780Y15111D02*
X4316Y15111D01*
X5284Y15111D02*
X5533Y15111D01*
X9067Y15111D02*
X11333Y15111D01*
X3780Y15161D02*
X4316Y15161D01*
X5284Y15161D02*
X5538Y15161D01*
X9062Y15161D02*
X11338Y15161D01*
X3780Y15210D02*
X4316Y15210D01*
X5284Y15210D02*
X5544Y15210D01*
X9056Y15210D02*
X11344Y15210D01*
X3780Y15260D02*
X4316Y15260D01*
X5284Y15260D02*
X5550Y15260D01*
X9050Y15260D02*
X11350Y15260D01*
X3780Y15309D02*
X4316Y15309D01*
X5284Y15309D02*
X5555Y15309D01*
X9045Y15309D02*
X11355Y15309D01*
X3780Y15359D02*
X4316Y15359D01*
X5284Y15359D02*
X5561Y15359D01*
X9039Y15359D02*
X11361Y15359D01*
X3780Y15409D02*
X4316Y15409D01*
X5284Y15409D02*
X5569Y15409D01*
X9031Y15409D02*
X11369Y15409D01*
X3780Y15458D02*
X4316Y15458D01*
X5284Y15458D02*
X5587Y15458D01*
X9013Y15458D02*
X11387Y15458D01*
X3780Y15508D02*
X4316Y15508D01*
X5284Y15508D02*
X5604Y15508D01*
X8996Y15508D02*
X11404Y15508D01*
X3780Y15557D02*
X4316Y15557D01*
X5284Y15557D02*
X5621Y15557D01*
X8979Y15557D02*
X11421Y15557D01*
X3780Y15607D02*
X4316Y15607D01*
X5284Y15607D02*
X5639Y15607D01*
X8961Y15607D02*
X11439Y15607D01*
X3780Y15656D02*
X4316Y15656D01*
X5284Y15656D02*
X5656Y15656D01*
X8944Y15656D02*
X11456Y15656D01*
X3780Y15706D02*
X4316Y15706D01*
X5284Y15706D02*
X5673Y15706D01*
X8927Y15706D02*
X11473Y15706D01*
X3780Y15755D02*
X4316Y15755D01*
X5284Y15755D02*
X5691Y15755D01*
X8909Y15755D02*
X11491Y15755D01*
X3780Y15805D02*
X4316Y15805D01*
X5284Y15805D02*
X5717Y15805D01*
X8883Y15805D02*
X11517Y15805D01*
X3780Y15854D02*
X4316Y15854D01*
X5284Y15854D02*
X5748Y15854D01*
X8852Y15854D02*
X11548Y15854D01*
X3780Y15904D02*
X4316Y15904D01*
X5284Y15904D02*
X5779Y15904D01*
X8821Y15904D02*
X11579Y15904D01*
X3780Y15953D02*
X4316Y15953D01*
X5284Y15953D02*
X5810Y15953D01*
X8790Y15953D02*
X11610Y15953D01*
X3780Y16003D02*
X4316Y16003D01*
X5284Y16003D02*
X5841Y16003D01*
X8759Y16003D02*
X11641Y16003D01*
X3780Y16052D02*
X4316Y16052D01*
X5284Y16052D02*
X5873Y16052D01*
X8727Y16052D02*
X11673Y16052D01*
X3780Y16102D02*
X4316Y16102D01*
X5284Y16102D02*
X5904Y16102D01*
X8696Y16102D02*
X11704Y16102D01*
X14496Y16102D02*
X14575Y16102D01*
X3780Y16151D02*
X4316Y16151D01*
X5284Y16151D02*
X5950Y16151D01*
X8650Y16151D02*
X11750Y16151D01*
X14450Y16151D02*
X14575Y16151D01*
X3780Y16201D02*
X4316Y16201D01*
X5284Y16201D02*
X6000Y16201D01*
X8600Y16201D02*
X11800Y16201D01*
X14400Y16201D02*
X14575Y16201D01*
X3780Y16251D02*
X4316Y16251D01*
X5284Y16251D02*
X6049Y16251D01*
X8551Y16251D02*
X11849Y16251D01*
X14351Y16251D02*
X14575Y16251D01*
X3780Y16300D02*
X4316Y16300D01*
X5284Y16300D02*
X6099Y16300D01*
X8501Y16300D02*
X11899Y16300D01*
X14301Y16300D02*
X14575Y16300D01*
X3780Y16350D02*
X4316Y16350D01*
X5284Y16350D02*
X6148Y16350D01*
X8452Y16350D02*
X11948Y16350D01*
X14252Y16350D02*
X14575Y16350D01*
X3780Y16399D02*
X4316Y16399D01*
X5284Y16399D02*
X6203Y16399D01*
X8397Y16399D02*
X12003Y16399D01*
X14197Y16399D02*
X14575Y16399D01*
X3780Y16449D02*
X4316Y16449D01*
X5284Y16449D02*
X6281Y16449D01*
X8319Y16449D02*
X12081Y16449D01*
X14119Y16449D02*
X14575Y16449D01*
X3780Y16498D02*
X4316Y16498D01*
X5284Y16498D02*
X6360Y16498D01*
X8240Y16498D02*
X12160Y16498D01*
X14040Y16498D02*
X14575Y16498D01*
X1924Y16548D02*
X2076Y16548D01*
X3780Y16548D02*
X4316Y16548D01*
X5284Y16548D02*
X6439Y16548D01*
X8161Y16548D02*
X12239Y16548D01*
X13024Y16548D02*
X13176Y16548D01*
X13961Y16548D02*
X14575Y16548D01*
X1924Y16597D02*
X2076Y16597D01*
X3774Y16597D02*
X4316Y16597D01*
X5284Y16597D02*
X6518Y16597D01*
X8082Y16597D02*
X12318Y16597D01*
X13024Y16597D02*
X13176Y16597D01*
X13882Y16597D02*
X14575Y16597D01*
X1924Y16647D02*
X2076Y16647D01*
X3758Y16647D02*
X4316Y16647D01*
X5284Y16647D02*
X6651Y16647D01*
X7949Y16647D02*
X12451Y16647D01*
X13024Y16647D02*
X13176Y16647D01*
X13749Y16647D02*
X14575Y16647D01*
X1924Y16696D02*
X2076Y16696D01*
X3726Y16696D02*
X4316Y16696D01*
X5284Y16696D02*
X6793Y16696D01*
X7807Y16696D02*
X12593Y16696D01*
X13024Y16696D02*
X13176Y16696D01*
X13607Y16696D02*
X14575Y16696D01*
X1924Y16746D02*
X2076Y16746D01*
X3669Y16746D02*
X4316Y16746D01*
X5284Y16746D02*
X6999Y16746D01*
X7601Y16746D02*
X12799Y16746D01*
X13024Y16746D02*
X13176Y16746D01*
X13401Y16746D02*
X14575Y16746D01*
X0525Y16795D02*
X4316Y16795D01*
X5284Y16795D02*
X14575Y16795D01*
X0525Y16845D02*
X4316Y16845D01*
X5284Y16845D02*
X14575Y16845D01*
X0525Y16894D02*
X4316Y16894D01*
X5284Y16894D02*
X14575Y16894D01*
X0525Y16944D02*
X4316Y16944D01*
X5284Y16944D02*
X14575Y16944D01*
X0525Y16993D02*
X4316Y16993D01*
X5284Y16993D02*
X14575Y16993D01*
X0525Y17043D02*
X4316Y17043D01*
X5284Y17043D02*
X14575Y17043D01*
X0525Y17093D02*
X4316Y17093D01*
X5284Y17093D02*
X14575Y17093D01*
X0525Y17142D02*
X4316Y17142D01*
X5284Y17142D02*
X14575Y17142D01*
X0525Y17192D02*
X4316Y17192D01*
X5284Y17192D02*
X14575Y17192D01*
X0525Y17241D02*
X4316Y17241D01*
X5284Y17241D02*
X14575Y17241D01*
X0525Y17291D02*
X4316Y17291D01*
X5284Y17291D02*
X14575Y17291D01*
X0525Y17340D02*
X4316Y17340D01*
X5284Y17340D02*
X14575Y17340D01*
X0525Y17390D02*
X4316Y17390D01*
X5284Y17390D02*
X14575Y17390D01*
X0525Y17439D02*
X4316Y17439D01*
X5284Y17439D02*
X14575Y17439D01*
X0525Y17489D02*
X4316Y17489D01*
X5284Y17489D02*
X14575Y17489D01*
X0525Y17538D02*
X4316Y17538D01*
X5284Y17538D02*
X14575Y17538D01*
X0525Y17588D02*
X4316Y17588D01*
X5284Y17588D02*
X14575Y17588D01*
X0525Y17637D02*
X4316Y17637D01*
X5284Y17637D02*
X14575Y17637D01*
X0525Y17687D02*
X4316Y17687D01*
X5284Y17687D02*
X14575Y17687D01*
X0525Y17736D02*
X4316Y17736D01*
X5284Y17736D02*
X14575Y17736D01*
X0525Y17786D02*
X4316Y17786D01*
X5284Y17786D02*
X14575Y17786D01*
X0525Y17835D02*
X4316Y17835D01*
X5284Y17835D02*
X14575Y17835D01*
X0525Y17885D02*
X4316Y17885D01*
X5284Y17885D02*
X14575Y17885D01*
X0525Y17935D02*
X4316Y17935D01*
X5284Y17935D02*
X14575Y17935D01*
X0525Y17984D02*
X4316Y17984D01*
X5284Y17984D02*
X14575Y17984D01*
X0525Y18034D02*
X4316Y18034D01*
X5284Y18034D02*
X14575Y18034D01*
X0525Y18083D02*
X4316Y18083D01*
X5284Y18083D02*
X14575Y18083D01*
X0525Y18133D02*
X4316Y18133D01*
X5284Y18133D02*
X14575Y18133D01*
X0525Y18182D02*
X4316Y18182D01*
X5284Y18182D02*
X14575Y18182D01*
X0525Y18232D02*
X4316Y18232D01*
X5284Y18232D02*
X14575Y18232D01*
X0525Y18281D02*
X4316Y18281D01*
X5284Y18281D02*
X14575Y18281D01*
X0525Y18331D02*
X4316Y18331D01*
X5284Y18331D02*
X14575Y18331D01*
X0525Y18380D02*
X4316Y18380D01*
X5284Y18380D02*
X14575Y18380D01*
X0525Y18430D02*
X4316Y18430D01*
X5284Y18430D02*
X14575Y18430D01*
X0525Y18479D02*
X4316Y18479D01*
X5284Y18479D02*
X14575Y18479D01*
X0525Y18529D02*
X4316Y18529D01*
X5284Y18529D02*
X14575Y18529D01*
X0525Y18578D02*
X4316Y18578D01*
X5284Y18578D02*
X14575Y18578D01*
X0525Y18628D02*
X4316Y18628D01*
X5284Y18628D02*
X14575Y18628D01*
X0525Y18678D02*
X4316Y18678D01*
X5284Y18678D02*
X14575Y18678D01*
X0525Y18727D02*
X4316Y18727D01*
X5284Y18727D02*
X14575Y18727D01*
X0525Y18777D02*
X4316Y18777D01*
X5284Y18777D02*
X14575Y18777D01*
X0525Y18826D02*
X4316Y18826D01*
X5284Y18826D02*
X14575Y18826D01*
X0525Y18876D02*
X4316Y18876D01*
X5284Y18876D02*
X14575Y18876D01*
X0525Y18925D02*
X4316Y18925D01*
X5284Y18925D02*
X14575Y18925D01*
X0525Y18975D02*
X4316Y18975D01*
X5284Y18975D02*
X14575Y18975D01*
X0525Y19024D02*
X4316Y19024D01*
X5284Y19024D02*
X14575Y19024D01*
X0525Y19074D02*
X4316Y19074D01*
X5284Y19074D02*
X14575Y19074D01*
X0525Y19123D02*
X4316Y19123D01*
X5284Y19123D02*
X14575Y19123D01*
X0525Y19173D02*
X4316Y19173D01*
X5284Y19173D02*
X14575Y19173D01*
X0525Y19222D02*
X4316Y19222D01*
X5284Y19222D02*
X14575Y19222D01*
X0525Y19272D02*
X4316Y19272D01*
X5284Y19272D02*
X14575Y19272D01*
X0525Y19321D02*
X4316Y19321D01*
X5284Y19321D02*
X14575Y19321D01*
X0525Y19371D02*
X4316Y19371D01*
X5284Y19371D02*
X14575Y19371D01*
X0525Y19420D02*
X4316Y19420D01*
X5284Y19420D02*
X14575Y19420D01*
X0525Y19470D02*
X4316Y19470D01*
X5284Y19470D02*
X14575Y19470D01*
X0525Y19520D02*
X4316Y19520D01*
X5284Y19520D02*
X14575Y19520D01*
X0525Y19569D02*
X4316Y19569D01*
X5284Y19569D02*
X14575Y19569D01*
X0525Y19619D02*
X4316Y19619D01*
X5284Y19619D02*
X14575Y19619D01*
X0525Y19668D02*
X4316Y19668D01*
X5284Y19668D02*
X14575Y19668D01*
X0525Y19718D02*
X4316Y19718D01*
X5284Y19718D02*
X14575Y19718D01*
X0525Y19767D02*
X4316Y19767D01*
X5284Y19767D02*
X14575Y19767D01*
X0525Y19817D02*
X4316Y19817D01*
X5284Y19817D02*
X14575Y19817D01*
X0525Y19866D02*
X4316Y19866D01*
X5284Y19866D02*
X14575Y19866D01*
X0525Y19916D02*
X4316Y19916D01*
X5284Y19916D02*
X14575Y19916D01*
X0525Y19965D02*
X4316Y19965D01*
X5284Y19965D02*
X14575Y19965D01*
X0525Y20015D02*
X4316Y20015D01*
X5284Y20015D02*
X14575Y20015D01*
X0525Y20064D02*
X4316Y20064D01*
X5284Y20064D02*
X14575Y20064D01*
X0525Y20114D02*
X4316Y20114D01*
X5284Y20114D02*
X14575Y20114D01*
X0525Y20163D02*
X4316Y20163D01*
X5284Y20163D02*
X14575Y20163D01*
X0525Y20213D02*
X4316Y20213D01*
X5284Y20213D02*
X14575Y20213D01*
X0525Y20262D02*
X4316Y20262D01*
X5284Y20262D02*
X14575Y20262D01*
X0525Y20312D02*
X4316Y20312D01*
X5284Y20312D02*
X14575Y20312D01*
X0525Y20362D02*
X4316Y20362D01*
X5284Y20362D02*
X14575Y20362D01*
X0525Y20411D02*
X4316Y20411D01*
X5284Y20411D02*
X14575Y20411D01*
X0525Y20461D02*
X4316Y20461D01*
X5284Y20461D02*
X14575Y20461D01*
X0525Y20510D02*
X4316Y20510D01*
X5284Y20510D02*
X14575Y20510D01*
X0525Y20560D02*
X4316Y20560D01*
X5284Y20560D02*
X14575Y20560D01*
X0525Y20609D02*
X4316Y20609D01*
X5284Y20609D02*
X14575Y20609D01*
X0525Y20659D02*
X4316Y20659D01*
X5284Y20659D02*
X14575Y20659D01*
X0525Y20708D02*
X4316Y20708D01*
X5284Y20708D02*
X14575Y20708D01*
X0525Y20758D02*
X4316Y20758D01*
X5284Y20758D02*
X14575Y20758D01*
X0525Y20807D02*
X4316Y20807D01*
X5284Y20807D02*
X14575Y20807D01*
X0525Y20857D02*
X4316Y20857D01*
X5284Y20857D02*
X14575Y20857D01*
X0525Y20906D02*
X4316Y20906D01*
X5284Y20906D02*
X14575Y20906D01*
X0525Y20956D02*
X4316Y20956D01*
X5284Y20956D02*
X14575Y20956D01*
X0525Y21005D02*
X4316Y21005D01*
X5284Y21005D02*
X14575Y21005D01*
X0525Y21055D02*
X4316Y21055D01*
X5284Y21055D02*
X14575Y21055D01*
X0525Y21104D02*
X4316Y21104D01*
X5284Y21104D02*
X14575Y21104D01*
X0525Y21154D02*
X4316Y21154D01*
X5284Y21154D02*
X14575Y21154D01*
X0525Y21204D02*
X4316Y21204D01*
X5284Y21204D02*
X14575Y21204D01*
X0525Y21253D02*
X4316Y21253D01*
X5284Y21253D02*
X14575Y21253D01*
X0525Y21303D02*
X4316Y21303D01*
X5284Y21303D02*
X14575Y21303D01*
X0525Y21352D02*
X4316Y21352D01*
X5284Y21352D02*
X14575Y21352D01*
X0525Y21402D02*
X4316Y21402D01*
X5284Y21402D02*
X14575Y21402D01*
X0525Y21451D02*
X4316Y21451D01*
X5284Y21451D02*
X14575Y21451D01*
X0525Y21501D02*
X4316Y21501D01*
X5284Y21501D02*
X14575Y21501D01*
X0525Y21550D02*
X4316Y21550D01*
X5284Y21550D02*
X14575Y21550D01*
X0525Y21600D02*
X4316Y21600D01*
X5284Y21600D02*
X14575Y21600D01*
X0525Y21649D02*
X4316Y21649D01*
X5284Y21649D02*
X14575Y21649D01*
X0525Y21699D02*
X4316Y21699D01*
X5284Y21699D02*
X14575Y21699D01*
X0525Y21748D02*
X4316Y21748D01*
X5284Y21748D02*
X14575Y21748D01*
X0525Y21798D02*
X4316Y21798D01*
X5284Y21798D02*
X14575Y21798D01*
X0525Y21847D02*
X4316Y21847D01*
X5284Y21847D02*
X14575Y21847D01*
X0525Y21897D02*
X4316Y21897D01*
X5284Y21897D02*
X14575Y21897D01*
X0525Y21946D02*
X4316Y21946D01*
X5284Y21946D02*
X14575Y21946D01*
X0525Y21996D02*
X4316Y21996D01*
X5284Y21996D02*
X14575Y21996D01*
X0525Y22046D02*
X4316Y22046D01*
X5284Y22046D02*
X14575Y22046D01*
X0525Y22095D02*
X4316Y22095D01*
X5284Y22095D02*
X14575Y22095D01*
X0525Y22145D02*
X4316Y22145D01*
X5284Y22145D02*
X14575Y22145D01*
X0525Y22194D02*
X4316Y22194D01*
X5284Y22194D02*
X14575Y22194D01*
X0525Y22244D02*
X4316Y22244D01*
X5284Y22244D02*
X14575Y22244D01*
X0525Y22293D02*
X4316Y22293D01*
X5284Y22293D02*
X14575Y22293D01*
X0525Y22343D02*
X4316Y22343D01*
X5284Y22343D02*
X14575Y22343D01*
X0525Y22392D02*
X4316Y22392D01*
X5284Y22392D02*
X14575Y22392D01*
X0525Y22442D02*
X4316Y22442D01*
X5284Y22442D02*
X14575Y22442D01*
X0525Y22491D02*
X4316Y22491D01*
X5284Y22491D02*
X14575Y22491D01*
X0525Y22541D02*
X4316Y22541D01*
X5284Y22541D02*
X14575Y22541D01*
X0525Y22590D02*
X4316Y22590D01*
X5284Y22590D02*
X14575Y22590D01*
X0525Y22640D02*
X4316Y22640D01*
X5284Y22640D02*
X14575Y22640D01*
X0525Y22689D02*
X4316Y22689D01*
X5284Y22689D02*
X14575Y22689D01*
X0525Y22739D02*
X4316Y22739D01*
X5284Y22739D02*
X14575Y22739D01*
X0525Y22788D02*
X4316Y22788D01*
X5284Y22788D02*
X14575Y22788D01*
X0525Y22838D02*
X4316Y22838D01*
X5284Y22838D02*
X14575Y22838D01*
X0525Y22888D02*
X4316Y22888D01*
X5284Y22888D02*
X14575Y22888D01*
X0525Y22937D02*
X4316Y22937D01*
X5284Y22937D02*
X14575Y22937D01*
X0525Y22987D02*
X4316Y22987D01*
X5284Y22987D02*
X14575Y22987D01*
X0525Y23036D02*
X4316Y23036D01*
X5284Y23036D02*
X14575Y23036D01*
X0525Y23086D02*
X4316Y23086D01*
X5284Y23086D02*
X14575Y23086D01*
X0525Y23135D02*
X4316Y23135D01*
X5284Y23135D02*
X14575Y23135D01*
X0525Y23185D02*
X4316Y23185D01*
X5284Y23185D02*
X14575Y23185D01*
X1923Y23234D02*
X2077Y23234D01*
X3628Y23234D02*
X4316Y23234D01*
X5284Y23234D02*
X7175Y23234D01*
X7425Y23234D02*
X12975Y23234D01*
X13011Y23234D02*
X13189Y23234D01*
X13225Y23234D02*
X14575Y23234D01*
X1924Y23284D02*
X2076Y23284D01*
X3708Y23284D02*
X4316Y23284D01*
X5284Y23284D02*
X6850Y23284D01*
X7750Y23284D02*
X12650Y23284D01*
X13024Y23284D02*
X13176Y23284D01*
X13550Y23284D02*
X14575Y23284D01*
X1924Y23333D02*
X2076Y23333D01*
X3747Y23333D02*
X4316Y23333D01*
X5284Y23333D02*
X6708Y23333D01*
X7892Y23333D02*
X12508Y23333D01*
X13024Y23333D02*
X13176Y23333D01*
X13692Y23333D02*
X14575Y23333D01*
X1924Y23383D02*
X2076Y23383D01*
X3769Y23383D02*
X4316Y23383D01*
X5284Y23383D02*
X6567Y23383D01*
X8033Y23383D02*
X12367Y23383D01*
X13024Y23383D02*
X13176Y23383D01*
X13833Y23383D02*
X14575Y23383D01*
X1924Y23432D02*
X2076Y23432D01*
X3778Y23432D02*
X4316Y23432D01*
X5284Y23432D02*
X6471Y23432D01*
X8129Y23432D02*
X12271Y23432D01*
X13024Y23432D02*
X13176Y23432D01*
X13929Y23432D02*
X14575Y23432D01*
X3780Y23482D02*
X4316Y23482D01*
X5284Y23482D02*
X6392Y23482D01*
X8208Y23482D02*
X12192Y23482D01*
X14008Y23482D02*
X14575Y23482D01*
X3780Y23531D02*
X4316Y23531D01*
X5284Y23531D02*
X6313Y23531D01*
X8287Y23531D02*
X12113Y23531D01*
X14087Y23531D02*
X14575Y23531D01*
X3780Y23581D02*
X4316Y23581D01*
X5284Y23581D02*
X6234Y23581D01*
X8366Y23581D02*
X12034Y23581D01*
X14166Y23581D02*
X14575Y23581D01*
X3780Y23631D02*
X4316Y23631D01*
X5284Y23631D02*
X6168Y23631D01*
X8432Y23631D02*
X11968Y23631D01*
X14232Y23631D02*
X14575Y23631D01*
X3780Y23680D02*
X4316Y23680D01*
X5284Y23680D02*
X6119Y23680D01*
X8481Y23680D02*
X11919Y23680D01*
X14281Y23680D02*
X14575Y23680D01*
X3780Y23730D02*
X4316Y23730D01*
X5284Y23730D02*
X6069Y23730D01*
X8531Y23730D02*
X11869Y23730D01*
X14331Y23730D02*
X14575Y23730D01*
X3780Y23779D02*
X4316Y23779D01*
X5284Y23779D02*
X6020Y23779D01*
X8580Y23779D02*
X11820Y23779D01*
X14380Y23779D02*
X14575Y23779D01*
X3780Y23829D02*
X4316Y23829D01*
X5284Y23829D02*
X5970Y23829D01*
X8630Y23829D02*
X11770Y23829D01*
X14430Y23829D02*
X14575Y23829D01*
X3780Y23878D02*
X4316Y23878D01*
X5284Y23878D02*
X5921Y23878D01*
X8679Y23878D02*
X11721Y23878D01*
X14479Y23878D02*
X14575Y23878D01*
X3780Y23928D02*
X4316Y23928D01*
X5284Y23928D02*
X5885Y23928D01*
X8715Y23928D02*
X11685Y23928D01*
X14515Y23928D02*
X14545Y23928D01*
X3780Y23977D02*
X4316Y23977D01*
X5284Y23977D02*
X5854Y23977D01*
X8746Y23977D02*
X11654Y23977D01*
X3780Y24027D02*
X4316Y24027D01*
X5284Y24027D02*
X5823Y24027D01*
X8777Y24027D02*
X11623Y24027D01*
X3780Y24076D02*
X4316Y24076D01*
X5284Y24076D02*
X5792Y24076D01*
X8808Y24076D02*
X11592Y24076D01*
X3780Y24126D02*
X4316Y24126D01*
X5284Y24126D02*
X5761Y24126D01*
X8839Y24126D02*
X11561Y24126D01*
X3780Y24175D02*
X4316Y24175D01*
X5284Y24175D02*
X5729Y24175D01*
X8871Y24175D02*
X11529Y24175D01*
X3780Y24225D02*
X4316Y24225D01*
X5284Y24225D02*
X5698Y24225D01*
X8902Y24225D02*
X11498Y24225D01*
X3780Y24274D02*
X4316Y24274D01*
X5284Y24274D02*
X5680Y24274D01*
X8920Y24274D02*
X11480Y24274D01*
X3780Y24324D02*
X4316Y24324D01*
X5284Y24324D02*
X5663Y24324D01*
X8937Y24324D02*
X11463Y24324D01*
X3780Y24373D02*
X4316Y24373D01*
X5284Y24373D02*
X5646Y24373D01*
X8954Y24373D02*
X11446Y24373D01*
X3780Y24423D02*
X4316Y24423D01*
X5284Y24423D02*
X5628Y24423D01*
X8972Y24423D02*
X11428Y24423D01*
X3780Y24473D02*
X4316Y24473D01*
X5284Y24473D02*
X5611Y24473D01*
X8989Y24473D02*
X11411Y24473D01*
X3780Y24522D02*
X4316Y24522D01*
X5284Y24522D02*
X5594Y24522D01*
X9006Y24522D02*
X11394Y24522D01*
X3780Y24572D02*
X4316Y24572D01*
X5284Y24572D02*
X5576Y24572D01*
X9024Y24572D02*
X11376Y24572D01*
X3780Y24621D02*
X4316Y24621D01*
X5284Y24621D02*
X5563Y24621D01*
X9037Y24621D02*
X11363Y24621D01*
X3780Y24671D02*
X4316Y24671D01*
X5284Y24671D02*
X5557Y24671D01*
X9043Y24671D02*
X11357Y24671D01*
X3780Y24720D02*
X4316Y24720D01*
X5284Y24720D02*
X5552Y24720D01*
X9048Y24720D02*
X11352Y24720D01*
X3780Y24770D02*
X4316Y24770D01*
X5284Y24770D02*
X5546Y24770D01*
X9054Y24770D02*
X11346Y24770D01*
X3780Y24819D02*
X4316Y24819D01*
X5284Y24819D02*
X5541Y24819D01*
X9059Y24819D02*
X11341Y24819D01*
X3780Y24869D02*
X4316Y24869D01*
X5284Y24869D02*
X5535Y24869D01*
X9065Y24869D02*
X11335Y24869D01*
X3770Y24918D02*
X4316Y24918D01*
X5284Y24918D02*
X5529Y24918D01*
X9071Y24918D02*
X11329Y24918D01*
X3525Y24968D02*
X4316Y24968D01*
X5284Y24968D02*
X5524Y24968D01*
X9076Y24968D02*
X11324Y24968D01*
X3525Y25017D02*
X4316Y25017D01*
X5284Y25017D02*
X5522Y25017D01*
X9078Y25017D02*
X11322Y25017D01*
X3525Y25067D02*
X4316Y25067D01*
X5284Y25067D02*
X5528Y25067D01*
X9072Y25067D02*
X11328Y25067D01*
X3780Y25116D02*
X4316Y25116D01*
X5284Y25116D02*
X5533Y25116D01*
X9067Y25116D02*
X11333Y25116D01*
X3780Y25166D02*
X4316Y25166D01*
X5284Y25166D02*
X5539Y25166D01*
X9061Y25166D02*
X11339Y25166D01*
X3780Y25215D02*
X4316Y25215D01*
X5284Y25215D02*
X5545Y25215D01*
X9055Y25215D02*
X11345Y25215D01*
X3780Y25265D02*
X4316Y25265D01*
X5284Y25265D02*
X5550Y25265D01*
X9050Y25265D02*
X11350Y25265D01*
X3780Y25315D02*
X4316Y25315D01*
X5284Y25315D02*
X5556Y25315D01*
X9044Y25315D02*
X11356Y25315D01*
X3780Y25364D02*
X4316Y25364D01*
X5284Y25364D02*
X5561Y25364D01*
X9039Y25364D02*
X11361Y25364D01*
X3780Y25414D02*
X4316Y25414D01*
X5284Y25414D02*
X5571Y25414D01*
X9029Y25414D02*
X11371Y25414D01*
X3780Y25463D02*
X4316Y25463D01*
X5284Y25463D02*
X5588Y25463D01*
X9012Y25463D02*
X11388Y25463D01*
X3780Y25513D02*
X4316Y25513D01*
X5284Y25513D02*
X5606Y25513D01*
X8994Y25513D02*
X11406Y25513D01*
X3780Y25562D02*
X4316Y25562D01*
X5284Y25562D02*
X5623Y25562D01*
X8977Y25562D02*
X11423Y25562D01*
X3780Y25612D02*
X4316Y25612D01*
X5284Y25612D02*
X5640Y25612D01*
X8960Y25612D02*
X11440Y25612D01*
X3780Y25661D02*
X4316Y25661D01*
X5284Y25661D02*
X5658Y25661D01*
X8942Y25661D02*
X11458Y25661D01*
X3780Y25711D02*
X4316Y25711D01*
X5284Y25711D02*
X5675Y25711D01*
X8925Y25711D02*
X11475Y25711D01*
X3780Y25760D02*
X4316Y25760D01*
X5284Y25760D02*
X5692Y25760D01*
X8908Y25760D02*
X11492Y25760D01*
X3780Y25810D02*
X4316Y25810D01*
X5284Y25810D02*
X5720Y25810D01*
X8880Y25810D02*
X11520Y25810D01*
X3780Y25859D02*
X4316Y25859D01*
X5284Y25859D02*
X5751Y25859D01*
X8849Y25859D02*
X11551Y25859D01*
X3780Y25909D02*
X4316Y25909D01*
X5284Y25909D02*
X5782Y25909D01*
X8818Y25909D02*
X11582Y25909D01*
X3780Y25958D02*
X4316Y25958D01*
X5284Y25958D02*
X5813Y25958D01*
X8787Y25958D02*
X11613Y25958D01*
X3780Y26008D02*
X4316Y26008D01*
X5284Y26008D02*
X5845Y26008D01*
X8755Y26008D02*
X11645Y26008D01*
X3780Y26057D02*
X4316Y26057D01*
X5284Y26057D02*
X5876Y26057D01*
X8724Y26057D02*
X11676Y26057D01*
X3780Y26107D02*
X4316Y26107D01*
X5284Y26107D02*
X5907Y26107D01*
X8693Y26107D02*
X11707Y26107D01*
X14493Y26107D02*
X14575Y26107D01*
X3780Y26157D02*
X4316Y26157D01*
X5284Y26157D02*
X5955Y26157D01*
X8645Y26157D02*
X11755Y26157D01*
X14445Y26157D02*
X14575Y26157D01*
X3780Y26206D02*
X4316Y26206D01*
X5284Y26206D02*
X6005Y26206D01*
X8595Y26206D02*
X11805Y26206D01*
X14395Y26206D02*
X14575Y26206D01*
X3780Y26256D02*
X4316Y26256D01*
X5284Y26256D02*
X6054Y26256D01*
X8546Y26256D02*
X11854Y26256D01*
X14346Y26256D02*
X14575Y26256D01*
X3780Y26305D02*
X4316Y26305D01*
X5284Y26305D02*
X6104Y26305D01*
X8496Y26305D02*
X11904Y26305D01*
X14296Y26305D02*
X14575Y26305D01*
X3780Y26355D02*
X4316Y26355D01*
X5284Y26355D02*
X6154Y26355D01*
X8446Y26355D02*
X11954Y26355D01*
X14246Y26355D02*
X14575Y26355D01*
X3780Y26404D02*
X4316Y26404D01*
X5284Y26404D02*
X6211Y26404D01*
X8389Y26404D02*
X12011Y26404D01*
X14189Y26404D02*
X14575Y26404D01*
X3780Y26454D02*
X4316Y26454D01*
X5284Y26454D02*
X6289Y26454D01*
X8311Y26454D02*
X12089Y26454D01*
X14111Y26454D02*
X14575Y26454D01*
X3780Y26503D02*
X4316Y26503D01*
X5284Y26503D02*
X6368Y26503D01*
X8232Y26503D02*
X12168Y26503D01*
X14032Y26503D02*
X14575Y26503D01*
X1924Y26553D02*
X2076Y26553D01*
X3779Y26553D02*
X4316Y26553D01*
X5284Y26553D02*
X6447Y26553D01*
X8153Y26553D02*
X12247Y26553D01*
X13024Y26553D02*
X13176Y26553D01*
X13953Y26553D02*
X14575Y26553D01*
X1924Y26602D02*
X2076Y26602D01*
X3773Y26602D02*
X4316Y26602D01*
X5284Y26602D02*
X6526Y26602D01*
X8074Y26602D02*
X12326Y26602D01*
X13024Y26602D02*
X13176Y26602D01*
X13874Y26602D02*
X14575Y26602D01*
X1924Y26652D02*
X2076Y26652D01*
X3756Y26652D02*
X4316Y26652D01*
X5284Y26652D02*
X6666Y26652D01*
X7934Y26652D02*
X12466Y26652D01*
X13024Y26652D02*
X13176Y26652D01*
X13734Y26652D02*
X14575Y26652D01*
X1924Y26701D02*
X2076Y26701D01*
X3722Y26701D02*
X4316Y26701D01*
X5284Y26701D02*
X6807Y26701D01*
X7793Y26701D02*
X12607Y26701D01*
X13024Y26701D02*
X13176Y26701D01*
X13593Y26701D02*
X14575Y26701D01*
X1924Y26751D02*
X2076Y26751D01*
X3660Y26751D02*
X4316Y26751D01*
X5284Y26751D02*
X7044Y26751D01*
X7556Y26751D02*
X12844Y26751D01*
X13024Y26751D02*
X13176Y26751D01*
X13356Y26751D02*
X14575Y26751D01*
X0525Y26800D02*
X4316Y26800D01*
X5284Y26800D02*
X14575Y26800D01*
X0525Y26850D02*
X4316Y26850D01*
X5284Y26850D02*
X14575Y26850D01*
X0525Y26899D02*
X4316Y26899D01*
X5284Y26899D02*
X14575Y26899D01*
X0525Y26949D02*
X4316Y26949D01*
X5284Y26949D02*
X14575Y26949D01*
X0525Y26999D02*
X4316Y26999D01*
X5284Y26999D02*
X14575Y26999D01*
X0525Y27048D02*
X4316Y27048D01*
X5284Y27048D02*
X14575Y27048D01*
X0525Y27098D02*
X4316Y27098D01*
X5284Y27098D02*
X14575Y27098D01*
X0525Y27147D02*
X4316Y27147D01*
X5284Y27147D02*
X14575Y27147D01*
X0525Y27197D02*
X4316Y27197D01*
X5284Y27197D02*
X14575Y27197D01*
X0525Y27246D02*
X4316Y27246D01*
X5284Y27246D02*
X14575Y27246D01*
X0525Y27296D02*
X4316Y27296D01*
X5284Y27296D02*
X14575Y27296D01*
X0525Y27345D02*
X4316Y27345D01*
X5284Y27345D02*
X14575Y27345D01*
X0525Y27395D02*
X4316Y27395D01*
X5284Y27395D02*
X14575Y27395D01*
X0525Y27444D02*
X4316Y27444D01*
X5284Y27444D02*
X14575Y27444D01*
X0525Y27494D02*
X4316Y27494D01*
X5284Y27494D02*
X14575Y27494D01*
X0525Y27543D02*
X4316Y27543D01*
X5284Y27543D02*
X14575Y27543D01*
X0525Y27593D02*
X4316Y27593D01*
X5284Y27593D02*
X14575Y27593D01*
X0525Y27642D02*
X4316Y27642D01*
X5284Y27642D02*
X14575Y27642D01*
X0525Y27692D02*
X4316Y27692D01*
X5284Y27692D02*
X14575Y27692D01*
X0525Y27741D02*
X4316Y27741D01*
X5284Y27741D02*
X14575Y27741D01*
X0525Y27791D02*
X4316Y27791D01*
X5284Y27791D02*
X14575Y27791D01*
X0525Y27841D02*
X4316Y27841D01*
X5284Y27841D02*
X14575Y27841D01*
X0525Y27890D02*
X4316Y27890D01*
X5284Y27890D02*
X14575Y27890D01*
X0525Y27940D02*
X4316Y27940D01*
X5284Y27940D02*
X14575Y27940D01*
X0525Y27989D02*
X4316Y27989D01*
X5284Y27989D02*
X14575Y27989D01*
X0525Y28039D02*
X4316Y28039D01*
X5284Y28039D02*
X14575Y28039D01*
X0525Y28088D02*
X4316Y28088D01*
X5284Y28088D02*
X14575Y28088D01*
X0525Y28138D02*
X4316Y28138D01*
X5284Y28138D02*
X14575Y28138D01*
X0525Y28187D02*
X4316Y28187D01*
X5284Y28187D02*
X14575Y28187D01*
X0525Y28237D02*
X4316Y28237D01*
X5284Y28237D02*
X14575Y28237D01*
X0525Y28286D02*
X4316Y28286D01*
X5284Y28286D02*
X14575Y28286D01*
X0525Y28336D02*
X4316Y28336D01*
X5284Y28336D02*
X14575Y28336D01*
X0525Y28385D02*
X4316Y28385D01*
X5284Y28385D02*
X14575Y28385D01*
X0525Y28435D02*
X4316Y28435D01*
X5284Y28435D02*
X14575Y28435D01*
X0525Y28484D02*
X4316Y28484D01*
X5284Y28484D02*
X14575Y28484D01*
X0525Y28534D02*
X4316Y28534D01*
X5284Y28534D02*
X14575Y28534D01*
X0525Y28584D02*
X4316Y28584D01*
X5284Y28584D02*
X14575Y28584D01*
X0525Y28633D02*
X4316Y28633D01*
X5284Y28633D02*
X14575Y28633D01*
X0525Y28683D02*
X4316Y28683D01*
X5284Y28683D02*
X14575Y28683D01*
X0525Y28732D02*
X4316Y28732D01*
X5284Y28732D02*
X14575Y28732D01*
X0525Y28782D02*
X4316Y28782D01*
X5284Y28782D02*
X14575Y28782D01*
X0525Y28831D02*
X4316Y28831D01*
X5284Y28831D02*
X14575Y28831D01*
X0525Y28881D02*
X4316Y28881D01*
X5284Y28881D02*
X14575Y28881D01*
X0525Y28930D02*
X4316Y28930D01*
X5284Y28930D02*
X14575Y28930D01*
X0525Y28980D02*
X4316Y28980D01*
X5284Y28980D02*
X14575Y28980D01*
X0525Y29029D02*
X4316Y29029D01*
X5284Y29029D02*
X14575Y29029D01*
X0525Y29079D02*
X4316Y29079D01*
X5284Y29079D02*
X14575Y29079D01*
X0525Y29128D02*
X4316Y29128D01*
X5284Y29128D02*
X14575Y29128D01*
X0525Y29178D02*
X4316Y29178D01*
X5284Y29178D02*
X14575Y29178D01*
X0525Y29227D02*
X4316Y29227D01*
X5284Y29227D02*
X14575Y29227D01*
X0525Y29277D02*
X4316Y29277D01*
X5284Y29277D02*
X14575Y29277D01*
X0525Y29326D02*
X4316Y29326D01*
X5284Y29326D02*
X14575Y29326D01*
X0525Y29376D02*
X4316Y29376D01*
X5284Y29376D02*
X14575Y29376D01*
X0525Y29426D02*
X4316Y29426D01*
X5284Y29426D02*
X14575Y29426D01*
X0525Y29475D02*
X4316Y29475D01*
X5284Y29475D02*
X14575Y29475D01*
X0525Y29525D02*
X4316Y29525D01*
X5284Y29525D02*
X14575Y29525D01*
X0525Y29574D02*
X4316Y29574D01*
X5284Y29574D02*
X14575Y29574D01*
X0525Y29624D02*
X4316Y29624D01*
X5284Y29624D02*
X14575Y29624D01*
X0525Y29673D02*
X4316Y29673D01*
X5284Y29673D02*
X14575Y29673D01*
X0525Y29723D02*
X4316Y29723D01*
X5284Y29723D02*
X14575Y29723D01*
X0525Y29772D02*
X4316Y29772D01*
X5284Y29772D02*
X14575Y29772D01*
X0525Y29822D02*
X4294Y29822D01*
X5284Y29822D02*
X14575Y29822D01*
X0525Y29871D02*
X4245Y29871D01*
X5284Y29871D02*
X14575Y29871D01*
X0525Y29921D02*
X4195Y29921D01*
X5284Y29921D02*
X14575Y29921D01*
X0525Y29970D02*
X4146Y29970D01*
X5284Y29970D02*
X14575Y29970D01*
X0525Y30020D02*
X4096Y30020D01*
X5282Y30020D02*
X14575Y30020D01*
X0525Y30069D02*
X4047Y30069D01*
X5277Y30069D02*
X14575Y30069D01*
X0525Y30119D02*
X3997Y30119D01*
X5267Y30119D02*
X14575Y30119D01*
X0525Y30168D02*
X3948Y30168D01*
X5252Y30168D02*
X14575Y30168D01*
X0525Y30218D02*
X3898Y30218D01*
X5229Y30218D02*
X14575Y30218D01*
X0525Y30268D02*
X3849Y30268D01*
X5203Y30268D02*
X14575Y30268D01*
X0525Y30317D02*
X3799Y30317D01*
X5163Y30317D02*
X14575Y30317D01*
X0525Y30367D02*
X3749Y30367D01*
X5117Y30367D02*
X14575Y30367D01*
X0525Y30416D02*
X3700Y30416D01*
X5068Y30416D02*
X14575Y30416D01*
X0525Y30466D02*
X3650Y30466D01*
X5018Y30466D02*
X14575Y30466D01*
X0525Y30515D02*
X3601Y30515D01*
X4969Y30515D02*
X14575Y30515D01*
X0525Y30565D02*
X3551Y30565D01*
X4919Y30565D02*
X14575Y30565D01*
X0525Y30614D02*
X3502Y30614D01*
X4870Y30614D02*
X14575Y30614D01*
X0525Y30664D02*
X3452Y30664D01*
X4820Y30664D02*
X14575Y30664D01*
X0525Y30713D02*
X3403Y30713D01*
X4771Y30713D02*
X14575Y30713D01*
X0525Y30763D02*
X3353Y30763D01*
X4721Y30763D02*
X14575Y30763D01*
X0525Y30812D02*
X3304Y30812D01*
X4672Y30812D02*
X14575Y30812D01*
X0525Y30862D02*
X3254Y30862D01*
X4622Y30862D02*
X14575Y30862D01*
X0525Y30911D02*
X3205Y30911D01*
X4572Y30911D02*
X14575Y30911D01*
X0525Y30961D02*
X3155Y30961D01*
X4523Y30961D02*
X14575Y30961D01*
X0525Y31010D02*
X3106Y31010D01*
X4473Y31010D02*
X14575Y31010D01*
X0525Y31060D02*
X3056Y31060D01*
X4424Y31060D02*
X14575Y31060D01*
X0525Y31110D02*
X3007Y31110D01*
X4374Y31110D02*
X14575Y31110D01*
X0525Y31159D02*
X2957Y31159D01*
X4325Y31159D02*
X14575Y31159D01*
X0525Y31209D02*
X2907Y31209D01*
X4275Y31209D02*
X14575Y31209D01*
X0525Y31258D02*
X2858Y31258D01*
X4226Y31258D02*
X14575Y31258D01*
X0525Y31308D02*
X2808Y31308D01*
X4176Y31308D02*
X14575Y31308D01*
X0525Y31357D02*
X2759Y31357D01*
X4127Y31357D02*
X14575Y31357D01*
X0525Y31407D02*
X2709Y31407D01*
X4077Y31407D02*
X14575Y31407D01*
X0525Y31456D02*
X2660Y31456D01*
X4028Y31456D02*
X14575Y31456D01*
X0525Y31506D02*
X2610Y31506D01*
X3978Y31506D02*
X14575Y31506D01*
X0525Y31555D02*
X2561Y31555D01*
X3929Y31555D02*
X14575Y31555D01*
X0525Y31605D02*
X2511Y31605D01*
X3879Y31605D02*
X14575Y31605D01*
X0525Y31654D02*
X2462Y31654D01*
X3830Y31654D02*
X14575Y31654D01*
X0525Y31704D02*
X2412Y31704D01*
X3780Y31704D02*
X14575Y31704D01*
X0525Y31753D02*
X2363Y31753D01*
X3730Y31753D02*
X14575Y31753D01*
X0525Y31803D02*
X2313Y31803D01*
X3681Y31803D02*
X14575Y31803D01*
X0525Y31852D02*
X2264Y31852D01*
X3631Y31852D02*
X14575Y31852D01*
X0525Y31902D02*
X2214Y31902D01*
X3582Y31902D02*
X14575Y31902D01*
X0525Y31952D02*
X2165Y31952D01*
X3532Y31952D02*
X14575Y31952D01*
X0525Y32001D02*
X2115Y32001D01*
X3483Y32001D02*
X14575Y32001D01*
X0525Y32051D02*
X2065Y32051D01*
X3433Y32051D02*
X14575Y32051D01*
X0525Y32100D02*
X2016Y32100D01*
X3384Y32100D02*
X14575Y32100D01*
X0525Y32150D02*
X1966Y32150D01*
X3334Y32150D02*
X14575Y32150D01*
X0525Y32199D02*
X1917Y32199D01*
X3285Y32199D02*
X14575Y32199D01*
X0525Y32249D02*
X1867Y32249D01*
X3235Y32249D02*
X14575Y32249D01*
X0525Y32298D02*
X1818Y32298D01*
X3186Y32298D02*
X14575Y32298D01*
X0525Y32348D02*
X1768Y32348D01*
X3136Y32348D02*
X14575Y32348D01*
X0525Y32397D02*
X1719Y32397D01*
X3087Y32397D02*
X14575Y32397D01*
X0525Y32447D02*
X1676Y32447D01*
X3037Y32447D02*
X14575Y32447D01*
X0525Y32496D02*
X1640Y32496D01*
X2988Y32496D02*
X14575Y32496D01*
X0525Y32546D02*
X1613Y32546D01*
X2938Y32546D02*
X14575Y32546D01*
X0525Y32595D02*
X1594Y32595D01*
X2888Y32595D02*
X14575Y32595D01*
X0525Y32645D02*
X1579Y32645D01*
X2839Y32645D02*
X14575Y32645D01*
X0525Y32694D02*
X1572Y32694D01*
X2789Y32694D02*
X14575Y32694D01*
X0525Y32744D02*
X1567Y32744D01*
X2740Y32744D02*
X14575Y32744D01*
X0525Y32794D02*
X1566Y32794D01*
X2690Y32794D02*
X14575Y32794D01*
X0525Y32843D02*
X1566Y32843D01*
X2641Y32843D02*
X14575Y32843D01*
X0525Y32893D02*
X1566Y32893D01*
X2591Y32893D02*
X14575Y32893D01*
X0525Y32942D02*
X1566Y32942D01*
X2542Y32942D02*
X14575Y32942D01*
X0525Y32992D02*
X1566Y32992D01*
X2534Y32992D02*
X14575Y32992D01*
X0525Y33041D02*
X1566Y33041D01*
X2534Y33041D02*
X14575Y33041D01*
X0525Y33091D02*
X1566Y33091D01*
X2534Y33091D02*
X14575Y33091D01*
X0525Y33140D02*
X1566Y33140D01*
X2534Y33140D02*
X14575Y33140D01*
X0525Y33190D02*
X1566Y33190D01*
X2534Y33190D02*
X14575Y33190D01*
X0525Y33239D02*
X1566Y33239D01*
X2534Y33239D02*
X14575Y33239D01*
X0525Y33289D02*
X1566Y33289D01*
X2534Y33289D02*
X14575Y33289D01*
X0525Y33338D02*
X1566Y33338D01*
X2534Y33338D02*
X14575Y33338D01*
X0525Y33388D02*
X1566Y33388D01*
X2534Y33388D02*
X14575Y33388D01*
X0525Y33437D02*
X1566Y33437D01*
X2534Y33437D02*
X14575Y33437D01*
X0525Y33487D02*
X1566Y33487D01*
X2534Y33487D02*
X14575Y33487D01*
X0525Y33537D02*
X1566Y33537D01*
X2534Y33537D02*
X14575Y33537D01*
X0525Y33586D02*
X1566Y33586D01*
X2534Y33586D02*
X14575Y33586D01*
X0525Y33636D02*
X1566Y33636D01*
X2534Y33636D02*
X14575Y33636D01*
X0525Y33685D02*
X1566Y33685D01*
X2534Y33685D02*
X14575Y33685D01*
X0525Y33735D02*
X1566Y33735D01*
X2534Y33735D02*
X14575Y33735D01*
X0525Y33784D02*
X1566Y33784D01*
X2534Y33784D02*
X14575Y33784D01*
X0525Y33834D02*
X1566Y33834D01*
X2534Y33834D02*
X14575Y33834D01*
X0525Y33883D02*
X1566Y33883D01*
X2534Y33883D02*
X14575Y33883D01*
X0525Y33933D02*
X1566Y33933D01*
X2534Y33933D02*
X14575Y33933D01*
X0525Y33982D02*
X1566Y33982D01*
X2534Y33982D02*
X14575Y33982D01*
X0525Y34032D02*
X1566Y34032D01*
X2534Y34032D02*
X14575Y34032D01*
X0525Y34081D02*
X1566Y34081D01*
X2534Y34081D02*
X14575Y34081D01*
X0525Y34131D02*
X1566Y34131D01*
X2534Y34131D02*
X14575Y34131D01*
X0525Y34180D02*
X1566Y34180D01*
X2534Y34180D02*
X14575Y34180D01*
X0525Y34230D02*
X1566Y34230D01*
X2534Y34230D02*
X14575Y34230D01*
X0525Y34279D02*
X1566Y34279D01*
X2534Y34279D02*
X14575Y34279D01*
X0525Y34329D02*
X1566Y34329D01*
X2534Y34329D02*
X14575Y34329D01*
X0525Y34379D02*
X1566Y34379D01*
X2534Y34379D02*
X14575Y34379D01*
X0525Y34428D02*
X1566Y34428D01*
X2534Y34428D02*
X14575Y34428D01*
X0525Y34478D02*
X1566Y34478D01*
X2534Y34478D02*
X14575Y34478D01*
X0525Y34527D02*
X1566Y34527D01*
X2534Y34527D02*
X14575Y34527D01*
X0525Y34577D02*
X1566Y34577D01*
X2534Y34577D02*
X14575Y34577D01*
X0525Y34626D02*
X1566Y34626D01*
X2534Y34626D02*
X14575Y34626D01*
X0525Y34676D02*
X1566Y34676D01*
X2534Y34676D02*
X14575Y34676D01*
X0525Y34725D02*
X1566Y34725D01*
X2534Y34725D02*
X14575Y34725D01*
X0525Y34775D02*
X1566Y34775D01*
X2534Y34775D02*
X14575Y34775D01*
X0525Y34824D02*
X1566Y34824D01*
X2534Y34824D02*
X14575Y34824D01*
X0525Y34874D02*
X1566Y34874D01*
X2534Y34874D02*
X14575Y34874D01*
X0525Y34923D02*
X1566Y34923D01*
X2534Y34923D02*
X14575Y34923D01*
X0525Y34973D02*
X1566Y34973D01*
X2534Y34973D02*
X14575Y34973D01*
X0525Y35022D02*
X1566Y35022D01*
X2534Y35022D02*
X14575Y35022D01*
X0525Y35072D02*
X1566Y35072D01*
X2534Y35072D02*
X14575Y35072D01*
X0525Y35121D02*
X1566Y35121D01*
X2534Y35121D02*
X14575Y35121D01*
X0525Y35171D02*
X1566Y35171D01*
X2534Y35171D02*
X14575Y35171D01*
X0525Y35221D02*
X1566Y35221D01*
X2534Y35221D02*
X14575Y35221D01*
X0525Y35270D02*
X1566Y35270D01*
X2534Y35270D02*
X14575Y35270D01*
X0525Y35320D02*
X1566Y35320D01*
X2534Y35320D02*
X14575Y35320D01*
X0525Y35369D02*
X1566Y35369D01*
X2534Y35369D02*
X14575Y35369D01*
X0525Y35419D02*
X1566Y35419D01*
X2534Y35419D02*
X14575Y35419D01*
X0525Y35468D02*
X1566Y35468D01*
X2534Y35468D02*
X14575Y35468D01*
X0525Y35518D02*
X1566Y35518D01*
X2534Y35518D02*
X14575Y35518D01*
X0525Y35567D02*
X1566Y35567D01*
X2534Y35567D02*
X14575Y35567D01*
X0525Y35617D02*
X1566Y35617D01*
X2534Y35617D02*
X14575Y35617D01*
X0525Y35666D02*
X1566Y35666D01*
X2534Y35666D02*
X14575Y35666D01*
X0525Y35716D02*
X1566Y35716D01*
X2534Y35716D02*
X14575Y35716D01*
X0525Y35765D02*
X1566Y35765D01*
X2534Y35765D02*
X14575Y35765D01*
X0525Y35815D02*
X1566Y35815D01*
X2534Y35815D02*
X14575Y35815D01*
X0525Y35864D02*
X1566Y35864D01*
X2534Y35864D02*
X14575Y35864D01*
X0525Y35914D02*
X1566Y35914D01*
X2534Y35914D02*
X14575Y35914D01*
X0525Y35963D02*
X1566Y35963D01*
X2534Y35963D02*
X14575Y35963D01*
X0525Y36013D02*
X1566Y36013D01*
X2534Y36013D02*
X14575Y36013D01*
X0525Y36063D02*
X1566Y36063D01*
X2534Y36063D02*
X14575Y36063D01*
X0525Y36112D02*
X1566Y36112D01*
X2534Y36112D02*
X14575Y36112D01*
X0525Y36162D02*
X1566Y36162D01*
X2534Y36162D02*
X14575Y36162D01*
X0525Y36211D02*
X1566Y36211D01*
X2534Y36211D02*
X14575Y36211D01*
X0525Y36261D02*
X1566Y36261D01*
X2534Y36261D02*
X14575Y36261D01*
X0525Y36310D02*
X1566Y36310D01*
X2534Y36310D02*
X3762Y36310D01*
X3974Y36310D02*
X4126Y36310D01*
X4338Y36310D02*
X14575Y36310D01*
X0525Y36360D02*
X1566Y36360D01*
X2534Y36360D02*
X3603Y36360D01*
X3974Y36360D02*
X4126Y36360D01*
X4497Y36360D02*
X14575Y36360D01*
X0525Y36409D02*
X1566Y36409D01*
X2534Y36409D02*
X3509Y36409D01*
X3974Y36409D02*
X4126Y36409D01*
X4591Y36409D02*
X14575Y36409D01*
X0525Y36459D02*
X1566Y36459D01*
X2534Y36459D02*
X3415Y36459D01*
X3974Y36459D02*
X4126Y36459D01*
X4685Y36459D02*
X14575Y36459D01*
X0525Y36508D02*
X1566Y36508D01*
X2534Y36508D02*
X3350Y36508D01*
X3974Y36508D02*
X4126Y36508D01*
X4750Y36508D02*
X14575Y36508D01*
X0525Y36558D02*
X1566Y36558D01*
X2534Y36558D02*
X3294Y36558D01*
X4806Y36558D02*
X14575Y36558D01*
X0525Y36607D02*
X1566Y36607D01*
X2534Y36607D02*
X3239Y36607D01*
X4861Y36607D02*
X14575Y36607D01*
X0525Y36657D02*
X1566Y36657D01*
X2534Y36657D02*
X3184Y36657D01*
X4916Y36657D02*
X14575Y36657D01*
X0525Y36706D02*
X1566Y36706D01*
X2534Y36706D02*
X3150Y36706D01*
X4950Y36706D02*
X14575Y36706D01*
X0525Y36756D02*
X1566Y36756D01*
X2534Y36756D02*
X3115Y36756D01*
X4985Y36756D02*
X14575Y36756D01*
X0525Y36805D02*
X1566Y36805D01*
X2534Y36805D02*
X3081Y36805D01*
X5019Y36805D02*
X14575Y36805D01*
X0525Y36855D02*
X1566Y36855D01*
X2534Y36855D02*
X3047Y36855D01*
X5053Y36855D02*
X14575Y36855D01*
X0525Y36905D02*
X1566Y36905D01*
X2534Y36905D02*
X3019Y36905D01*
X5081Y36905D02*
X14575Y36905D01*
X0525Y36954D02*
X1566Y36954D01*
X2534Y36954D02*
X3001Y36954D01*
X5099Y36954D02*
X14575Y36954D01*
X0525Y37004D02*
X1566Y37004D01*
X2534Y37004D02*
X2982Y37004D01*
X5118Y37004D02*
X14575Y37004D01*
X0525Y37053D02*
X1566Y37053D01*
X2534Y37053D02*
X2963Y37053D01*
X5137Y37053D02*
X14575Y37053D01*
X0525Y37103D02*
X1566Y37103D01*
X2534Y37103D02*
X2944Y37103D01*
X5156Y37103D02*
X14575Y37103D01*
X0525Y37152D02*
X1566Y37152D01*
X2534Y37152D02*
X2928Y37152D01*
X5172Y37152D02*
X14575Y37152D01*
X0525Y37202D02*
X1566Y37202D01*
X2534Y37202D02*
X2922Y37202D01*
X5178Y37202D02*
X14575Y37202D01*
X0525Y37251D02*
X1566Y37251D01*
X2534Y37251D02*
X2916Y37251D01*
X5184Y37251D02*
X14575Y37251D01*
X0525Y37301D02*
X1566Y37301D01*
X2534Y37301D02*
X2910Y37301D01*
X5190Y37301D02*
X14575Y37301D01*
X0525Y37350D02*
X1566Y37350D01*
X2534Y37350D02*
X3150Y37350D01*
X4950Y37350D02*
X14575Y37350D01*
X0525Y37400D02*
X1566Y37400D01*
X2534Y37400D02*
X3150Y37400D01*
X4950Y37400D02*
X14575Y37400D01*
X0525Y37449D02*
X1566Y37449D01*
X2534Y37449D02*
X3150Y37449D01*
X4950Y37449D02*
X14575Y37449D01*
X0525Y37499D02*
X1566Y37499D01*
X2534Y37499D02*
X2919Y37499D01*
X5181Y37499D02*
X14575Y37499D01*
X0525Y37548D02*
X1566Y37548D01*
X2534Y37548D02*
X2911Y37548D01*
X5189Y37548D02*
X14575Y37548D01*
X0525Y37598D02*
X1566Y37598D01*
X2534Y37598D02*
X2917Y37598D01*
X5183Y37598D02*
X14575Y37598D01*
X0525Y37648D02*
X1566Y37648D01*
X2534Y37648D02*
X2923Y37648D01*
X5177Y37648D02*
X14575Y37648D01*
X0525Y37697D02*
X1566Y37697D01*
X2534Y37697D02*
X2929Y37697D01*
X5171Y37697D02*
X14575Y37697D01*
X0525Y37747D02*
X1566Y37747D01*
X2534Y37747D02*
X2948Y37747D01*
X5152Y37747D02*
X14575Y37747D01*
X0525Y37796D02*
X1566Y37796D01*
X2534Y37796D02*
X2967Y37796D01*
X5133Y37796D02*
X14575Y37796D01*
X0525Y37846D02*
X1566Y37846D01*
X2534Y37846D02*
X2985Y37846D01*
X5115Y37846D02*
X14575Y37846D01*
X0525Y37895D02*
X1566Y37895D01*
X2534Y37895D02*
X3004Y37895D01*
X5096Y37895D02*
X14575Y37895D01*
X0525Y37945D02*
X1566Y37945D01*
X2534Y37945D02*
X3023Y37945D01*
X5077Y37945D02*
X14575Y37945D01*
X0525Y37994D02*
X1566Y37994D01*
X2534Y37994D02*
X3053Y37994D01*
X5047Y37994D02*
X14575Y37994D01*
X0525Y38044D02*
X1566Y38044D01*
X2534Y38044D02*
X3088Y38044D01*
X5012Y38044D02*
X14575Y38044D01*
X0525Y38093D02*
X1566Y38093D01*
X2534Y38093D02*
X3122Y38093D01*
X4978Y38093D02*
X14575Y38093D01*
X0525Y38143D02*
X1566Y38143D01*
X2534Y38143D02*
X3156Y38143D01*
X4944Y38143D02*
X14575Y38143D01*
X0525Y38192D02*
X1566Y38192D01*
X2534Y38192D02*
X3193Y38192D01*
X4907Y38192D02*
X14575Y38192D01*
X0525Y38242D02*
X1566Y38242D01*
X2534Y38242D02*
X3249Y38242D01*
X4851Y38242D02*
X14575Y38242D01*
X0525Y38291D02*
X1566Y38291D01*
X2534Y38291D02*
X3305Y38291D01*
X4795Y38291D02*
X14575Y38291D01*
X0525Y38341D02*
X1566Y38341D01*
X2534Y38341D02*
X3361Y38341D01*
X3974Y38341D02*
X4126Y38341D01*
X4739Y38341D02*
X14575Y38341D01*
X0525Y38390D02*
X1566Y38390D01*
X2534Y38390D02*
X3432Y38390D01*
X3974Y38390D02*
X4126Y38390D01*
X4668Y38390D02*
X14575Y38390D01*
X0525Y38440D02*
X1566Y38440D01*
X2534Y38440D02*
X3527Y38440D01*
X3974Y38440D02*
X4126Y38440D01*
X4573Y38440D02*
X14575Y38440D01*
X0525Y38490D02*
X1566Y38490D01*
X2534Y38490D02*
X3621Y38490D01*
X3974Y38490D02*
X4126Y38490D01*
X4479Y38490D02*
X14575Y38490D01*
X0525Y38539D02*
X1566Y38539D01*
X2534Y38539D02*
X3800Y38539D01*
X3974Y38539D02*
X4126Y38539D01*
X4300Y38539D02*
X14575Y38539D01*
X0525Y38589D02*
X1566Y38589D01*
X2534Y38589D02*
X14575Y38589D01*
X0525Y38638D02*
X1566Y38638D01*
X2534Y38638D02*
X14575Y38638D01*
X0525Y38688D02*
X1566Y38688D01*
X2534Y38688D02*
X14575Y38688D01*
X0525Y38737D02*
X1566Y38737D01*
X2534Y38737D02*
X14575Y38737D01*
X0525Y38787D02*
X1566Y38787D01*
X2534Y38787D02*
X14575Y38787D01*
X0525Y38836D02*
X1566Y38836D01*
X2534Y38836D02*
X14575Y38836D01*
X0525Y38886D02*
X1566Y38886D01*
X2534Y38886D02*
X14575Y38886D01*
X0525Y38935D02*
X1566Y38935D01*
X2534Y38935D02*
X14575Y38935D01*
X0525Y38985D02*
X1566Y38985D01*
X2534Y38985D02*
X14575Y38985D01*
X0525Y39034D02*
X1566Y39034D01*
X2534Y39034D02*
X14575Y39034D01*
X0525Y39084D02*
X1566Y39084D01*
X2534Y39084D02*
X14575Y39084D01*
X0525Y39133D02*
X1566Y39133D01*
X2534Y39133D02*
X14575Y39133D01*
X0525Y39183D02*
X1566Y39183D01*
X2534Y39183D02*
X14575Y39183D01*
X0525Y39232D02*
X1566Y39232D01*
X2534Y39232D02*
X14575Y39232D01*
X0525Y39282D02*
X1566Y39282D01*
X2534Y39282D02*
X14575Y39282D01*
X0525Y39332D02*
X1566Y39332D01*
X2534Y39332D02*
X14575Y39332D01*
X0525Y39381D02*
X1566Y39381D01*
X2534Y39381D02*
X14575Y39381D01*
X0525Y39431D02*
X1566Y39431D01*
X2534Y39431D02*
X14575Y39431D01*
X0525Y39480D02*
X1566Y39480D01*
X2534Y39480D02*
X14575Y39480D01*
X0525Y39530D02*
X1566Y39530D01*
X2534Y39530D02*
X14575Y39530D01*
X0525Y39579D02*
X1566Y39579D01*
X2534Y39579D02*
X14575Y39579D01*
X0525Y39629D02*
X1566Y39629D01*
X2534Y39629D02*
X14575Y39629D01*
X0525Y39678D02*
X1566Y39678D01*
X2534Y39678D02*
X14575Y39678D01*
X0525Y39728D02*
X1566Y39728D01*
X2534Y39728D02*
X14575Y39728D01*
X0525Y39777D02*
X1566Y39777D01*
X2534Y39777D02*
X14575Y39777D01*
X0525Y39827D02*
X1566Y39827D01*
X2534Y39827D02*
X14575Y39827D01*
X0525Y39876D02*
X1566Y39876D01*
X2534Y39876D02*
X14575Y39876D01*
X0525Y39926D02*
X1566Y39926D01*
X2534Y39926D02*
X14575Y39926D01*
X0525Y39975D02*
X1566Y39975D01*
X2534Y39975D02*
X14575Y39975D01*
X0525Y40025D02*
X1566Y40025D01*
X2534Y40025D02*
X14575Y40025D01*
X0525Y40074D02*
X1566Y40074D01*
X2534Y40074D02*
X14575Y40074D01*
X0525Y40124D02*
X1566Y40124D01*
X2534Y40124D02*
X14575Y40124D01*
X0525Y40174D02*
X1566Y40174D01*
X2534Y40174D02*
X14575Y40174D01*
X0525Y40223D02*
X1566Y40223D01*
X2534Y40223D02*
X14575Y40223D01*
X0525Y40273D02*
X1566Y40273D01*
X2534Y40273D02*
X14575Y40273D01*
X0525Y40322D02*
X1566Y40322D01*
X2556Y40322D02*
X14575Y40322D01*
X0525Y40372D02*
X1566Y40372D01*
X2606Y40372D02*
X14575Y40372D01*
X0525Y40421D02*
X1566Y40421D01*
X2655Y40421D02*
X14575Y40421D01*
X0525Y40471D02*
X1566Y40471D01*
X2705Y40471D02*
X14575Y40471D01*
X0525Y40520D02*
X1568Y40520D01*
X2754Y40520D02*
X14575Y40520D01*
X0525Y40570D02*
X1573Y40570D01*
X2804Y40570D02*
X14575Y40570D01*
X0525Y40619D02*
X1583Y40619D01*
X2853Y40619D02*
X14575Y40619D01*
X0525Y40669D02*
X1598Y40669D01*
X2903Y40669D02*
X14575Y40669D01*
X0525Y40718D02*
X1621Y40718D01*
X2952Y40718D02*
X14575Y40718D01*
X0525Y40768D02*
X1647Y40768D01*
X3002Y40768D02*
X14575Y40768D01*
X0525Y40817D02*
X1688Y40817D01*
X3051Y40817D02*
X14575Y40817D01*
X0525Y40867D02*
X1733Y40867D01*
X3101Y40867D02*
X14575Y40867D01*
X0525Y40916D02*
X1783Y40916D01*
X3150Y40916D02*
X14575Y40916D01*
X0525Y40966D02*
X1832Y40966D01*
X3200Y40966D02*
X14575Y40966D01*
X0525Y41016D02*
X1882Y41016D01*
X3249Y41016D02*
X14575Y41016D01*
X0525Y41065D02*
X1931Y41065D01*
X3299Y41065D02*
X14575Y41065D01*
X0525Y41115D02*
X1981Y41115D01*
X3349Y41115D02*
X14575Y41115D01*
X0525Y41164D02*
X2030Y41164D01*
X3398Y41164D02*
X14575Y41164D01*
X0525Y41214D02*
X2080Y41214D01*
X3448Y41214D02*
X14575Y41214D01*
X0525Y41263D02*
X2129Y41263D01*
X3497Y41263D02*
X14575Y41263D01*
X0525Y41313D02*
X2179Y41313D01*
X3547Y41313D02*
X14575Y41313D01*
X0525Y41362D02*
X2228Y41362D01*
X3596Y41362D02*
X3876Y41362D01*
X4224Y41362D02*
X14575Y41362D01*
X0525Y41412D02*
X2278Y41412D01*
X3646Y41412D02*
X3675Y41412D01*
X4425Y41412D02*
X14575Y41412D01*
X0525Y41461D02*
X2327Y41461D01*
X4538Y41461D02*
X14575Y41461D01*
X0525Y41511D02*
X2377Y41511D01*
X4632Y41511D02*
X14575Y41511D01*
X0525Y41560D02*
X2426Y41560D01*
X4718Y41560D02*
X14575Y41560D01*
X0525Y41610D02*
X2476Y41610D01*
X4774Y41610D02*
X14575Y41610D01*
X0525Y41659D02*
X2526Y41659D01*
X4830Y41659D02*
X14575Y41659D01*
X0525Y41709D02*
X2575Y41709D01*
X4886Y41709D02*
X14575Y41709D01*
X0525Y41758D02*
X2625Y41758D01*
X4931Y41758D02*
X14575Y41758D01*
X0525Y41808D02*
X2674Y41808D01*
X4965Y41808D02*
X14575Y41808D01*
X0525Y41858D02*
X2724Y41858D01*
X4999Y41858D02*
X14575Y41858D01*
X0525Y41907D02*
X2773Y41907D01*
X5034Y41907D02*
X14575Y41907D01*
X0525Y41957D02*
X2823Y41957D01*
X5068Y41957D02*
X14575Y41957D01*
X0525Y42006D02*
X2872Y42006D01*
X5089Y42006D02*
X14575Y42006D01*
X0525Y42056D02*
X2922Y42056D01*
X5108Y42056D02*
X14575Y42056D01*
X0525Y42105D02*
X2971Y42105D01*
X5126Y42105D02*
X14575Y42105D01*
X0525Y42155D02*
X2955Y42155D01*
X5145Y42155D02*
X14575Y42155D01*
X0525Y42204D02*
X2936Y42204D01*
X5164Y42204D02*
X14575Y42204D01*
X0525Y42254D02*
X2925Y42254D01*
X5175Y42254D02*
X14575Y42254D01*
X0525Y42303D02*
X2919Y42303D01*
X5181Y42303D02*
X14575Y42303D01*
X0525Y42353D02*
X2913Y42353D01*
X5187Y42353D02*
X14575Y42353D01*
X0525Y42402D02*
X2907Y42402D01*
X5193Y42402D02*
X14575Y42402D01*
X0525Y42452D02*
X2901Y42452D01*
X5199Y42452D02*
X14575Y42452D01*
X0525Y42501D02*
X2895Y42501D01*
X5205Y42501D02*
X14575Y42501D01*
X0525Y42551D02*
X2901Y42551D01*
X5199Y42551D02*
X14575Y42551D01*
X0525Y42600D02*
X2907Y42600D01*
X5193Y42600D02*
X14575Y42600D01*
X0525Y42650D02*
X2913Y42650D01*
X5187Y42650D02*
X14575Y42650D01*
X0525Y42700D02*
X2919Y42700D01*
X5181Y42700D02*
X14575Y42700D01*
X0525Y42749D02*
X2925Y42749D01*
X5175Y42749D02*
X14575Y42749D01*
X0525Y42799D02*
X2937Y42799D01*
X5163Y42799D02*
X14575Y42799D01*
X0525Y42848D02*
X2956Y42848D01*
X5144Y42848D02*
X14575Y42848D01*
X0525Y42898D02*
X2975Y42898D01*
X5125Y42898D02*
X14575Y42898D01*
X0525Y42947D02*
X2994Y42947D01*
X5106Y42947D02*
X14575Y42947D01*
X0525Y42997D02*
X3012Y42997D01*
X5088Y42997D02*
X14575Y42997D01*
X0525Y43046D02*
X3034Y43046D01*
X5066Y43046D02*
X14575Y43046D01*
X0525Y43096D02*
X3068Y43096D01*
X5032Y43096D02*
X14575Y43096D01*
X0525Y43145D02*
X3102Y43145D01*
X4997Y43145D02*
X14575Y43145D01*
X0525Y43195D02*
X3137Y43195D01*
X4963Y43195D02*
X14575Y43195D01*
X0525Y43244D02*
X3171Y43244D01*
X4929Y43244D02*
X14575Y43244D01*
X0525Y43294D02*
X3217Y43294D01*
X4883Y43294D02*
X14575Y43294D01*
X0525Y43343D02*
X3273Y43343D01*
X4827Y43343D02*
X14575Y43343D01*
X0525Y43393D02*
X3329Y43393D01*
X4771Y43393D02*
X14575Y43393D01*
X0525Y43443D02*
X3385Y43443D01*
X4715Y43443D02*
X14575Y43443D01*
X0525Y43492D02*
X3473Y43492D01*
X4627Y43492D02*
X14575Y43492D01*
X0525Y43542D02*
X3568Y43542D01*
X4532Y43542D02*
X14575Y43542D01*
X0525Y43591D02*
X3687Y43591D01*
X4413Y43591D02*
X14575Y43591D01*
X0525Y43641D02*
X3888Y43641D01*
X4212Y43641D02*
X14575Y43641D01*
X0525Y43690D02*
X14575Y43690D01*
X0525Y43740D02*
X14575Y43740D01*
X0525Y43789D02*
X14575Y43789D01*
X0525Y43839D02*
X14575Y43839D01*
X0525Y43888D02*
X14575Y43888D01*
X0525Y43938D02*
X14575Y43938D01*
X0525Y43987D02*
X14575Y43987D01*
X0525Y44037D02*
X14575Y44037D01*
X0525Y44086D02*
X14575Y44086D01*
X0525Y44136D02*
X14575Y44136D01*
X0525Y44185D02*
X14575Y44185D01*
X0525Y44235D02*
X14575Y44235D01*
X0525Y44285D02*
X14575Y44285D01*
X0525Y44334D02*
X14575Y44334D01*
X0525Y44384D02*
X14575Y44384D01*
X0525Y44433D02*
X14575Y44433D01*
X0525Y44483D02*
X14575Y44483D01*
X0525Y44532D02*
X14575Y44532D01*
X0525Y44582D02*
X14575Y44582D01*
X0525Y44631D02*
X14575Y44631D01*
X0525Y44681D02*
X14575Y44681D01*
X0525Y44730D02*
X14575Y44730D01*
X0525Y44780D02*
X14575Y44780D01*
X0525Y44829D02*
X14575Y44829D01*
X0525Y44879D02*
X14575Y44879D01*
X0525Y44928D02*
X14575Y44928D01*
X0525Y44978D02*
X14575Y44978D01*
X0525Y45027D02*
X14575Y45027D01*
X0525Y45077D02*
X14575Y45077D01*
X0525Y45127D02*
X14575Y45127D01*
X0525Y45176D02*
X14575Y45176D01*
X0525Y45226D02*
X14575Y45226D01*
X0525Y45275D02*
X14575Y45275D01*
X0525Y45325D02*
X14575Y45325D01*
X0525Y45374D02*
X14575Y45374D01*
X0525Y45424D02*
X14575Y45424D01*
X0525Y45473D02*
X14575Y45473D01*
X0525Y45523D02*
X14575Y45523D01*
X0525Y45572D02*
X14575Y45572D01*
X0525Y45622D02*
X14575Y45622D01*
X0525Y45671D02*
X14575Y45671D01*
X0525Y45721D02*
X14575Y45721D01*
X0525Y45770D02*
X14575Y45770D01*
X0525Y45820D02*
X14575Y45820D01*
X0525Y45869D02*
X14575Y45869D01*
X0525Y45919D02*
X14575Y45919D01*
X0525Y45969D02*
X14575Y45969D01*
X0525Y46018D02*
X14575Y46018D01*
X0525Y46068D02*
X14575Y46068D01*
X0525Y46117D02*
X14575Y46117D01*
X0525Y46167D02*
X14575Y46167D01*
X0525Y46216D02*
X14575Y46216D01*
X0525Y46266D02*
X14575Y46266D01*
X0525Y46315D02*
X14575Y46315D01*
X0525Y46365D02*
X3034Y46365D01*
X5066Y46365D02*
X14575Y46365D01*
X0525Y46414D02*
X2961Y46414D01*
X5139Y46414D02*
X14575Y46414D01*
X0525Y46464D02*
X2925Y46464D01*
X5175Y46464D02*
X14575Y46464D01*
X0525Y46513D02*
X2904Y46513D01*
X5196Y46513D02*
X14575Y46513D01*
X0525Y46563D02*
X2896Y46563D01*
X5204Y46563D02*
X14575Y46563D01*
X0525Y46612D02*
X2895Y46612D01*
X5205Y46612D02*
X14575Y46612D01*
X0525Y46662D02*
X2895Y46662D01*
X5205Y46662D02*
X14575Y46662D01*
X0525Y46711D02*
X2895Y46711D01*
X5205Y46711D02*
X14575Y46711D01*
X0525Y46761D02*
X2895Y46761D01*
X5205Y46761D02*
X14575Y46761D01*
X0525Y46811D02*
X2895Y46811D01*
X5205Y46811D02*
X14575Y46811D01*
X0525Y46860D02*
X2895Y46860D01*
X5205Y46860D02*
X14575Y46860D01*
X0525Y46910D02*
X2895Y46910D01*
X5205Y46910D02*
X14575Y46910D01*
X0525Y46959D02*
X2895Y46959D01*
X5205Y46959D02*
X14575Y46959D01*
X0525Y47009D02*
X2895Y47009D01*
X5205Y47009D02*
X14575Y47009D01*
X0525Y47058D02*
X2895Y47058D01*
X5205Y47058D02*
X14575Y47058D01*
X0525Y47108D02*
X2895Y47108D01*
X5205Y47108D02*
X14575Y47108D01*
X0525Y47157D02*
X2895Y47157D01*
X5205Y47157D02*
X14575Y47157D01*
X0525Y47207D02*
X2895Y47207D01*
X5205Y47207D02*
X14575Y47207D01*
X0525Y47256D02*
X2895Y47256D01*
X5205Y47256D02*
X14575Y47256D01*
X0525Y47306D02*
X2895Y47306D01*
X5205Y47306D02*
X14575Y47306D01*
X0525Y47355D02*
X2895Y47355D01*
X5205Y47355D02*
X14575Y47355D01*
X0525Y47405D02*
X2895Y47405D01*
X5205Y47405D02*
X14575Y47405D01*
X0525Y47454D02*
X2895Y47454D01*
X5205Y47454D02*
X14575Y47454D01*
X0525Y47504D02*
X2895Y47504D01*
X5205Y47504D02*
X14575Y47504D01*
X0525Y47553D02*
X2895Y47553D01*
X5205Y47553D02*
X14575Y47553D01*
X0525Y47603D02*
X2895Y47603D01*
X5205Y47603D02*
X14575Y47603D01*
X0525Y47653D02*
X2895Y47653D01*
X5205Y47653D02*
X14575Y47653D01*
X0525Y47702D02*
X2895Y47702D01*
X5205Y47702D02*
X14575Y47702D01*
X0525Y47752D02*
X2895Y47752D01*
X5205Y47752D02*
X14575Y47752D01*
X0525Y47801D02*
X2895Y47801D01*
X5205Y47801D02*
X14575Y47801D01*
X0525Y47851D02*
X2895Y47851D01*
X5205Y47851D02*
X14575Y47851D01*
X0525Y47900D02*
X2895Y47900D01*
X5205Y47900D02*
X14575Y47900D01*
X0525Y47950D02*
X2895Y47950D01*
X5205Y47950D02*
X14575Y47950D01*
X0525Y47999D02*
X2895Y47999D01*
X5205Y47999D02*
X14575Y47999D01*
X0525Y48049D02*
X2895Y48049D01*
X5205Y48049D02*
X14575Y48049D01*
X0525Y48098D02*
X2895Y48098D01*
X5205Y48098D02*
X14575Y48098D01*
X0525Y48148D02*
X2895Y48148D01*
X5205Y48148D02*
X14575Y48148D01*
X0525Y48197D02*
X2895Y48197D01*
X5205Y48197D02*
X14575Y48197D01*
X0525Y48247D02*
X2895Y48247D01*
X5205Y48247D02*
X14575Y48247D01*
X0525Y48296D02*
X2895Y48296D01*
X5205Y48296D02*
X14575Y48296D01*
X0525Y48346D02*
X2895Y48346D01*
X5205Y48346D02*
X14575Y48346D01*
X0525Y48396D02*
X2895Y48396D01*
X5205Y48396D02*
X14575Y48396D01*
X0525Y48445D02*
X2897Y48445D01*
X5203Y48445D02*
X14575Y48445D01*
X0525Y48495D02*
X2906Y48495D01*
X5194Y48495D02*
X14575Y48495D01*
X0525Y48544D02*
X2929Y48544D01*
X5171Y48544D02*
X14575Y48544D01*
X0525Y48594D02*
X2970Y48594D01*
X5130Y48594D02*
X14575Y48594D01*
X0525Y48643D02*
X3053Y48643D01*
X5047Y48643D02*
X14575Y48643D01*
X0525Y48693D02*
X14575Y48693D01*
X0525Y48742D02*
X14575Y48742D01*
X0525Y48792D02*
X14575Y48792D01*
X0525Y48841D02*
X14575Y48841D01*
X0525Y48891D02*
X14575Y48891D01*
X0525Y48940D02*
X14575Y48940D01*
X0525Y48990D02*
X14575Y48990D01*
X0525Y49039D02*
X14575Y49039D01*
X0525Y49089D02*
X14575Y49089D01*
X0525Y49138D02*
X14575Y49138D01*
X0525Y49188D02*
X14575Y49188D01*
X0525Y49238D02*
X14575Y49238D01*
X0525Y49287D02*
X14575Y49287D01*
X0525Y49337D02*
X14575Y49337D01*
X0525Y49386D02*
X14575Y49386D01*
X0525Y49436D02*
X14575Y49436D01*
X0525Y49485D02*
X14575Y49485D01*
X0525Y49535D02*
X14575Y49535D01*
X0525Y49584D02*
X14575Y49584D01*
X0525Y49634D02*
X14575Y49634D01*
X0525Y49683D02*
X14575Y49683D01*
X0525Y49733D02*
X14575Y49733D01*
X0525Y49782D02*
X14575Y49782D01*
X0525Y49832D02*
X14575Y49832D01*
X0525Y49881D02*
X14575Y49881D01*
X0525Y49931D02*
X14575Y49931D01*
X0525Y49980D02*
X14575Y49980D01*
X0525Y50030D02*
X14575Y50030D01*
X0525Y50080D02*
X14575Y50080D01*
X0525Y50129D02*
X14575Y50129D01*
X0525Y50179D02*
X14575Y50179D01*
X0525Y50228D02*
X14575Y50228D01*
X0525Y50278D02*
X14575Y50278D01*
X0525Y50327D02*
X14575Y50327D01*
X0525Y50377D02*
X14575Y50377D01*
X0525Y50426D02*
X14575Y50426D01*
X0525Y50476D02*
X14575Y50476D01*
X0525Y50525D02*
X14575Y50525D01*
X0525Y50575D02*
X14575Y50575D01*
X0525Y50624D02*
X14575Y50624D01*
X0525Y50674D02*
X14575Y50674D01*
X0525Y50723D02*
X14575Y50723D01*
X0525Y50773D02*
X14575Y50773D01*
X0525Y50822D02*
X14575Y50822D01*
X0525Y50872D02*
X14575Y50872D01*
X0525Y50922D02*
X14575Y50922D01*
X0525Y50971D02*
X14575Y50971D01*
X0525Y51021D02*
X14575Y51021D01*
X0525Y51070D02*
X14575Y51070D01*
X0525Y51120D02*
X14575Y51120D01*
X0525Y51169D02*
X14575Y51169D01*
X0525Y51219D02*
X14575Y51219D01*
X0525Y51268D02*
X14575Y51268D01*
X0525Y51318D02*
X14575Y51318D01*
X0525Y51367D02*
X14575Y51367D01*
X0525Y51417D02*
X14575Y51417D01*
X0525Y51466D02*
X14575Y51466D01*
X0525Y51516D02*
X14575Y51516D01*
X0525Y51565D02*
X14575Y51565D01*
X0525Y51615D02*
X14575Y51615D01*
X0525Y51664D02*
X14575Y51664D01*
X0525Y51714D02*
X14575Y51714D01*
X0525Y51764D02*
X14575Y51764D01*
X0525Y51813D02*
X14575Y51813D01*
X0525Y51863D02*
X14575Y51863D01*
X0525Y51912D02*
X14575Y51912D01*
X0525Y51962D02*
X14575Y51962D01*
X0525Y52011D02*
X14575Y52011D01*
X0525Y52061D02*
X14575Y52061D01*
X0525Y52110D02*
X14575Y52110D01*
X0525Y52160D02*
X14575Y52160D01*
X0525Y52209D02*
X14575Y52209D01*
X0525Y52259D02*
X14575Y52259D01*
X0525Y52308D02*
X14575Y52308D01*
X0525Y52358D02*
X14575Y52358D01*
X0525Y52407D02*
X14575Y52407D01*
X0525Y52457D02*
X14575Y52457D01*
X0525Y52507D02*
X14575Y52507D01*
X0525Y52556D02*
X14575Y52556D01*
X0525Y52606D02*
X14575Y52606D01*
X0525Y52655D02*
X14575Y52655D01*
X0525Y52705D02*
X14575Y52705D01*
X0525Y52754D02*
X14575Y52754D01*
X0525Y52804D02*
X14575Y52804D01*
X0525Y52853D02*
X14575Y52853D01*
X0525Y52903D02*
X14575Y52903D01*
X0525Y52952D02*
X14575Y52952D01*
X0525Y53002D02*
X14575Y53002D01*
X0525Y53051D02*
X14575Y53051D01*
X0525Y53101D02*
X14575Y53101D01*
X0525Y53150D02*
X14575Y53150D01*
X0525Y53200D02*
X14575Y53200D01*
X0525Y53249D02*
X14575Y53249D01*
X0525Y53299D02*
X14575Y53299D01*
X0525Y53349D02*
X14575Y53349D01*
X0525Y53398D02*
X14575Y53398D01*
X0525Y53448D02*
X14575Y53448D01*
X0525Y53497D02*
X14575Y53497D01*
X0525Y53547D02*
X14575Y53547D01*
X0525Y53596D02*
X14575Y53596D01*
X0525Y53646D02*
X14575Y53646D01*
X0525Y53695D02*
X14575Y53695D01*
X0525Y53745D02*
X14575Y53745D01*
X0525Y53794D02*
X14575Y53794D01*
X0525Y53844D02*
X14575Y53844D01*
X0525Y53893D02*
X14575Y53893D01*
X0525Y53943D02*
X14575Y53943D01*
X0525Y53992D02*
X14575Y53992D01*
X0525Y54042D02*
X14575Y54042D01*
X0525Y54091D02*
X14575Y54091D01*
X0525Y54141D02*
X14575Y54141D01*
X0525Y54191D02*
X14575Y54191D01*
X0525Y54240D02*
X14575Y54240D01*
X0525Y54290D02*
X14575Y54290D01*
X0525Y54339D02*
X14575Y54339D01*
X0525Y54389D02*
X14575Y54389D01*
X0525Y54438D02*
X14575Y54438D01*
X0525Y54488D02*
X14575Y54488D01*
X0525Y54537D02*
X14575Y54537D01*
X0525Y54587D02*
X14575Y54587D01*
X0525Y54636D02*
X14575Y54636D01*
X0525Y54686D02*
X14575Y54686D01*
X0525Y54735D02*
X14575Y54735D01*
X0525Y54785D02*
X14575Y54785D01*
X0525Y54834D02*
X14575Y54834D01*
X0525Y54884D02*
X14575Y54884D01*
X0525Y54933D02*
X14575Y54933D01*
X0525Y54983D02*
X14575Y54983D01*
X0525Y55033D02*
X14575Y55033D01*
X0525Y55082D02*
X14575Y55082D01*
X0525Y55132D02*
X14575Y55132D01*
X0525Y55181D02*
X14575Y55181D01*
X0525Y55231D02*
X14575Y55231D01*
X0525Y55280D02*
X14575Y55280D01*
X0525Y55330D02*
X14575Y55330D01*
X0525Y55379D02*
X14575Y55379D01*
X0525Y55429D02*
X14575Y55429D01*
X0525Y55478D02*
X14575Y55478D01*
X0525Y55528D02*
X14575Y55528D01*
X0525Y55577D02*
X14575Y55577D01*
X0525Y55627D02*
X14575Y55627D01*
X0525Y55676D02*
X14575Y55676D01*
X0525Y55726D02*
X14575Y55726D01*
X0525Y55775D02*
X14575Y55775D01*
X0525Y55825D02*
X14575Y55825D01*
X0525Y55875D02*
X14575Y55875D01*
X0525Y55924D02*
X14575Y55924D01*
X0525Y55974D02*
X14575Y55974D01*
X0525Y56023D02*
X14575Y56023D01*
X0525Y56073D02*
X14575Y56073D01*
X0525Y56122D02*
X14575Y56122D01*
X0525Y56172D02*
X14575Y56172D01*
X0525Y56221D02*
X14575Y56221D01*
X0525Y56271D02*
X14575Y56271D01*
X0525Y56320D02*
X14575Y56320D01*
X0525Y56370D02*
X14575Y56370D01*
X0525Y56419D02*
X14575Y56419D01*
X0525Y56469D02*
X14575Y56469D01*
X0525Y56518D02*
X14575Y56518D01*
X0525Y56568D02*
X14575Y56568D01*
X0525Y56617D02*
X14575Y56617D01*
X0525Y56667D02*
X14575Y56667D01*
X0525Y56717D02*
X14575Y56717D01*
X0525Y56766D02*
X14575Y56766D01*
X0525Y56816D02*
X14575Y56816D01*
X0525Y56865D02*
X14575Y56865D01*
X0525Y56915D02*
X14575Y56915D01*
X0525Y56964D02*
X14575Y56964D01*
X0525Y57014D02*
X14575Y57014D01*
X0525Y57063D02*
X14575Y57063D01*
X0525Y57113D02*
X14575Y57113D01*
X0525Y57162D02*
X14575Y57162D01*
X0525Y57212D02*
X14575Y57212D01*
X0525Y57261D02*
X14575Y57261D01*
X0525Y57311D02*
X14575Y57311D01*
X0525Y57360D02*
X14575Y57360D01*
X0525Y57410D02*
X14575Y57410D01*
X0525Y57459D02*
X14575Y57459D01*
X0525Y57509D02*
X14575Y57509D01*
X0525Y57559D02*
X14575Y57559D01*
X0525Y57608D02*
X14575Y57608D01*
X0525Y57658D02*
X14575Y57658D01*
X0525Y57707D02*
X14575Y57707D01*
X0525Y57757D02*
X14575Y57757D01*
X0525Y57806D02*
X14575Y57806D01*
X0525Y57856D02*
X14575Y57856D01*
X0525Y57905D02*
X14575Y57905D01*
X0525Y57955D02*
X14575Y57955D01*
X0525Y58004D02*
X14575Y58004D01*
X0525Y58054D02*
X14575Y58054D01*
X0525Y58103D02*
X14575Y58103D01*
X0525Y58153D02*
X14575Y58153D01*
X0525Y58202D02*
X14575Y58202D01*
X0525Y58252D02*
X14575Y58252D01*
X0525Y58302D02*
X14575Y58302D01*
X0525Y58351D02*
X14575Y58351D01*
X0525Y58401D02*
X14575Y58401D01*
X0525Y58450D02*
X14575Y58450D01*
X0525Y58500D02*
X14575Y58500D01*
X0525Y58549D02*
X14575Y58549D01*
X0525Y58599D02*
X14575Y58599D01*
X0525Y58648D02*
X14575Y58648D01*
X0525Y58698D02*
X14575Y58698D01*
X0525Y58747D02*
X14575Y58747D01*
X0525Y58797D02*
X3817Y58797D01*
X3974Y58797D02*
X4126Y58797D01*
X4283Y58797D02*
X14575Y58797D01*
X0525Y58846D02*
X3629Y58846D01*
X3974Y58846D02*
X4126Y58846D01*
X4471Y58846D02*
X14575Y58846D01*
X0525Y58896D02*
X3535Y58896D01*
X3974Y58896D02*
X4126Y58896D01*
X4565Y58896D02*
X14575Y58896D01*
X0525Y58945D02*
X3440Y58945D01*
X3974Y58945D02*
X4126Y58945D01*
X4660Y58945D02*
X14575Y58945D01*
X0525Y58995D02*
X3365Y58995D01*
X3974Y58995D02*
X4126Y58995D01*
X4735Y58995D02*
X14575Y58995D01*
X0525Y59044D02*
X3310Y59044D01*
X4790Y59044D02*
X14575Y59044D01*
X0525Y59094D02*
X3254Y59094D01*
X4846Y59094D02*
X14575Y59094D01*
X0525Y59144D02*
X3198Y59144D01*
X4902Y59144D02*
X14575Y59144D01*
X0525Y59193D02*
X3159Y59193D01*
X4941Y59193D02*
X14575Y59193D01*
X0525Y59243D02*
X3125Y59243D01*
X4975Y59243D02*
X14575Y59243D01*
X0525Y59292D02*
X3090Y59292D01*
X5010Y59292D02*
X14575Y59292D01*
X0525Y59342D02*
X3056Y59342D01*
X5044Y59342D02*
X14575Y59342D01*
X0525Y59391D02*
X3025Y59391D01*
X5075Y59391D02*
X14575Y59391D01*
X0525Y59441D02*
X3006Y59441D01*
X5094Y59441D02*
X14575Y59441D01*
X0525Y59490D02*
X2987Y59490D01*
X5113Y59490D02*
X14575Y59490D01*
X0525Y59540D02*
X2968Y59540D01*
X5132Y59540D02*
X14575Y59540D01*
X0525Y59589D02*
X2949Y59589D01*
X5151Y59589D02*
X14575Y59589D01*
X0525Y59639D02*
X2931Y59639D01*
X5169Y59639D02*
X14575Y59639D01*
X0525Y59688D02*
X2923Y59688D01*
X5177Y59688D02*
X14575Y59688D01*
X0525Y59738D02*
X2917Y59738D01*
X5183Y59738D02*
X14575Y59738D01*
X0525Y59787D02*
X2911Y59787D01*
X5189Y59787D02*
X14575Y59787D01*
X0525Y59837D02*
X2916Y59837D01*
X5184Y59837D02*
X14575Y59837D01*
X0525Y59886D02*
X3150Y59886D01*
X4950Y59886D02*
X14575Y59886D01*
X0525Y59936D02*
X3150Y59936D01*
X4950Y59936D02*
X14575Y59936D01*
X0525Y59986D02*
X3150Y59986D01*
X4950Y59986D02*
X14575Y59986D01*
X0525Y60035D02*
X2909Y60035D01*
X5191Y60035D02*
X14575Y60035D01*
X0525Y60085D02*
X2915Y60085D01*
X5185Y60085D02*
X14575Y60085D01*
X0525Y60134D02*
X2921Y60134D01*
X5179Y60134D02*
X14575Y60134D01*
X0525Y60184D02*
X2927Y60184D01*
X5173Y60184D02*
X14575Y60184D01*
X0525Y60233D02*
X2943Y60233D01*
X5157Y60233D02*
X14575Y60233D01*
X0525Y60283D02*
X2962Y60283D01*
X5138Y60283D02*
X14575Y60283D01*
X0525Y60332D02*
X2980Y60332D01*
X5120Y60332D02*
X14575Y60332D01*
X0525Y60382D02*
X2999Y60382D01*
X5101Y60382D02*
X14575Y60382D01*
X0525Y60431D02*
X3018Y60431D01*
X5082Y60431D02*
X14575Y60431D01*
X0525Y60481D02*
X3044Y60481D01*
X5056Y60481D02*
X14575Y60481D01*
X0525Y60530D02*
X3078Y60530D01*
X5022Y60530D02*
X14575Y60530D01*
X0525Y60580D02*
X3113Y60580D01*
X4987Y60580D02*
X14575Y60580D01*
X0525Y60629D02*
X3147Y60629D01*
X4953Y60629D02*
X14575Y60629D01*
X0525Y60679D02*
X3181Y60679D01*
X4919Y60679D02*
X14575Y60679D01*
X0525Y60728D02*
X3234Y60728D01*
X4866Y60728D02*
X14575Y60728D01*
X0525Y60778D02*
X3290Y60778D01*
X4810Y60778D02*
X14575Y60778D01*
X0525Y60828D02*
X3346Y60828D01*
X3974Y60828D02*
X4126Y60828D01*
X4754Y60828D02*
X14575Y60828D01*
X0525Y60877D02*
X3407Y60877D01*
X3974Y60877D02*
X4126Y60877D01*
X4693Y60877D02*
X14575Y60877D01*
X0525Y60927D02*
X3501Y60927D01*
X3974Y60927D02*
X4126Y60927D01*
X4599Y60927D02*
X14575Y60927D01*
X0525Y60976D02*
X3596Y60976D01*
X3974Y60976D02*
X4126Y60976D01*
X4504Y60976D02*
X14575Y60976D01*
X0525Y61026D02*
X3746Y61026D01*
X3974Y61026D02*
X4126Y61026D01*
X4354Y61026D02*
X14575Y61026D01*
X0525Y61075D02*
X14575Y61075D01*
X0525Y61125D02*
X14575Y61125D01*
X0525Y61174D02*
X14575Y61174D01*
X0525Y61224D02*
X14575Y61224D01*
X0525Y61273D02*
X14575Y61273D01*
X0525Y61323D02*
X14575Y61323D01*
X0525Y61372D02*
X14575Y61372D01*
X0525Y61422D02*
X14575Y61422D01*
X0525Y61471D02*
X14575Y61471D01*
X0525Y61521D02*
X14575Y61521D01*
X0525Y61570D02*
X14575Y61570D01*
X0525Y61620D02*
X14575Y61620D01*
X0525Y61670D02*
X14575Y61670D01*
X0525Y61719D02*
X14575Y61719D01*
X0525Y61769D02*
X14575Y61769D01*
X0525Y61818D02*
X14575Y61818D01*
X0525Y61868D02*
X14575Y61868D01*
X0525Y61917D02*
X14575Y61917D01*
X0525Y61967D02*
X14575Y61967D01*
X0525Y62016D02*
X14575Y62016D01*
X0525Y62066D02*
X14575Y62066D01*
X0525Y62115D02*
X14575Y62115D01*
X0525Y62165D02*
X14575Y62165D01*
X0525Y62214D02*
X14575Y62214D01*
X0525Y62264D02*
X14575Y62264D01*
X0525Y62313D02*
X14575Y62313D01*
X0525Y62363D02*
X14575Y62363D01*
X0525Y62413D02*
X14575Y62413D01*
X0525Y62462D02*
X14575Y62462D01*
X0525Y62512D02*
X14575Y62512D01*
X0525Y62561D02*
X14575Y62561D01*
X0525Y62611D02*
X14575Y62611D01*
X0525Y62660D02*
X14575Y62660D01*
X0525Y62710D02*
X14575Y62710D01*
X0525Y62759D02*
X14575Y62759D01*
X0525Y62809D02*
X14575Y62809D01*
X0525Y62858D02*
X14575Y62858D01*
X0525Y62908D02*
X14575Y62908D01*
X0525Y62957D02*
X14575Y62957D01*
X0525Y63007D02*
X14575Y63007D01*
X0525Y63056D02*
X14575Y63056D01*
X0525Y63106D02*
X14575Y63106D01*
X0525Y63155D02*
X14575Y63155D01*
X0525Y63205D02*
X14575Y63205D01*
X0525Y63255D02*
X14575Y63255D01*
X0525Y63304D02*
X14575Y63304D01*
X0525Y63354D02*
X14575Y63354D01*
X0525Y63403D02*
X14575Y63403D01*
X0525Y63453D02*
X14575Y63453D01*
X0525Y63502D02*
X14575Y63502D01*
X0525Y63552D02*
X14575Y63552D01*
X0525Y63601D02*
X14575Y63601D01*
X0525Y63651D02*
X14575Y63651D01*
X0525Y63700D02*
X14575Y63700D01*
X0525Y63750D02*
X14575Y63750D01*
X0525Y63799D02*
X14575Y63799D01*
X0525Y63849D02*
X14575Y63849D01*
X0525Y63898D02*
X3729Y63898D01*
X4371Y63898D02*
X14575Y63898D01*
X0525Y63948D02*
X3588Y63948D01*
X4512Y63948D02*
X14575Y63948D01*
X0525Y63997D02*
X3493Y63997D01*
X4607Y63997D02*
X14575Y63997D01*
X0525Y64047D02*
X3399Y64047D01*
X4701Y64047D02*
X14575Y64047D01*
X0525Y64097D02*
X3341Y64097D01*
X4759Y64097D02*
X14575Y64097D01*
X0525Y64146D02*
X3285Y64146D01*
X4815Y64146D02*
X14575Y64146D01*
X0525Y64196D02*
X3229Y64196D01*
X4871Y64196D02*
X14575Y64196D01*
X0525Y64245D02*
X3178Y64245D01*
X4922Y64245D02*
X14575Y64245D01*
X0525Y64295D02*
X3144Y64295D01*
X4956Y64295D02*
X14575Y64295D01*
X0525Y64344D02*
X3110Y64344D01*
X4990Y64344D02*
X14575Y64344D01*
X0525Y64394D02*
X3076Y64394D01*
X5024Y64394D02*
X14575Y64394D01*
X0525Y64443D02*
X3041Y64443D01*
X5059Y64443D02*
X14575Y64443D01*
X0525Y64493D02*
X3016Y64493D01*
X5084Y64493D02*
X14575Y64493D01*
X0525Y64542D02*
X2998Y64542D01*
X5102Y64542D02*
X14575Y64542D01*
X0525Y64592D02*
X2979Y64592D01*
X5121Y64592D02*
X14575Y64592D01*
X0525Y64641D02*
X2960Y64641D01*
X5140Y64641D02*
X14575Y64641D01*
X0525Y64691D02*
X2941Y64691D01*
X5159Y64691D02*
X14575Y64691D01*
X0525Y64740D02*
X2927Y64740D01*
X5173Y64740D02*
X14575Y64740D01*
X0525Y64790D02*
X2921Y64790D01*
X5179Y64790D02*
X14575Y64790D01*
X0525Y64839D02*
X2915Y64839D01*
X5185Y64839D02*
X14575Y64839D01*
X0525Y64889D02*
X2909Y64889D01*
X5191Y64889D02*
X14575Y64889D01*
X0525Y64939D02*
X2903Y64939D01*
X5197Y64939D02*
X14575Y64939D01*
X0525Y64988D02*
X2897Y64988D01*
X5203Y64988D02*
X14575Y64988D01*
X0525Y65038D02*
X2900Y65038D01*
X5200Y65038D02*
X14575Y65038D01*
X0525Y65087D02*
X2906Y65087D01*
X5194Y65087D02*
X14575Y65087D01*
X0525Y65137D02*
X2912Y65137D01*
X5188Y65137D02*
X14575Y65137D01*
X0525Y65186D02*
X2918Y65186D01*
X5182Y65186D02*
X14575Y65186D01*
X0525Y65236D02*
X2924Y65236D01*
X5176Y65236D02*
X14575Y65236D01*
X0525Y65285D02*
X2932Y65285D01*
X5168Y65285D02*
X14575Y65285D01*
X0525Y65335D02*
X2951Y65335D01*
X5149Y65335D02*
X14575Y65335D01*
X0525Y65384D02*
X2970Y65384D01*
X5130Y65384D02*
X14575Y65384D01*
X0525Y65434D02*
X2988Y65434D01*
X5112Y65434D02*
X14575Y65434D01*
X0525Y65483D02*
X3007Y65483D01*
X5093Y65483D02*
X14575Y65483D01*
X0525Y65533D02*
X3026Y65533D01*
X5074Y65533D02*
X14575Y65533D01*
X0525Y65582D02*
X3059Y65582D01*
X5041Y65582D02*
X14575Y65582D01*
X0525Y65632D02*
X3093Y65632D01*
X5007Y65632D02*
X14575Y65632D01*
X0525Y65681D02*
X3127Y65681D01*
X4973Y65681D02*
X14575Y65681D01*
X0525Y65731D02*
X3162Y65731D01*
X4938Y65731D02*
X14575Y65731D01*
X0525Y65781D02*
X3202Y65781D01*
X4898Y65781D02*
X14575Y65781D01*
X0525Y65830D02*
X3258Y65830D01*
X4842Y65830D02*
X14575Y65830D01*
X0525Y65880D02*
X3314Y65880D01*
X4786Y65880D02*
X14575Y65880D01*
X0525Y65929D02*
X3370Y65929D01*
X4730Y65929D02*
X14575Y65929D01*
X0525Y65979D02*
X3448Y65979D01*
X4652Y65979D02*
X14575Y65979D01*
X0525Y66028D02*
X3542Y66028D01*
X4558Y66028D02*
X14575Y66028D01*
X0525Y66078D02*
X3637Y66078D01*
X4463Y66078D02*
X14575Y66078D01*
X0525Y66127D02*
X3833Y66127D01*
X4267Y66127D02*
X14575Y66127D01*
X0525Y66177D02*
X14575Y66177D01*
X0525Y66226D02*
X14575Y66226D01*
X0525Y66276D02*
X14575Y66276D01*
X0525Y66325D02*
X14575Y66325D01*
X0525Y66375D02*
X14575Y66375D01*
X0525Y66424D02*
X14575Y66424D01*
X0525Y66474D02*
X14575Y66474D01*
X0525Y66523D02*
X14575Y66523D01*
X0525Y66573D02*
X14575Y66573D01*
X0525Y66623D02*
X14575Y66623D01*
X0525Y66672D02*
X14575Y66672D01*
X0525Y66722D02*
X14575Y66722D01*
X0525Y66771D02*
X14575Y66771D01*
X0525Y66821D02*
X14575Y66821D01*
X0525Y66870D02*
X14575Y66870D01*
X0525Y66920D02*
X14575Y66920D01*
X0525Y66969D02*
X14575Y66969D01*
X0525Y67019D02*
X14575Y67019D01*
X0525Y67068D02*
X14575Y67068D01*
X0525Y67118D02*
X14575Y67118D01*
X0525Y67167D02*
X14575Y67167D01*
X0525Y67217D02*
X14575Y67217D01*
X0525Y67266D02*
X14575Y67266D01*
X0525Y67316D02*
X14575Y67316D01*
X0525Y67365D02*
X14575Y67365D01*
X0525Y67415D02*
X14575Y67415D01*
X0525Y67465D02*
X14575Y67465D01*
X0525Y67514D02*
X14575Y67514D01*
X0525Y67564D02*
X14575Y67564D01*
X0525Y67613D02*
X14575Y67613D01*
X0525Y67663D02*
X14575Y67663D01*
X0525Y67712D02*
X14575Y67712D01*
X0525Y67762D02*
X14575Y67762D01*
X0525Y67811D02*
X14575Y67811D01*
X0525Y67861D02*
X14575Y67861D01*
X0525Y67910D02*
X14575Y67910D01*
X0525Y67960D02*
X14575Y67960D01*
X0525Y68009D02*
X14575Y68009D01*
X0525Y68059D02*
X14575Y68059D01*
X0525Y68108D02*
X14575Y68108D01*
X0525Y68158D02*
X14575Y68158D01*
X0525Y68208D02*
X14575Y68208D01*
X0525Y68257D02*
X14575Y68257D01*
X0525Y68307D02*
X14575Y68307D01*
X0525Y68356D02*
X14575Y68356D01*
X0525Y68406D02*
X14575Y68406D01*
X0525Y68455D02*
X14575Y68455D01*
X0525Y68505D02*
X14575Y68505D01*
X0525Y68554D02*
X14575Y68554D01*
X0525Y68604D02*
X14575Y68604D01*
X0525Y68653D02*
X14575Y68653D01*
X0525Y68703D02*
X14575Y68703D01*
X0525Y68752D02*
X14575Y68752D01*
X0525Y68802D02*
X14575Y68802D01*
X0525Y68851D02*
X3076Y68851D01*
X5024Y68851D02*
X14575Y68851D01*
X0525Y68901D02*
X2976Y68901D01*
X5124Y68901D02*
X14575Y68901D01*
X0525Y68950D02*
X2933Y68950D01*
X5167Y68950D02*
X14575Y68950D01*
X0525Y69000D02*
X2908Y69000D01*
X5192Y69000D02*
X14575Y69000D01*
X0525Y69050D02*
X2897Y69050D01*
X5203Y69050D02*
X14575Y69050D01*
X0525Y69099D02*
X2895Y69099D01*
X5205Y69099D02*
X14575Y69099D01*
X0525Y69149D02*
X2895Y69149D01*
X5205Y69149D02*
X14575Y69149D01*
X0525Y69198D02*
X2895Y69198D01*
X5205Y69198D02*
X14575Y69198D01*
X0525Y69248D02*
X2895Y69248D01*
X5205Y69248D02*
X14575Y69248D01*
X0525Y69297D02*
X2895Y69297D01*
X5205Y69297D02*
X14575Y69297D01*
X0525Y69347D02*
X2895Y69347D01*
X5205Y69347D02*
X14575Y69347D01*
X0525Y69396D02*
X2895Y69396D01*
X5205Y69396D02*
X14575Y69396D01*
X0525Y69446D02*
X2895Y69446D01*
X5205Y69446D02*
X14575Y69446D01*
X0525Y69495D02*
X2895Y69495D01*
X5205Y69495D02*
X14575Y69495D01*
X0525Y69545D02*
X2895Y69545D01*
X5205Y69545D02*
X14575Y69545D01*
X0525Y69594D02*
X2895Y69594D01*
X5205Y69594D02*
X14575Y69594D01*
X0525Y69644D02*
X2895Y69644D01*
X5205Y69644D02*
X14575Y69644D01*
X0525Y69693D02*
X2895Y69693D01*
X5205Y69693D02*
X14575Y69693D01*
X0525Y69743D02*
X2895Y69743D01*
X5205Y69743D02*
X14575Y69743D01*
X0525Y69792D02*
X2895Y69792D01*
X5205Y69792D02*
X14575Y69792D01*
X0525Y69842D02*
X2895Y69842D01*
X5205Y69842D02*
X14575Y69842D01*
X0525Y69892D02*
X2895Y69892D01*
X5205Y69892D02*
X14575Y69892D01*
X0525Y69941D02*
X2895Y69941D01*
X5205Y69941D02*
X14575Y69941D01*
X0525Y69991D02*
X2895Y69991D01*
X5205Y69991D02*
X14575Y69991D01*
X0525Y70040D02*
X2895Y70040D01*
X5205Y70040D02*
X14575Y70040D01*
X0525Y70090D02*
X2895Y70090D01*
X5205Y70090D02*
X14575Y70090D01*
X0525Y70139D02*
X2895Y70139D01*
X5205Y70139D02*
X14575Y70139D01*
X0525Y70189D02*
X2895Y70189D01*
X5205Y70189D02*
X14575Y70189D01*
X0525Y70238D02*
X2895Y70238D01*
X5205Y70238D02*
X14575Y70238D01*
X0525Y70288D02*
X2895Y70288D01*
X5205Y70288D02*
X14575Y70288D01*
X0525Y70337D02*
X2895Y70337D01*
X5205Y70337D02*
X14575Y70337D01*
X0525Y70387D02*
X2895Y70387D01*
X5205Y70387D02*
X14575Y70387D01*
X0525Y70436D02*
X2895Y70436D01*
X5205Y70436D02*
X14575Y70436D01*
X0525Y70486D02*
X2895Y70486D01*
X5205Y70486D02*
X14575Y70486D01*
X0525Y70535D02*
X2895Y70535D01*
X5205Y70535D02*
X14575Y70535D01*
X0525Y70585D02*
X2895Y70585D01*
X5205Y70585D02*
X14575Y70585D01*
X0525Y70634D02*
X2895Y70634D01*
X5205Y70634D02*
X14575Y70634D01*
X0525Y70684D02*
X2895Y70684D01*
X5205Y70684D02*
X14575Y70684D01*
X0525Y70734D02*
X2895Y70734D01*
X5205Y70734D02*
X14575Y70734D01*
X0525Y70783D02*
X2895Y70783D01*
X5205Y70783D02*
X14575Y70783D01*
X0525Y70833D02*
X2895Y70833D01*
X5205Y70833D02*
X14575Y70833D01*
X0525Y70882D02*
X2895Y70882D01*
X5205Y70882D02*
X14575Y70882D01*
X0525Y70932D02*
X2896Y70932D01*
X5204Y70932D02*
X14575Y70932D01*
X0525Y70981D02*
X2903Y70981D01*
X5197Y70981D02*
X14575Y70981D01*
X0525Y71031D02*
X2921Y71031D01*
X5179Y71031D02*
X14575Y71031D01*
X0525Y71080D02*
X2956Y71080D01*
X5144Y71080D02*
X14575Y71080D01*
X0525Y71130D02*
X3021Y71130D01*
X5079Y71130D02*
X14575Y71130D01*
X0525Y71179D02*
X14575Y71179D01*
X0525Y71229D02*
X14575Y71229D01*
X0525Y71278D02*
X14575Y71278D01*
X0525Y71328D02*
X14575Y71328D01*
X0525Y71377D02*
X14575Y71377D01*
X0525Y71427D02*
X14575Y71427D01*
X0525Y71476D02*
X14575Y71476D01*
X0525Y71526D02*
X14575Y71526D01*
X0525Y71576D02*
X14575Y71576D01*
X0525Y71625D02*
X14575Y71625D01*
X0525Y71675D02*
X14575Y71675D01*
X0525Y71724D02*
X14575Y71724D01*
X0525Y71774D02*
X14575Y71774D01*
X0525Y71823D02*
X14575Y71823D01*
X0525Y71873D02*
X14575Y71873D01*
X0525Y71922D02*
X14575Y71922D01*
X0525Y71972D02*
X14575Y71972D01*
X0525Y72021D02*
X14575Y72021D01*
X0525Y72071D02*
X14575Y72071D01*
X0525Y72120D02*
X14575Y72120D01*
X0525Y72170D02*
X14575Y72170D01*
X0525Y72219D02*
X14575Y72219D01*
X0525Y72269D02*
X14575Y72269D01*
X0525Y72319D02*
X14575Y72319D01*
X0525Y72368D02*
X14575Y72368D01*
X0525Y72418D02*
X14575Y72418D01*
X0525Y72467D02*
X14575Y72467D01*
X0525Y72517D02*
X14575Y72517D01*
X0525Y72566D02*
X14575Y72566D01*
X0525Y72616D02*
X14575Y72616D01*
X0525Y72665D02*
X14575Y72665D01*
X0525Y72715D02*
X14575Y72715D01*
X0525Y72764D02*
X14575Y72764D01*
X0525Y72814D02*
X14575Y72814D01*
X0525Y72863D02*
X14575Y72863D01*
X0525Y72913D02*
X14575Y72913D01*
X0525Y72962D02*
X14575Y72962D01*
X0525Y73012D02*
X14575Y73012D01*
X0525Y73061D02*
X14575Y73061D01*
X0525Y73111D02*
X14575Y73111D01*
X0525Y73161D02*
X14575Y73161D01*
X0525Y73210D02*
X14575Y73210D01*
X0525Y73260D02*
X14575Y73260D01*
X0525Y73309D02*
X14575Y73309D01*
X0525Y73359D02*
X14575Y73359D01*
X0525Y73408D02*
X14575Y73408D01*
X0525Y73458D02*
X14575Y73458D01*
X0525Y73507D02*
X14575Y73507D01*
X0525Y73557D02*
X14575Y73557D01*
X0525Y73606D02*
X14575Y73606D01*
X0525Y73656D02*
X14575Y73656D01*
X0525Y73705D02*
X14575Y73705D01*
X0525Y73755D02*
X14575Y73755D01*
X0525Y73804D02*
X14575Y73804D01*
X0525Y73854D02*
X14575Y73854D01*
X0525Y73903D02*
X14575Y73903D01*
X0525Y73953D02*
X14575Y73953D01*
X0525Y74003D02*
X14575Y74003D01*
X0525Y74052D02*
X14575Y74052D01*
X0525Y74102D02*
X14575Y74102D01*
X0525Y74151D02*
X14575Y74151D01*
X0525Y74201D02*
X14575Y74201D01*
X0525Y74250D02*
X14575Y74250D01*
X0525Y74300D02*
X14575Y74300D01*
X0525Y74349D02*
X14575Y74349D01*
X0525Y74399D02*
X14575Y74399D01*
X0525Y74448D02*
X14575Y74448D01*
X0525Y74498D02*
X14575Y74498D01*
X0525Y74547D02*
X14575Y74547D01*
X0525Y74597D02*
X14575Y74597D01*
X0525Y74646D02*
X14575Y74646D01*
X0525Y74696D02*
X14575Y74696D01*
X0525Y74745D02*
X14575Y74745D01*
X0525Y74795D02*
X14575Y74795D01*
X0525Y74845D02*
X14575Y74845D01*
X0525Y74894D02*
X14575Y74894D01*
X0525Y74944D02*
X14575Y74944D01*
X0525Y74993D02*
X14575Y74993D01*
X0525Y75043D02*
X14575Y75043D01*
X0525Y75092D02*
X14575Y75092D01*
X0525Y75142D02*
X14575Y75142D01*
X0525Y75191D02*
X14575Y75191D01*
X0525Y75241D02*
X14575Y75241D01*
X0525Y75290D02*
X14575Y75290D01*
X0525Y75340D02*
X14575Y75340D01*
X0525Y75389D02*
X14575Y75389D01*
X0525Y75439D02*
X14575Y75439D01*
X0525Y75488D02*
X14575Y75488D01*
X0525Y75538D02*
X14575Y75538D01*
X0525Y75587D02*
X14575Y75587D01*
X0525Y75637D02*
X14575Y75637D01*
X0525Y75687D02*
X14575Y75687D01*
X0525Y75736D02*
X14575Y75736D01*
X0525Y75786D02*
X14575Y75786D01*
X0525Y75835D02*
X14575Y75835D01*
X0525Y75885D02*
X14575Y75885D01*
X0525Y75934D02*
X14575Y75934D01*
X0525Y75984D02*
X14575Y75984D01*
X0525Y76033D02*
X14575Y76033D01*
X0525Y76083D02*
X14575Y76083D01*
X0525Y76132D02*
X14575Y76132D01*
X0525Y76182D02*
X14575Y76182D01*
X0525Y76231D02*
X14575Y76231D01*
X0525Y76281D02*
X14575Y76281D01*
X0525Y76330D02*
X14575Y76330D01*
X0525Y76380D02*
X14575Y76380D01*
X0525Y76429D02*
X14575Y76429D01*
X0525Y76479D02*
X14575Y76479D01*
X0525Y76529D02*
X14575Y76529D01*
X0525Y76578D02*
X14575Y76578D01*
X0525Y76628D02*
X14575Y76628D01*
X0525Y76677D02*
X14575Y76677D01*
X0525Y76727D02*
X14575Y76727D01*
X0525Y76776D02*
X14575Y76776D01*
X0525Y76826D02*
X14575Y76826D01*
X0525Y76875D02*
X14575Y76875D01*
X0525Y76925D02*
X14575Y76925D01*
X0525Y76974D02*
X14575Y76974D01*
X0525Y77024D02*
X14575Y77024D01*
X0525Y77073D02*
X14575Y77073D01*
X0525Y77123D02*
X14575Y77123D01*
X0525Y77172D02*
X14575Y77172D01*
X0525Y77222D02*
X14575Y77222D01*
X0525Y77272D02*
X14575Y77272D01*
X0525Y77321D02*
X14575Y77321D01*
X0525Y77371D02*
X14575Y77371D01*
X0525Y77420D02*
X14575Y77420D01*
X0525Y77470D02*
X14575Y77470D01*
X0525Y77519D02*
X14575Y77519D01*
X0525Y77569D02*
X14575Y77569D01*
X0525Y77618D02*
X14575Y77618D01*
X0525Y77668D02*
X14575Y77668D01*
X0525Y77717D02*
X14575Y77717D01*
X0525Y77767D02*
X14575Y77767D01*
X0525Y77816D02*
X14575Y77816D01*
X0525Y77866D02*
X14575Y77866D01*
X0525Y77915D02*
X14575Y77915D01*
X0525Y77965D02*
X14575Y77965D01*
X0525Y78014D02*
X14575Y78014D01*
X0525Y78064D02*
X14575Y78064D01*
X0525Y78114D02*
X14575Y78114D01*
X0525Y78163D02*
X14575Y78163D01*
X0525Y78213D02*
X14575Y78213D01*
X0525Y78262D02*
X14575Y78262D01*
X0525Y78312D02*
X14575Y78312D01*
X0525Y78361D02*
X14575Y78361D01*
X0525Y78411D02*
X14575Y78411D01*
X0525Y78460D02*
X14575Y78460D01*
X0525Y78510D02*
X14575Y78510D01*
X0525Y78559D02*
X14575Y78559D01*
X0525Y78609D02*
X14575Y78609D01*
X0525Y78658D02*
X14575Y78658D01*
X0525Y78708D02*
X14575Y78708D01*
X0525Y78757D02*
X14575Y78757D01*
X0525Y78807D02*
X14575Y78807D01*
X0525Y78856D02*
X14575Y78856D01*
X0525Y78906D02*
X14575Y78906D01*
X0525Y78956D02*
X14575Y78956D01*
X0525Y79005D02*
X14575Y79005D01*
X0525Y79055D02*
X14575Y79055D01*
X0525Y79104D02*
X14575Y79104D01*
X0525Y79154D02*
X14575Y79154D01*
X0525Y79203D02*
X14575Y79203D01*
X0525Y79253D02*
X14575Y79253D01*
X0525Y79302D02*
X14575Y79302D01*
X0525Y79352D02*
X14575Y79352D01*
X0525Y79401D02*
X14575Y79401D01*
X0525Y79451D02*
X14575Y79451D01*
X0525Y79500D02*
X14575Y79500D01*
X0525Y79550D02*
X14575Y79550D01*
X0525Y79599D02*
X14575Y79599D01*
X0525Y79649D02*
X14575Y79649D01*
X0525Y79698D02*
X14575Y79698D01*
X0525Y79748D02*
X14575Y79748D01*
X0525Y79798D02*
X14575Y79798D01*
X0525Y79847D02*
X14575Y79847D01*
X0525Y79897D02*
X14575Y79897D01*
X0525Y79946D02*
X14575Y79946D01*
X0525Y79996D02*
X14575Y79996D01*
X0525Y80045D02*
X14575Y80045D01*
X0525Y80095D02*
X14575Y80095D01*
X0525Y80144D02*
X14575Y80144D01*
X0525Y80194D02*
X14575Y80194D01*
X0525Y80243D02*
X14575Y80243D01*
X0525Y80293D02*
X14575Y80293D01*
X0525Y80342D02*
X14575Y80342D01*
X0525Y80392D02*
X14575Y80392D01*
X0525Y80441D02*
X14575Y80441D01*
X0525Y80491D02*
X14575Y80491D01*
X0525Y80540D02*
X14575Y80540D01*
X0525Y80590D02*
X14575Y80590D01*
X0525Y80640D02*
X14575Y80640D01*
X0525Y80689D02*
X14575Y80689D01*
X0525Y80739D02*
X14575Y80739D01*
X0525Y80788D02*
X14575Y80788D01*
X0525Y80838D02*
X14575Y80838D01*
X0525Y80887D02*
X14575Y80887D01*
X0525Y80937D02*
X14575Y80937D01*
X0525Y80986D02*
X14575Y80986D01*
X0525Y81036D02*
X14575Y81036D01*
X0525Y81085D02*
X14575Y81085D01*
X0525Y81135D02*
X14575Y81135D01*
X0525Y81184D02*
X14575Y81184D01*
X0525Y81234D02*
X14575Y81234D01*
X0525Y81283D02*
X3871Y81283D01*
X3969Y81283D02*
X4131Y81283D01*
X4229Y81283D02*
X14575Y81283D01*
X0525Y81333D02*
X3670Y81333D01*
X3974Y81333D02*
X4126Y81333D01*
X4430Y81333D02*
X14575Y81333D01*
X0525Y81382D02*
X3560Y81382D01*
X3974Y81382D02*
X4126Y81382D01*
X4540Y81382D02*
X14575Y81382D01*
X0525Y81432D02*
X3466Y81432D01*
X3974Y81432D02*
X4126Y81432D01*
X4634Y81432D02*
X14575Y81432D01*
X0525Y81482D02*
X3381Y81482D01*
X3974Y81482D02*
X4126Y81482D01*
X4719Y81482D02*
X14575Y81482D01*
X0525Y81531D02*
X3325Y81531D01*
X4775Y81531D02*
X14575Y81531D01*
X0525Y81581D02*
X3269Y81581D01*
X4831Y81581D02*
X14575Y81581D01*
X0525Y81630D02*
X3213Y81630D01*
X4887Y81630D02*
X14575Y81630D01*
X0525Y81680D02*
X3168Y81680D01*
X4932Y81680D02*
X14575Y81680D01*
X0525Y81729D02*
X3134Y81729D01*
X4966Y81729D02*
X14575Y81729D01*
X0525Y81779D02*
X3100Y81779D01*
X5000Y81779D02*
X14575Y81779D01*
X0525Y81828D02*
X3066Y81828D01*
X5034Y81828D02*
X14575Y81828D01*
X0525Y81878D02*
X3031Y81878D01*
X5069Y81878D02*
X14575Y81878D01*
X0525Y81927D02*
X3011Y81927D01*
X5089Y81927D02*
X14575Y81927D01*
X0525Y81977D02*
X2992Y81977D01*
X5108Y81977D02*
X14575Y81977D01*
X0525Y82026D02*
X2973Y82026D01*
X5127Y82026D02*
X14575Y82026D01*
X0525Y82076D02*
X2954Y82076D01*
X5146Y82076D02*
X14575Y82076D01*
X0525Y82125D02*
X2936Y82125D01*
X5164Y82125D02*
X14575Y82125D01*
X0525Y82175D02*
X2925Y82175D01*
X5175Y82175D02*
X14575Y82175D01*
X0525Y82225D02*
X2919Y82225D01*
X5181Y82225D02*
X14575Y82225D01*
X0525Y82274D02*
X2913Y82274D01*
X5187Y82274D02*
X14575Y82274D01*
X0525Y82324D02*
X2907Y82324D01*
X5193Y82324D02*
X14575Y82324D01*
X0525Y82373D02*
X3150Y82373D01*
X4950Y82373D02*
X14575Y82373D01*
X0525Y82423D02*
X3150Y82423D01*
X4950Y82423D02*
X14575Y82423D01*
X0525Y82472D02*
X3150Y82472D01*
X4950Y82472D02*
X14575Y82472D01*
X0525Y82522D02*
X2908Y82522D01*
X5192Y82522D02*
X14575Y82522D01*
X0525Y82571D02*
X2914Y82571D01*
X5186Y82571D02*
X14575Y82571D01*
X0525Y82621D02*
X2920Y82621D01*
X5180Y82621D02*
X14575Y82621D01*
X0525Y82670D02*
X2926Y82670D01*
X5174Y82670D02*
X14575Y82670D01*
X0525Y82720D02*
X2938Y82720D01*
X5162Y82720D02*
X14575Y82720D01*
X0525Y82769D02*
X2956Y82769D01*
X5144Y82769D02*
X14575Y82769D01*
X0525Y82819D02*
X2975Y82819D01*
X5125Y82819D02*
X14575Y82819D01*
X0525Y82868D02*
X2994Y82868D01*
X5106Y82868D02*
X14575Y82868D01*
X0525Y82918D02*
X3013Y82918D01*
X5087Y82918D02*
X14575Y82918D01*
X0525Y82967D02*
X3035Y82967D01*
X5065Y82967D02*
X14575Y82967D01*
X0525Y83017D02*
X3069Y83017D01*
X5031Y83017D02*
X14575Y83017D01*
X0525Y83067D02*
X3103Y83067D01*
X4997Y83067D02*
X14575Y83067D01*
X0525Y83116D02*
X3138Y83116D01*
X4962Y83116D02*
X14575Y83116D01*
X0525Y83166D02*
X3172Y83166D01*
X4928Y83166D02*
X14575Y83166D01*
X0525Y83215D02*
X3219Y83215D01*
X4881Y83215D02*
X14575Y83215D01*
X0525Y83265D02*
X3275Y83265D01*
X4825Y83265D02*
X14575Y83265D01*
X0525Y83314D02*
X3331Y83314D01*
X3974Y83314D02*
X4126Y83314D01*
X4769Y83314D02*
X14575Y83314D01*
X0525Y83364D02*
X3386Y83364D01*
X3974Y83364D02*
X4126Y83364D01*
X4714Y83364D02*
X14575Y83364D01*
X0525Y83413D02*
X3476Y83413D01*
X3974Y83413D02*
X4126Y83413D01*
X4624Y83413D02*
X14575Y83413D01*
X0525Y83463D02*
X3570Y83463D01*
X3974Y83463D02*
X4126Y83463D01*
X4530Y83463D02*
X14575Y83463D01*
X0525Y83512D02*
X3691Y83512D01*
X3974Y83512D02*
X4126Y83512D01*
X4409Y83512D02*
X14575Y83512D01*
X0525Y83562D02*
X3892Y83562D01*
X3963Y83562D02*
X4137Y83562D01*
X4208Y83562D02*
X14575Y83562D01*
X0525Y83611D02*
X14575Y83611D01*
X0525Y83661D02*
X14575Y83661D01*
X0525Y83710D02*
X14575Y83710D01*
X0525Y83760D02*
X14575Y83760D01*
X0525Y83809D02*
X14575Y83809D01*
X0525Y83859D02*
X14575Y83859D01*
X0525Y83909D02*
X14575Y83909D01*
X0525Y83958D02*
X14575Y83958D01*
X0525Y84008D02*
X14575Y84008D01*
X0525Y84057D02*
X14575Y84057D01*
X0525Y84107D02*
X14575Y84107D01*
X0525Y84156D02*
X14575Y84156D01*
X0525Y84206D02*
X14575Y84206D01*
X0525Y84255D02*
X14575Y84255D01*
X0525Y84305D02*
X14575Y84305D01*
X0525Y84354D02*
X14575Y84354D01*
X0525Y84404D02*
X14575Y84404D01*
X0525Y84453D02*
X14575Y84453D01*
X0525Y84503D02*
X14575Y84503D01*
X0525Y84552D02*
X14575Y84552D01*
X0525Y84602D02*
X14575Y84602D01*
X0525Y84651D02*
X14575Y84651D01*
X0525Y84701D02*
X14575Y84701D01*
X0525Y84751D02*
X14575Y84751D01*
X0525Y84800D02*
X14575Y84800D01*
X0525Y84850D02*
X14575Y84850D01*
X0525Y84899D02*
X14575Y84899D01*
X0525Y84949D02*
X14575Y84949D01*
X0525Y84998D02*
X14575Y84998D01*
X0525Y85048D02*
X14575Y85048D01*
X0525Y85097D02*
X14575Y85097D01*
X0525Y85147D02*
X14575Y85147D01*
X0525Y85196D02*
X14575Y85196D01*
X0525Y85246D02*
X14575Y85246D01*
X0525Y85295D02*
X14575Y85295D01*
X0525Y85345D02*
X14575Y85345D01*
X0525Y85394D02*
X14575Y85394D01*
X0525Y85444D02*
X14575Y85444D01*
X0525Y85493D02*
X14575Y85493D01*
X0525Y85543D02*
X14575Y85543D01*
X0525Y85593D02*
X14575Y85593D01*
X0525Y85642D02*
X14575Y85642D01*
X0525Y85692D02*
X14575Y85692D01*
X0525Y85741D02*
X14575Y85741D01*
X0525Y85791D02*
X14575Y85791D01*
X0525Y85840D02*
X14575Y85840D01*
X0525Y85890D02*
X14575Y85890D01*
X0525Y85939D02*
X14575Y85939D01*
X0525Y85989D02*
X14575Y85989D01*
X0525Y86038D02*
X14575Y86038D01*
X0525Y86088D02*
X14575Y86088D01*
X0525Y86137D02*
X14575Y86137D01*
X0525Y86187D02*
X14575Y86187D01*
X0525Y86236D02*
X14575Y86236D01*
X0525Y86286D02*
X14575Y86286D01*
X0525Y86335D02*
X14575Y86335D01*
X0525Y86385D02*
X3783Y86385D01*
X4317Y86385D02*
X14575Y86385D01*
X0525Y86435D02*
X3613Y86435D01*
X4487Y86435D02*
X14575Y86435D01*
X0525Y86484D02*
X3519Y86484D01*
X4581Y86484D02*
X14575Y86484D01*
X0525Y86534D02*
X3425Y86534D01*
X4675Y86534D02*
X14575Y86534D01*
X0525Y86583D02*
X3356Y86583D01*
X4744Y86583D02*
X14575Y86583D01*
X0525Y86633D02*
X3300Y86633D01*
X4800Y86633D02*
X14575Y86633D01*
X0525Y86682D02*
X3244Y86682D01*
X4856Y86682D02*
X14575Y86682D01*
X0525Y86732D02*
X3188Y86732D01*
X4912Y86732D02*
X14575Y86732D01*
X0525Y86781D02*
X3153Y86781D01*
X4947Y86781D02*
X14575Y86781D01*
X0525Y86831D02*
X3119Y86831D01*
X4981Y86831D02*
X14575Y86831D01*
X0525Y86880D02*
X3085Y86880D01*
X5015Y86880D02*
X14575Y86880D01*
X0525Y86930D02*
X3051Y86930D01*
X5049Y86930D02*
X14575Y86930D01*
X0525Y86979D02*
X3021Y86979D01*
X5079Y86979D02*
X14575Y86979D01*
X0525Y87029D02*
X3003Y87029D01*
X5097Y87029D02*
X14575Y87029D01*
X0525Y87078D02*
X2984Y87078D01*
X5116Y87078D02*
X14575Y87078D01*
X0525Y87128D02*
X2965Y87128D01*
X5135Y87128D02*
X14575Y87128D01*
X0525Y87177D02*
X2946Y87177D01*
X5154Y87177D02*
X14575Y87177D01*
X0525Y87227D02*
X2928Y87227D01*
X5172Y87227D02*
X14575Y87227D01*
X0525Y87277D02*
X2922Y87277D01*
X5178Y87277D02*
X14575Y87277D01*
X0525Y87326D02*
X2916Y87326D01*
X5184Y87326D02*
X14575Y87326D01*
X0525Y87376D02*
X2910Y87376D01*
X5190Y87376D02*
X14575Y87376D01*
X0525Y87425D02*
X2904Y87425D01*
X5196Y87425D02*
X14575Y87425D01*
X0525Y87475D02*
X2898Y87475D01*
X5202Y87475D02*
X14575Y87475D01*
X0525Y87524D02*
X2898Y87524D01*
X5202Y87524D02*
X14575Y87524D01*
X0525Y87574D02*
X2904Y87574D01*
X5196Y87574D02*
X14575Y87574D01*
X0525Y87623D02*
X2910Y87623D01*
X5190Y87623D02*
X14575Y87623D01*
X0525Y87673D02*
X2916Y87673D01*
X5184Y87673D02*
X14575Y87673D01*
X0525Y87722D02*
X2922Y87722D01*
X5178Y87722D02*
X14575Y87722D01*
X0525Y87772D02*
X2928Y87772D01*
X5172Y87772D02*
X14575Y87772D01*
X0525Y87821D02*
X2946Y87821D01*
X5154Y87821D02*
X14575Y87821D01*
X0525Y87871D02*
X2965Y87871D01*
X5135Y87871D02*
X14575Y87871D01*
X0525Y87920D02*
X2983Y87920D01*
X5117Y87920D02*
X14575Y87920D01*
X0525Y87970D02*
X3002Y87970D01*
X5098Y87970D02*
X14575Y87970D01*
X0525Y88020D02*
X3021Y88020D01*
X5079Y88020D02*
X14575Y88020D01*
X0525Y88069D02*
X3050Y88069D01*
X5050Y88069D02*
X14575Y88069D01*
X0525Y88119D02*
X3084Y88119D01*
X5016Y88119D02*
X14575Y88119D01*
X0525Y88168D02*
X3118Y88168D01*
X4982Y88168D02*
X14575Y88168D01*
X0525Y88218D02*
X3152Y88218D01*
X4948Y88218D02*
X14575Y88218D01*
X0525Y88267D02*
X3187Y88267D01*
X4913Y88267D02*
X14575Y88267D01*
X0525Y88317D02*
X3243Y88317D01*
X4857Y88317D02*
X14575Y88317D01*
X0525Y88366D02*
X3299Y88366D01*
X4801Y88366D02*
X14575Y88366D01*
X0525Y88416D02*
X3355Y88416D01*
X4745Y88416D02*
X14575Y88416D01*
X0525Y88465D02*
X3422Y88465D01*
X4678Y88465D02*
X14575Y88465D01*
X0525Y88515D02*
X3517Y88515D01*
X4583Y88515D02*
X14575Y88515D01*
X0525Y88564D02*
X3611Y88564D01*
X4489Y88564D02*
X14575Y88564D01*
X0525Y88614D02*
X3779Y88614D01*
X4321Y88614D02*
X14575Y88614D01*
X0525Y88663D02*
X14575Y88663D01*
X0525Y88713D02*
X14575Y88713D01*
X0525Y88762D02*
X14575Y88762D01*
X0525Y88812D02*
X14575Y88812D01*
X0525Y88862D02*
X14575Y88862D01*
X0525Y88911D02*
X14575Y88911D01*
X0525Y88961D02*
X14575Y88961D01*
X0525Y89010D02*
X14575Y89010D01*
X0525Y89060D02*
X14575Y89060D01*
X0525Y89109D02*
X14575Y89109D01*
X0525Y89159D02*
X14575Y89159D01*
X0525Y89208D02*
X14575Y89208D01*
X0525Y89258D02*
X14575Y89258D01*
X0525Y89307D02*
X14575Y89307D01*
X0525Y89357D02*
X14575Y89357D01*
X0525Y89406D02*
X14575Y89406D01*
X0525Y89456D02*
X14575Y89456D01*
X0525Y89505D02*
X14575Y89505D01*
X0525Y89555D02*
X14575Y89555D01*
X0525Y89604D02*
X14575Y89604D01*
X0525Y89654D02*
X14575Y89654D01*
X0525Y89704D02*
X14575Y89704D01*
X0525Y89753D02*
X14575Y89753D01*
X0525Y89803D02*
X14575Y89803D01*
X0525Y89852D02*
X14575Y89852D01*
X0525Y89902D02*
X14575Y89902D01*
X0525Y89951D02*
X14575Y89951D01*
X0525Y90001D02*
X14575Y90001D01*
X0525Y90050D02*
X14575Y90050D01*
X0525Y90100D02*
X14575Y90100D01*
X0525Y90149D02*
X14575Y90149D01*
X0525Y90199D02*
X14575Y90199D01*
X0525Y90248D02*
X14575Y90248D01*
X0525Y90298D02*
X14575Y90298D01*
X0525Y90347D02*
X14575Y90347D01*
X0525Y90397D02*
X14575Y90397D01*
X0525Y90446D02*
X14575Y90446D01*
X0525Y90496D02*
X14575Y90496D01*
X0525Y90546D02*
X14575Y90546D01*
X0525Y90595D02*
X14575Y90595D01*
X0525Y90645D02*
X14575Y90645D01*
X0525Y90694D02*
X14575Y90694D01*
X0525Y90744D02*
X14575Y90744D01*
X0525Y90793D02*
X14575Y90793D01*
X0525Y90843D02*
X14575Y90843D01*
X0525Y90892D02*
X14575Y90892D01*
X0525Y90942D02*
X14575Y90942D01*
X0525Y90991D02*
X14575Y90991D01*
X0525Y91041D02*
X14575Y91041D01*
X0525Y91090D02*
X14575Y91090D01*
X0525Y91140D02*
X14575Y91140D01*
X0525Y91189D02*
X14575Y91189D01*
X0525Y91239D02*
X14575Y91239D01*
X0525Y91288D02*
X14575Y91288D01*
X0525Y91338D02*
X14575Y91338D01*
X0525Y91388D02*
X2993Y91388D01*
X5107Y91388D02*
X14575Y91388D01*
X0525Y91437D02*
X2942Y91437D01*
X5158Y91437D02*
X14575Y91437D01*
X0525Y91487D02*
X2914Y91487D01*
X5186Y91487D02*
X14575Y91487D01*
X0525Y91536D02*
X2899Y91536D01*
X5201Y91536D02*
X14575Y91536D01*
X0525Y91586D02*
X2895Y91586D01*
X5205Y91586D02*
X14575Y91586D01*
X0525Y91635D02*
X2895Y91635D01*
X5205Y91635D02*
X14575Y91635D01*
X0525Y91685D02*
X2895Y91685D01*
X5205Y91685D02*
X14575Y91685D01*
X0525Y91734D02*
X2895Y91734D01*
X5205Y91734D02*
X14575Y91734D01*
X0525Y91784D02*
X2895Y91784D01*
X5205Y91784D02*
X14575Y91784D01*
X0525Y91833D02*
X2895Y91833D01*
X5205Y91833D02*
X14575Y91833D01*
X0525Y91883D02*
X2895Y91883D01*
X5205Y91883D02*
X14575Y91883D01*
X0525Y91932D02*
X2895Y91932D01*
X5205Y91932D02*
X14575Y91932D01*
X0525Y91982D02*
X2895Y91982D01*
X5205Y91982D02*
X14575Y91982D01*
X0525Y92031D02*
X2895Y92031D01*
X5205Y92031D02*
X14575Y92031D01*
X0525Y92081D02*
X2895Y92081D01*
X5205Y92081D02*
X14575Y92081D01*
X0525Y92130D02*
X2895Y92130D01*
X5205Y92130D02*
X14575Y92130D01*
X0525Y92180D02*
X2895Y92180D01*
X5205Y92180D02*
X14575Y92180D01*
X0525Y92230D02*
X2895Y92230D01*
X5205Y92230D02*
X14575Y92230D01*
X0525Y92279D02*
X2895Y92279D01*
X5205Y92279D02*
X14575Y92279D01*
X0525Y92329D02*
X2895Y92329D01*
X5205Y92329D02*
X14575Y92329D01*
X0525Y92378D02*
X2895Y92378D01*
X5205Y92378D02*
X14575Y92378D01*
X0525Y92428D02*
X2895Y92428D01*
X5205Y92428D02*
X14575Y92428D01*
X0525Y92477D02*
X2895Y92477D01*
X5205Y92477D02*
X14575Y92477D01*
X0525Y92527D02*
X2895Y92527D01*
X5205Y92527D02*
X14575Y92527D01*
X0525Y92576D02*
X2895Y92576D01*
X5205Y92576D02*
X14575Y92576D01*
X0525Y92626D02*
X2895Y92626D01*
X5205Y92626D02*
X14575Y92626D01*
X0525Y92675D02*
X2895Y92675D01*
X5205Y92675D02*
X14575Y92675D01*
X0525Y92725D02*
X2895Y92725D01*
X5205Y92725D02*
X14575Y92725D01*
X0525Y92774D02*
X2895Y92774D01*
X5205Y92774D02*
X14575Y92774D01*
X0525Y92824D02*
X2895Y92824D01*
X5205Y92824D02*
X14575Y92824D01*
X0525Y92873D02*
X2895Y92873D01*
X5205Y92873D02*
X14575Y92873D01*
X0525Y92923D02*
X2895Y92923D01*
X5205Y92923D02*
X14575Y92923D01*
X0525Y92973D02*
X2895Y92973D01*
X5205Y92973D02*
X14575Y92973D01*
X0525Y93022D02*
X2895Y93022D01*
X5205Y93022D02*
X14575Y93022D01*
X0525Y93072D02*
X2895Y93072D01*
X5205Y93072D02*
X14575Y93072D01*
X0525Y93121D02*
X2895Y93121D01*
X5205Y93121D02*
X14575Y93121D01*
X0525Y93171D02*
X2895Y93171D01*
X5205Y93171D02*
X14575Y93171D01*
X0525Y93220D02*
X2895Y93220D01*
X5205Y93220D02*
X14575Y93220D01*
X0525Y93270D02*
X2895Y93270D01*
X5205Y93270D02*
X14575Y93270D01*
X0525Y93319D02*
X2895Y93319D01*
X5205Y93319D02*
X14575Y93319D01*
X0525Y93369D02*
X2895Y93369D01*
X5205Y93369D02*
X14575Y93369D01*
X0525Y93418D02*
X2895Y93418D01*
X5205Y93418D02*
X14575Y93418D01*
X0525Y93468D02*
X2900Y93468D01*
X5200Y93468D02*
X14575Y93468D01*
X0525Y93517D02*
X2915Y93517D01*
X5185Y93517D02*
X14575Y93517D01*
X0525Y93567D02*
X2945Y93567D01*
X5155Y93567D02*
X14575Y93567D01*
X0525Y93616D02*
X2999Y93616D01*
X5101Y93616D02*
X14575Y93616D01*
X0525Y93666D02*
X14575Y93666D01*
X0525Y93715D02*
X14575Y93715D01*
X0525Y93765D02*
X14575Y93765D01*
X0525Y93815D02*
X14575Y93815D01*
X0525Y93864D02*
X14575Y93864D01*
X0525Y93914D02*
X14575Y93914D01*
X0525Y93963D02*
X14575Y93963D01*
X0525Y94013D02*
X14575Y94013D01*
X0525Y94062D02*
X14575Y94062D01*
X0525Y94112D02*
X14575Y94112D01*
X0525Y94161D02*
X14575Y94161D01*
X0525Y94211D02*
X14575Y94211D01*
X0525Y94260D02*
X14575Y94260D01*
X0525Y94310D02*
X14575Y94310D01*
X0525Y94359D02*
X14575Y94359D01*
X0525Y94409D02*
X14575Y94409D01*
X0525Y94458D02*
X14575Y94458D01*
X0525Y94508D02*
X14575Y94508D01*
X0525Y94557D02*
X14575Y94557D01*
X0525Y94607D02*
X14575Y94607D01*
X0525Y94657D02*
X14575Y94657D01*
X0525Y94706D02*
X14575Y94706D01*
X0525Y94756D02*
X14575Y94756D01*
X0525Y94805D02*
X14575Y94805D01*
X0525Y94855D02*
X14575Y94855D01*
X0525Y94904D02*
X14575Y94904D01*
X0525Y94954D02*
X14575Y94954D01*
X0525Y95003D02*
X14575Y95003D01*
X0525Y95053D02*
X14575Y95053D01*
X0525Y95102D02*
X14575Y95102D01*
X0525Y95152D02*
X14575Y95152D01*
X0525Y95201D02*
X14575Y95201D01*
X0525Y95251D02*
X14575Y95251D01*
X0525Y95300D02*
X14575Y95300D01*
X0525Y95350D02*
X14575Y95350D01*
X0525Y95399D02*
X14575Y95399D01*
X0525Y95449D02*
X14575Y95449D01*
X0525Y95499D02*
X14575Y95499D01*
X0525Y95548D02*
X14575Y95548D01*
X0525Y95598D02*
X14575Y95598D01*
X0525Y95647D02*
X14575Y95647D01*
X0525Y95697D02*
X14575Y95697D01*
X0525Y95746D02*
X14575Y95746D01*
X0525Y95796D02*
X14575Y95796D01*
X0525Y95845D02*
X14575Y95845D01*
X0525Y95895D02*
X14575Y95895D01*
X0525Y95944D02*
X14575Y95944D01*
X0525Y95994D02*
X14575Y95994D01*
X0525Y96043D02*
X14575Y96043D01*
X0525Y96093D02*
X14575Y96093D01*
X0525Y96142D02*
X14575Y96142D01*
X0525Y96192D02*
X14575Y96192D01*
X0525Y96241D02*
X14575Y96241D01*
X0525Y96291D02*
X14575Y96291D01*
X0525Y96341D02*
X14575Y96341D01*
X0525Y96390D02*
X14575Y96390D01*
X0525Y96440D02*
X14575Y96440D01*
X0525Y96489D02*
X14575Y96489D01*
X0525Y96539D02*
X14575Y96539D01*
X0525Y96588D02*
X14575Y96588D01*
X0525Y96638D02*
X14575Y96638D01*
X0525Y96687D02*
X14575Y96687D01*
X0525Y96737D02*
X14575Y96737D01*
X0525Y96786D02*
X14575Y96786D01*
X0525Y96836D02*
X14575Y96836D01*
X0525Y96885D02*
X14575Y96885D01*
X0525Y96935D02*
X14575Y96935D01*
X0525Y96984D02*
X14575Y96984D01*
X0525Y97034D02*
X14575Y97034D01*
X0525Y97084D02*
X14575Y97084D01*
X0525Y97133D02*
X14575Y97133D01*
X0525Y97183D02*
X14575Y97183D01*
X0525Y97232D02*
X14575Y97232D01*
X0525Y97282D02*
X14575Y97282D01*
X0525Y97331D02*
X14575Y97331D01*
X0525Y97381D02*
X14575Y97381D01*
X0525Y97430D02*
X14575Y97430D01*
X0525Y97480D02*
X14575Y97480D01*
X0525Y97529D02*
X14575Y97529D01*
X0525Y97579D02*
X14575Y97579D01*
X0525Y97628D02*
X14575Y97628D01*
X0525Y97678D02*
X14575Y97678D01*
X0525Y97727D02*
X14575Y97727D01*
X0525Y97777D02*
X14575Y97777D01*
X0525Y97826D02*
X14575Y97826D01*
X0525Y97876D02*
X14575Y97876D01*
X0525Y97926D02*
X14575Y97926D01*
X0525Y97975D02*
X14575Y97975D01*
X0525Y98025D02*
X14575Y98025D01*
X0525Y98074D02*
X14575Y98074D01*
X0525Y98124D02*
X14575Y98124D01*
X0525Y98173D02*
X14575Y98173D01*
X0525Y98223D02*
X14575Y98223D01*
X0525Y98272D02*
X14575Y98272D01*
X0525Y98322D02*
X14575Y98322D01*
X0525Y98371D02*
X14575Y98371D01*
X0525Y98421D02*
X14575Y98421D01*
X0525Y98470D02*
X14575Y98470D01*
X0525Y98520D02*
X14575Y98520D01*
X0525Y98569D02*
X14575Y98569D01*
X0525Y98619D02*
X14575Y98619D01*
X0525Y98668D02*
X14575Y98668D01*
X0525Y98718D02*
X14575Y98718D01*
X0525Y98768D02*
X14575Y98768D01*
X0525Y98817D02*
X14575Y98817D01*
X0525Y98867D02*
X14575Y98867D01*
X0525Y98916D02*
X14575Y98916D01*
X0525Y98966D02*
X14575Y98966D01*
X0525Y99015D02*
X14575Y99015D01*
X0525Y99065D02*
X14575Y99065D01*
X0525Y99114D02*
X14575Y99114D01*
X0525Y99164D02*
X14575Y99164D01*
X0525Y99213D02*
X14575Y99213D01*
X0525Y99263D02*
X14575Y99263D01*
X0525Y99312D02*
X14575Y99312D01*
X0525Y99362D02*
X14575Y99362D01*
X0525Y99411D02*
X14575Y99411D01*
X0525Y99461D02*
X14575Y99461D01*
X0525Y99510D02*
X14575Y99510D01*
X0525Y99560D02*
X14575Y99560D01*
X0525Y99610D02*
X14575Y99610D01*
X0525Y99659D02*
X14575Y99659D01*
X0525Y99709D02*
X14575Y99709D01*
X0525Y99758D02*
X14575Y99758D01*
X0525Y99808D02*
X14575Y99808D01*
X0525Y99857D02*
X14575Y99857D01*
X0525Y99907D02*
X14575Y99907D01*
X0525Y99956D02*
X14575Y99956D01*
X0525Y100006D02*
X14575Y100006D01*
X0525Y100055D02*
X14575Y100055D01*
X0525Y100105D02*
X14575Y100105D01*
X0525Y100154D02*
X14575Y100154D01*
X0525Y100204D02*
X14575Y100204D01*
X0525Y100253D02*
X14575Y100253D01*
X0525Y100303D02*
X14575Y100303D01*
X0525Y100352D02*
X14575Y100352D01*
X0525Y100402D02*
X14575Y100402D01*
X0525Y100452D02*
X14575Y100452D01*
X0525Y100501D02*
X14575Y100501D01*
X0525Y100551D02*
X14575Y100551D01*
X0525Y100600D02*
X14575Y100600D01*
X0525Y100650D02*
X14575Y100650D01*
X0525Y100699D02*
X14575Y100699D01*
X0525Y100749D02*
X14575Y100749D01*
X0525Y100798D02*
X14575Y100798D01*
X0525Y100848D02*
X14575Y100848D01*
X0525Y100897D02*
X14575Y100897D01*
X0525Y100947D02*
X14575Y100947D01*
X0525Y100996D02*
X14575Y100996D01*
X0525Y101046D02*
X14575Y101046D01*
X0525Y101095D02*
X14575Y101095D01*
X0525Y101145D02*
X14575Y101145D01*
X0525Y101194D02*
X14575Y101194D01*
X0525Y101244D02*
X14575Y101244D01*
X0525Y101294D02*
X14575Y101294D01*
X0525Y101343D02*
X14575Y101343D01*
X0525Y101393D02*
X14575Y101393D01*
X0525Y101442D02*
X14575Y101442D01*
X0525Y101492D02*
X14575Y101492D01*
X0525Y101541D02*
X14575Y101541D01*
X0525Y101591D02*
X14575Y101591D01*
X0525Y101640D02*
X14575Y101640D01*
X0525Y101690D02*
X14575Y101690D01*
X0525Y101739D02*
X14575Y101739D01*
X0525Y101789D02*
X14575Y101789D01*
X0525Y101838D02*
X14575Y101838D01*
X0525Y101888D02*
X14575Y101888D01*
X0525Y101937D02*
X14575Y101937D01*
X0525Y101987D02*
X14575Y101987D01*
X0525Y102037D02*
X14575Y102037D01*
X0525Y102086D02*
X14575Y102086D01*
X0525Y102136D02*
X14575Y102136D01*
X0525Y102185D02*
X14575Y102185D01*
X0525Y102235D02*
X14575Y102235D01*
X0525Y102284D02*
X14575Y102284D01*
X0525Y102334D02*
X14575Y102334D01*
X0525Y102383D02*
X14575Y102383D01*
X0525Y102433D02*
X14575Y102433D01*
X0525Y102482D02*
X14575Y102482D01*
X0525Y102532D02*
X14575Y102532D01*
X0525Y102581D02*
X14575Y102581D01*
X0525Y102631D02*
X14575Y102631D01*
X0525Y102680D02*
X14575Y102680D01*
X0525Y102730D02*
X14575Y102730D01*
X0525Y102779D02*
X14575Y102779D01*
X0525Y102829D02*
X14575Y102829D01*
X0525Y102879D02*
X14575Y102879D01*
X0525Y102928D02*
X14575Y102928D01*
X0525Y102978D02*
X14575Y102978D01*
X0525Y103027D02*
X14575Y103027D01*
X0525Y103077D02*
X14575Y103077D01*
X0525Y103126D02*
X14575Y103126D01*
X0525Y103176D02*
X14575Y103176D01*
X1914Y103225D02*
X2086Y103225D01*
X3595Y103225D02*
X7256Y103225D01*
X7344Y103225D02*
X14575Y103225D01*
X1924Y103275D02*
X2076Y103275D01*
X3697Y103275D02*
X6876Y103275D01*
X7724Y103275D02*
X12676Y103275D01*
X13024Y103275D02*
X13176Y103275D01*
X13524Y103275D02*
X14575Y103275D01*
X1924Y103324D02*
X2076Y103324D01*
X3742Y103324D02*
X6734Y103324D01*
X7866Y103324D02*
X12534Y103324D01*
X13024Y103324D02*
X13176Y103324D01*
X13666Y103324D02*
X14575Y103324D01*
X1924Y103374D02*
X2076Y103374D01*
X3766Y103374D02*
X6593Y103374D01*
X8007Y103374D02*
X12393Y103374D01*
X13024Y103374D02*
X13176Y103374D01*
X13807Y103374D02*
X14575Y103374D01*
X1924Y103423D02*
X2076Y103423D01*
X3778Y103423D02*
X6485Y103423D01*
X8115Y103423D02*
X12285Y103423D01*
X13024Y103423D02*
X13176Y103423D01*
X13915Y103423D02*
X14575Y103423D01*
X1924Y103473D02*
X2076Y103473D01*
X3780Y103473D02*
X6406Y103473D01*
X8194Y103473D02*
X12206Y103473D01*
X13024Y103473D02*
X13176Y103473D01*
X13994Y103473D02*
X14575Y103473D01*
X3780Y103522D02*
X6327Y103522D01*
X8273Y103522D02*
X12127Y103522D01*
X14073Y103522D02*
X14575Y103522D01*
X3780Y103572D02*
X6249Y103572D01*
X8351Y103572D02*
X12049Y103572D01*
X14151Y103572D02*
X14575Y103572D01*
X3780Y103621D02*
X6177Y103621D01*
X8423Y103621D02*
X11977Y103621D01*
X14223Y103621D02*
X14575Y103621D01*
X3780Y103671D02*
X6128Y103671D01*
X8472Y103671D02*
X11928Y103671D01*
X14272Y103671D02*
X14575Y103671D01*
X3780Y103721D02*
X6078Y103721D01*
X8522Y103721D02*
X11878Y103721D01*
X14322Y103721D02*
X14575Y103721D01*
X3780Y103770D02*
X6029Y103770D01*
X8571Y103770D02*
X11829Y103770D01*
X14371Y103770D02*
X14575Y103770D01*
X3780Y103820D02*
X5979Y103820D01*
X8621Y103820D02*
X11779Y103820D01*
X14421Y103820D02*
X14575Y103820D01*
X3780Y103869D02*
X5930Y103869D01*
X8670Y103869D02*
X11730Y103869D01*
X14470Y103869D02*
X14575Y103869D01*
X3780Y103919D02*
X5891Y103919D01*
X8709Y103919D02*
X11691Y103919D01*
X14509Y103919D02*
X14575Y103919D01*
X3780Y103968D02*
X5860Y103968D01*
X8740Y103968D02*
X11660Y103968D01*
X3780Y104018D02*
X5828Y104018D01*
X8771Y104018D02*
X11628Y104018D01*
X3780Y104067D02*
X5797Y104067D01*
X8803Y104067D02*
X11597Y104067D01*
X3780Y104117D02*
X5766Y104117D01*
X8834Y104117D02*
X11566Y104117D01*
X3780Y104166D02*
X5735Y104166D01*
X8865Y104166D02*
X11535Y104166D01*
X3780Y104216D02*
X5704Y104216D01*
X8896Y104216D02*
X11504Y104216D01*
X3780Y104265D02*
X5683Y104265D01*
X8917Y104265D02*
X11483Y104265D01*
X3780Y104315D02*
X5666Y104315D01*
X8934Y104315D02*
X11466Y104315D01*
X3780Y104364D02*
X5649Y104364D01*
X8951Y104364D02*
X11449Y104364D01*
X3780Y104414D02*
X5631Y104414D01*
X8969Y104414D02*
X11431Y104414D01*
X3780Y104463D02*
X5614Y104463D01*
X8986Y104463D02*
X11414Y104463D01*
X3780Y104513D02*
X5597Y104513D01*
X9003Y104513D02*
X11397Y104513D01*
X3780Y104563D02*
X5579Y104563D01*
X9021Y104563D02*
X11379Y104563D01*
X3780Y104612D02*
X5564Y104612D01*
X9036Y104612D02*
X11364Y104612D01*
X3780Y104662D02*
X5558Y104662D01*
X9042Y104662D02*
X11358Y104662D01*
X3780Y104711D02*
X5553Y104711D01*
X9047Y104711D02*
X11353Y104711D01*
X3780Y104761D02*
X5547Y104761D01*
X9053Y104761D02*
X11347Y104761D01*
X3780Y104810D02*
X5542Y104810D01*
X9058Y104810D02*
X11342Y104810D01*
X3780Y104860D02*
X5536Y104860D01*
X9064Y104860D02*
X11336Y104860D01*
X3779Y104909D02*
X5530Y104909D01*
X9070Y104909D02*
X11330Y104909D01*
X3525Y104959D02*
X5525Y104959D01*
X9075Y104959D02*
X11325Y104959D01*
X3525Y105008D02*
X5521Y105008D01*
X9079Y105008D02*
X11321Y105008D01*
X3525Y105058D02*
X5527Y105058D01*
X9073Y105058D02*
X11327Y105058D01*
X3780Y105107D02*
X5532Y105107D01*
X9068Y105107D02*
X11332Y105107D01*
X3780Y105157D02*
X5538Y105157D01*
X9062Y105157D02*
X11338Y105157D01*
X3780Y105206D02*
X5543Y105206D01*
X9057Y105206D02*
X11343Y105206D01*
X3780Y105256D02*
X5549Y105256D01*
X9051Y105256D02*
X11349Y105256D01*
X3780Y105305D02*
X5555Y105305D01*
X9045Y105305D02*
X11355Y105305D01*
X3780Y105355D02*
X5560Y105355D01*
X9040Y105355D02*
X11360Y105355D01*
X3780Y105405D02*
X5568Y105405D01*
X9032Y105405D02*
X11368Y105405D01*
X3780Y105454D02*
X5585Y105454D01*
X9015Y105454D02*
X11385Y105454D01*
X3780Y105504D02*
X5603Y105504D01*
X8997Y105504D02*
X11403Y105504D01*
X3780Y105553D02*
X5620Y105553D01*
X8980Y105553D02*
X11420Y105553D01*
X3780Y105603D02*
X5637Y105603D01*
X8963Y105603D02*
X11437Y105603D01*
X3780Y105652D02*
X5654Y105652D01*
X8946Y105652D02*
X11454Y105652D01*
X3780Y105702D02*
X5672Y105702D01*
X8928Y105702D02*
X11472Y105702D01*
X3780Y105751D02*
X5689Y105751D01*
X8911Y105751D02*
X11489Y105751D01*
X3780Y105801D02*
X5714Y105801D01*
X8886Y105801D02*
X11514Y105801D01*
X3780Y105850D02*
X5746Y105850D01*
X8854Y105850D02*
X11546Y105850D01*
X3780Y105900D02*
X5777Y105900D01*
X8823Y105900D02*
X11577Y105900D01*
X3780Y105949D02*
X5808Y105949D01*
X8792Y105949D02*
X11608Y105949D01*
X3780Y105999D02*
X5839Y105999D01*
X8761Y105999D02*
X11639Y105999D01*
X3780Y106048D02*
X5870Y106048D01*
X8730Y106048D02*
X11670Y106048D01*
X3780Y106098D02*
X5901Y106098D01*
X8699Y106098D02*
X11701Y106098D01*
X14499Y106098D02*
X14575Y106098D01*
X3780Y106147D02*
X5946Y106147D01*
X8654Y106147D02*
X11746Y106147D01*
X14454Y106147D02*
X14575Y106147D01*
X3780Y106197D02*
X5996Y106197D01*
X8604Y106197D02*
X11796Y106197D01*
X14404Y106197D02*
X14575Y106197D01*
X3780Y106247D02*
X6045Y106247D01*
X8555Y106247D02*
X11845Y106247D01*
X14355Y106247D02*
X14575Y106247D01*
X3780Y106296D02*
X6095Y106296D01*
X8505Y106296D02*
X11895Y106296D01*
X14305Y106296D02*
X14575Y106296D01*
X3780Y106346D02*
X6144Y106346D01*
X8456Y106346D02*
X11944Y106346D01*
X14256Y106346D02*
X14575Y106346D01*
X3780Y106395D02*
X6196Y106395D01*
X8404Y106395D02*
X11996Y106395D01*
X14204Y106395D02*
X14575Y106395D01*
X3780Y106445D02*
X6275Y106445D01*
X8325Y106445D02*
X12075Y106445D01*
X14125Y106445D02*
X14575Y106445D01*
X3780Y106494D02*
X6354Y106494D01*
X8246Y106494D02*
X12154Y106494D01*
X14046Y106494D02*
X14575Y106494D01*
X1924Y106544D02*
X2076Y106544D01*
X3780Y106544D02*
X6433Y106544D01*
X8167Y106544D02*
X12233Y106544D01*
X13024Y106544D02*
X13176Y106544D01*
X13967Y106544D02*
X14575Y106544D01*
X1924Y106593D02*
X2076Y106593D01*
X3775Y106593D02*
X6511Y106593D01*
X8089Y106593D02*
X12311Y106593D01*
X13024Y106593D02*
X13176Y106593D01*
X13889Y106593D02*
X14575Y106593D01*
X1924Y106643D02*
X2076Y106643D01*
X3759Y106643D02*
X6640Y106643D01*
X7960Y106643D02*
X12440Y106643D01*
X13024Y106643D02*
X13176Y106643D01*
X13760Y106643D02*
X14575Y106643D01*
X1924Y106692D02*
X2076Y106692D01*
X3730Y106692D02*
X6782Y106692D01*
X7818Y106692D02*
X12582Y106692D01*
X13024Y106692D02*
X13176Y106692D01*
X13618Y106692D02*
X14575Y106692D01*
X1924Y106742D02*
X2076Y106742D01*
X3675Y106742D02*
X6964Y106742D01*
X7636Y106742D02*
X12764Y106742D01*
X13024Y106742D02*
X13176Y106742D01*
X13436Y106742D02*
X14575Y106742D01*
X0525Y106791D02*
X14575Y106791D01*
X0525Y106841D02*
X14575Y106841D01*
X0525Y106890D02*
X14575Y106890D01*
X0525Y106940D02*
X14575Y106940D01*
X0525Y106990D02*
X14575Y106990D01*
X0525Y107039D02*
X14575Y107039D01*
X0525Y107089D02*
X14575Y107089D01*
X0525Y107138D02*
X14575Y107138D01*
X0525Y107188D02*
X14575Y107188D01*
X0525Y107237D02*
X14575Y107237D01*
X0525Y107287D02*
X14575Y107287D01*
X0525Y107336D02*
X14575Y107336D01*
X0525Y107386D02*
X14575Y107386D01*
X0525Y107435D02*
X14575Y107435D01*
X0525Y107485D02*
X14575Y107485D01*
X0525Y107534D02*
X14575Y107534D01*
X0525Y107584D02*
X14575Y107584D01*
X0525Y107633D02*
X14575Y107633D01*
X0525Y107683D02*
X14575Y107683D01*
X0525Y107732D02*
X14575Y107732D01*
X0525Y107782D02*
X14575Y107782D01*
X0525Y107832D02*
X14575Y107832D01*
X0525Y107881D02*
X14575Y107881D01*
X0525Y107931D02*
X14575Y107931D01*
X0525Y107980D02*
X14575Y107980D01*
X0525Y108030D02*
X14575Y108030D01*
X0525Y108079D02*
X14575Y108079D01*
X0525Y108129D02*
X14575Y108129D01*
X0525Y108178D02*
X14575Y108178D01*
X0525Y108228D02*
X14575Y108228D01*
X0525Y108277D02*
X14575Y108277D01*
X0525Y108327D02*
X14575Y108327D01*
X0525Y108376D02*
X14575Y108376D01*
X0525Y108426D02*
X14575Y108426D01*
X0525Y108475D02*
X14575Y108475D01*
X0525Y108525D02*
X14575Y108525D01*
X0525Y108574D02*
X14575Y108574D01*
X0525Y108624D02*
X14575Y108624D01*
X0525Y108674D02*
X14575Y108674D01*
X0525Y108723D02*
X14575Y108723D01*
X0525Y108773D02*
X14575Y108773D01*
X0525Y108822D02*
X14575Y108822D01*
X0525Y108872D02*
X14575Y108872D01*
X0525Y108921D02*
X14575Y108921D01*
X0525Y108971D02*
X14575Y108971D01*
X0525Y109020D02*
X14575Y109020D01*
X0525Y109070D02*
X14575Y109070D01*
X0525Y109119D02*
X14575Y109119D01*
X0525Y109169D02*
X14575Y109169D01*
X0525Y109218D02*
X14575Y109218D01*
X0525Y109268D02*
X14575Y109268D01*
X0525Y109317D02*
X14575Y109317D01*
X0525Y109367D02*
X14575Y109367D01*
X0525Y109416D02*
X14575Y109416D01*
X0525Y109466D02*
X14575Y109466D01*
%LNbottom copper_traces*%
D11*
X4800Y7500D02*
X4800Y30000D01*
X4800Y7500D02*
X7300Y5000D01*
X2050Y40500D02*
X4050Y42500D01*
X2050Y32750D02*
X4800Y30000D01*
X2050Y32750D02*
X2050Y40500D01*
%LNbottom copper component 1eabe807c71095db*%
D12*
X4050Y82420D03*
X4050Y87500D03*
D13*
X4050Y92500D03*
%LNbottom copper component 07e3dd143db209fa*%
D14*
X7300Y105000D03*
X13100Y105000D03*
D15*
X2000Y105000D03*
%LNbottom copper component e6c87cb277e68129*%
D14*
X7300Y15000D03*
X13100Y15000D03*
D15*
X2000Y15000D03*
%LNbottom copper component e503b3f09927e44b*%
D12*
X4050Y59920D03*
X4050Y65000D03*
D13*
X4050Y70000D03*
%LNbottom copper component 485f527543211f1e*%
D12*
X4050Y37420D03*
X4050Y42500D03*
D13*
X4050Y47500D03*
%LNbottom copper component 1990b97b238ff2dc*%
D14*
X7300Y5000D03*
X13100Y5000D03*
D15*
X2000Y5000D03*
%LNbottom copper component 8bda31fa6598b1a2*%
D14*
X7300Y25000D03*
X13100Y25000D03*
D15*
X2000Y25000D03*
M02*