<?xml version="1.0" encoding="utf-8" ?>
<svg baseProfile="tiny" height="399.550383934" version="1.2" width="63.290549634" xmlns="http://www.w3.org/2000/svg" xmlns:ev="http://www.w3.org/2001/xml-events" xmlns:xlink="http://www.w3.org/1999/xlink"><defs /><g id="paths" stroke="blue"><path d="M 4.893306967,394.657076967 L 58.397242667,394.657076967 L 58.397242667,4.893306967 L 4.893306967,4.893306967 L 4.893306967,394.657076967 Z" fill-opacity="0" stroke-linejoin="round" stroke-width="1.0" /></g><g fill="red" id="holes"><circle cx="19.2437" cy="102.6177" r="2.126" stroke-width="0.0" /><circle cx="19.2437" cy="84.6177" r="2.126" stroke-width="0.0" /><circle cx="19.2437" cy="66.9012" r="2.126" stroke-width="0.0" /><circle cx="11.9799" cy="22.6098" r="4.4291" stroke-width="0.0" /><circle cx="30.7594" cy="22.6098" r="4.4291" stroke-width="0.0" /><circle cx="51.3106" cy="22.6098" r="4.4291" stroke-width="0.0" /><circle cx="11.9799" cy="341.5075" r="4.4291" stroke-width="0.0" /><circle cx="30.7594" cy="341.5075" r="4.4291" stroke-width="0.0" /><circle cx="51.3106" cy="341.5075" r="4.4291" stroke-width="0.0" /><circle cx="19.2437" cy="182.3421" r="2.126" stroke-width="0.0" /><circle cx="19.2437" cy="164.3421" r="2.126" stroke-width="0.0" /><circle cx="19.2437" cy="146.6256" r="2.126" stroke-width="0.0" /><circle cx="19.2437" cy="262.0665" r="2.126" stroke-width="0.0" /><circle cx="19.2437" cy="244.0665" r="2.126" stroke-width="0.0" /><circle cx="19.2437" cy="226.35" r="2.126" stroke-width="0.0" /><circle cx="11.9799" cy="376.9405" r="4.4291" stroke-width="0.0" /><circle cx="30.7594" cy="376.9405" r="4.4291" stroke-width="0.0" /><circle cx="51.3106" cy="376.9405" r="4.4291" stroke-width="0.0" /><circle cx="11.9799" cy="306.0744" r="4.4291" stroke-width="0.0" /><circle cx="30.7594" cy="306.0744" r="4.4291" stroke-width="0.0" /><circle cx="51.3106" cy="306.0744" r="4.4291" stroke-width="0.0" /></g><g id="rulers" stroke="black" /></svg>