<?xml version="1.0" encoding="utf-8" ?>
<svg baseProfile="tiny" height="399.550383934" version="1.2" width="63.290549634" xmlns="http://www.w3.org/2000/svg" xmlns:ev="http://www.w3.org/2001/xml-events" xmlns:xlink="http://www.w3.org/1999/xlink"><defs /><g id="paths" stroke="green"><path d="M 4.893306967,394.657076967 L 58.397242667,394.657076967 L 58.397242667,4.893306967 L 4.893306967,4.893306967 L 4.893306967,394.657076967 Z" fill-opacity="0" stroke-linejoin="round" stroke-width="1.0" /></g><g fill="red" id="top_parts" stroke="red"><line stroke-linecap="round" stroke-width="0.5" x1="39.7949" x2="-48.6106" y1="115.0902" y2="115.0902" /><line stroke-linecap="round" stroke-width="0.5" x1="-48.6106" x2="-48.6106" y1="115.0902" y2="54.1453" /><line stroke-linecap="round" stroke-width="0.5" x1="-48.6106" x2="39.7949" y1="54.1453" y2="54.1453" /><line stroke-linecap="round" stroke-width="0.5" x1="39.7949" x2="39.7949" y1="54.1453" y2="115.0902" /><text font-family="monospace" font-size="2" stroke-width="0.1" text-anchor="middle" x="-4.407873908" y="84.617714467">VR1</text><line stroke-linecap="round" stroke-width="0.5" x1="6.3106" x2="55.9169" y1="9.3224" y2="9.3224" /><line stroke-linecap="round" stroke-width="0.5" x1="55.9169" x2="55.9169" y1="9.3224" y2="35.8972" /><line stroke-linecap="round" stroke-width="0.5" x1="55.9169" x2="6.3106" y1="35.8972" y2="35.8972" /><line stroke-linecap="round" stroke-width="0.5" x1="6.3106" x2="6.3106" y1="35.8972" y2="9.3224" /><line stroke-linecap="round" stroke-width="0.5" x1="-9.6343" x2="4.539" y1="11.9799" y2="11.9799" /><line stroke-linecap="round" stroke-width="0.5" x1="4.539" x2="4.539" y1="11.9799" y2="33.2398" /><line stroke-linecap="round" stroke-width="0.5" x1="4.539" x2="-9.6343" y1="33.2398" y2="33.2398" /><line stroke-linecap="round" stroke-width="0.5" x1="-9.6343" x2="-9.6343" y1="33.2398" y2="11.9799" /><line stroke-linecap="round" stroke-width="0.5" x1="4.539" x2="6.3106" y1="10.2083" y2="10.2083" /><line stroke-linecap="round" stroke-width="0.5" x1="6.3106" x2="6.3106" y1="10.2083" y2="35.0114" /><line stroke-linecap="round" stroke-width="0.5" x1="6.3106" x2="4.539" y1="35.0114" y2="35.0114" /><line stroke-linecap="round" stroke-width="0.5" x1="4.539" x2="4.539" y1="35.0114" y2="10.2083" /><text font-family="monospace" font-size="2" stroke-width="0.1" text-anchor="middle" x="5.424803017" y="22.609841967">J4</text><line stroke-linecap="round" stroke-width="0.5" x1="6.3106" x2="55.9169" y1="328.2201" y2="328.2201" /><line stroke-linecap="round" stroke-width="0.5" x1="55.9169" x2="55.9169" y1="328.2201" y2="354.7949" /><line stroke-linecap="round" stroke-width="0.5" x1="55.9169" x2="6.3106" y1="354.7949" y2="354.7949" /><line stroke-linecap="round" stroke-width="0.5" x1="6.3106" x2="6.3106" y1="354.7949" y2="328.2201" /><line stroke-linecap="round" stroke-width="0.5" x1="-9.6343" x2="4.539" y1="330.8776" y2="330.8776" /><line stroke-linecap="round" stroke-width="0.5" x1="4.539" x2="4.539" y1="330.8776" y2="352.1374" /><line stroke-linecap="round" stroke-width="0.5" x1="4.539" x2="-9.6343" y1="352.1374" y2="352.1374" /><line stroke-linecap="round" stroke-width="0.5" x1="-9.6343" x2="-9.6343" y1="352.1374" y2="330.8776" /><line stroke-linecap="round" stroke-width="0.5" x1="4.539" x2="6.3106" y1="329.1059" y2="329.1059" /><line stroke-linecap="round" stroke-width="0.5" x1="6.3106" x2="6.3106" y1="329.1059" y2="353.909" /><line stroke-linecap="round" stroke-width="0.5" x1="6.3106" x2="4.539" y1="353.909" y2="353.909" /><line stroke-linecap="round" stroke-width="0.5" x1="4.539" x2="4.539" y1="353.909" y2="329.1059" /><text font-family="monospace" font-size="2" stroke-width="0.1" text-anchor="middle" x="5.424803017" y="341.507471967">J2</text><line stroke-linecap="round" stroke-width="0.5" x1="39.7949" x2="-48.6106" y1="194.8146" y2="194.8146" /><line stroke-linecap="round" stroke-width="0.5" x1="-48.6106" x2="-48.6106" y1="194.8146" y2="133.8697" /><line stroke-linecap="round" stroke-width="0.5" x1="-48.6106" x2="39.7949" y1="133.8697" y2="133.8697" /><line stroke-linecap="round" stroke-width="0.5" x1="39.7949" x2="39.7949" y1="133.8697" y2="194.8146" /><text font-family="monospace" font-size="2" stroke-width="0.1" text-anchor="middle" x="-4.407873908" y="164.342121967">VR2</text><line stroke-linecap="round" stroke-width="0.5" x1="39.7949" x2="-48.6106" y1="274.539" y2="274.539" /><line stroke-linecap="round" stroke-width="0.5" x1="-48.6106" x2="-48.6106" y1="274.539" y2="213.5941" /><line stroke-linecap="round" stroke-width="0.5" x1="-48.6106" x2="39.7949" y1="213.5941" y2="213.5941" /><line stroke-linecap="round" stroke-width="0.5" x1="39.7949" x2="39.7949" y1="213.5941" y2="274.539" /><text font-family="monospace" font-size="2" stroke-width="0.1" text-anchor="middle" x="-4.407873908" y="244.066529467">VR3</text><line stroke-linecap="round" stroke-width="0.5" x1="6.3106" x2="55.9169" y1="363.6531" y2="363.6531" /><line stroke-linecap="round" stroke-width="0.5" x1="55.9169" x2="55.9169" y1="363.6531" y2="390.2279" /><line stroke-linecap="round" stroke-width="0.5" x1="55.9169" x2="6.3106" y1="390.2279" y2="390.2279" /><line stroke-linecap="round" stroke-width="0.5" x1="6.3106" x2="6.3106" y1="390.2279" y2="363.6531" /><line stroke-linecap="round" stroke-width="0.5" x1="-9.6343" x2="4.539" y1="366.3106" y2="366.3106" /><line stroke-linecap="round" stroke-width="0.5" x1="4.539" x2="4.539" y1="366.3106" y2="387.5705" /><line stroke-linecap="round" stroke-width="0.5" x1="4.539" x2="-9.6343" y1="387.5705" y2="387.5705" /><line stroke-linecap="round" stroke-width="0.5" x1="-9.6343" x2="-9.6343" y1="387.5705" y2="366.3106" /><line stroke-linecap="round" stroke-width="0.5" x1="4.539" x2="6.3106" y1="364.539" y2="364.539" /><line stroke-linecap="round" stroke-width="0.5" x1="6.3106" x2="6.3106" y1="364.539" y2="389.3421" /><line stroke-linecap="round" stroke-width="0.5" x1="6.3106" x2="4.539" y1="389.3421" y2="389.3421" /><line stroke-linecap="round" stroke-width="0.5" x1="4.539" x2="4.539" y1="389.3421" y2="364.539" /><text font-family="monospace" font-size="2" stroke-width="0.1" text-anchor="middle" x="5.424803017" y="376.940541967">J3</text><line stroke-linecap="round" stroke-width="0.5" x1="6.3106" x2="55.9169" y1="292.787" y2="292.787" /><line stroke-linecap="round" stroke-width="0.5" x1="55.9169" x2="55.9169" y1="292.787" y2="319.3618" /><line stroke-linecap="round" stroke-width="0.5" x1="55.9169" x2="6.3106" y1="319.3618" y2="319.3618" /><line stroke-linecap="round" stroke-width="0.5" x1="6.3106" x2="6.3106" y1="319.3618" y2="292.787" /><line stroke-linecap="round" stroke-width="0.5" x1="-9.6343" x2="4.539" y1="295.4445" y2="295.4445" /><line stroke-linecap="round" stroke-width="0.5" x1="4.539" x2="4.539" y1="295.4445" y2="316.7043" /><line stroke-linecap="round" stroke-width="0.5" x1="4.539" x2="-9.6343" y1="316.7043" y2="316.7043" /><line stroke-linecap="round" stroke-width="0.5" x1="-9.6343" x2="-9.6343" y1="316.7043" y2="295.4445" /><line stroke-linecap="round" stroke-width="0.5" x1="4.539" x2="6.3106" y1="293.6728" y2="293.6728" /><line stroke-linecap="round" stroke-width="0.5" x1="6.3106" x2="6.3106" y1="293.6728" y2="318.476" /><line stroke-linecap="round" stroke-width="0.5" x1="6.3106" x2="4.539" y1="318.476" y2="318.476" /><line stroke-linecap="round" stroke-width="0.5" x1="4.539" x2="4.539" y1="318.476" y2="293.6728" /><text font-family="monospace" font-size="2" stroke-width="0.1" text-anchor="middle" x="5.424803017" y="306.074401967">J1</text></g><g fill="blue" id="bottom_parts" stroke="blue" /></svg>