<?xml version='1.0' encoding='UTF-8' standalone='no'?>
<svg xmlns="http://www.w3.org/2000/svg" width="588" height="478" x="0" y="0"><text x="245" y="133" font-size="10" font-family="sans-serif" text-anchor="middle" alignment-baseline="middle">input-1</text><text x="245" y="243" font-size="10" font-family="sans-serif" text-anchor="middle" alignment-baseline="middle">input-2</text><text x="245" y="353" font-size="10" font-family="sans-serif" text-anchor="middle" alignment-baseline="middle">input-3</text><text x="435" y="213" font-size="10" font-family="sans-serif" text-anchor="middle" alignment-baseline="middle">output</text><text x="97" y="10" font-size="10" font-family="sans-serif" text-anchor="start" alignment-baseline="hanging">TODO: Choose a pot that will make it easy to match board-to-panel height with the audio jack</text><text x="331" y="196" font-size="10" font-family="sans-serif" text-anchor="end" alignment-baseline="hanging">VR2</text><text x="332" y="87" font-size="10" font-family="sans-serif" text-anchor="end" alignment-baseline="hanging">VR1</text><text x="507" y="243" font-size="10" font-family="sans-serif" text-anchor="end" alignment-baseline="hanging">J4</text><text x="255" y="458" font-size="10" font-family="sans-serif" text-anchor="start" alignment-baseline="hanging">GND</text><text x="415" y="458" font-size="10" font-family="sans-serif" text-anchor="start" alignment-baseline="hanging">GND</text><text x="334" y="306" font-size="10" font-family="sans-serif" text-anchor="end" alignment-baseline="hanging">VR3</text><text x="205" y="458" font-size="10" font-family="sans-serif" text-anchor="start" alignment-baseline="hanging">GND</text><text x="507" y="253" font-size="10" font-family="sans-serif" text-anchor="end" alignment-baseline="hanging">35RAPC2AV</text><text x="10" y="250" font-size="10" font-family="sans-serif" text-anchor="start" alignment-baseline="hanging">Inputs</text><text x="113" y="163" font-size="10" font-family="sans-serif" text-anchor="start" alignment-baseline="hanging">J1</text><text x="113" y="173" font-size="10" font-family="sans-serif" text-anchor="start" alignment-baseline="hanging">35RAPC2AV</text><text x="546" y="217" font-size="10" font-family="sans-serif" text-anchor="start" alignment-baseline="hanging">Output</text><text x="113" y="273" font-size="10" font-family="sans-serif" text-anchor="start" alignment-baseline="hanging">J2</text><text x="113" y="283" font-size="10" font-family="sans-serif" text-anchor="start" alignment-baseline="hanging">35RAPC2AV</text><text x="113" y="383" font-size="10" font-family="sans-serif" text-anchor="start" alignment-baseline="hanging">J3</text><text x="113" y="393" font-size="10" font-family="sans-serif" text-anchor="start" alignment-baseline="hanging">35RAPC2AV</text><line x1="265" y1="428" x2="265" y2="438" stroke-width="2" stroke="black"></line><line x1="255" y1="438" x2="275" y2="438" stroke-width="2" stroke="black"></line><line x1="258" y1="443" x2="272" y2="443" stroke-width="2" stroke="black"></line><line x1="261" y1="448" x2="269" y2="448" stroke-width="2" stroke="black"></line><line x1="110" y1="339" x2="110" y2="378" stroke-width="2" stroke="black"></line><line x1="110" y1="378" x2="165" y2="378" stroke-width="2" stroke="black"></line><line x1="110" y1="343" x2="105" y2="343" stroke-width="2" stroke="black"></line><line x1="105" y1="343" x2="105" y2="373" stroke-width="2" stroke="black"></line><line x1="105" y1="373" x2="110" y2="373" stroke-width="2" stroke="black"></line><line x1="134" y1="358" x2="137" y2="363" stroke-width="2" stroke="black"></line><line x1="137" y1="363" x2="140" y2="358" stroke-width="2" stroke="black"></line><line x1="140" y1="358" x2="165" y2="358" stroke-width="2" stroke="black"></line><line x1="153" y1="365" x2="150" y2="363" stroke-width="2" stroke="black"></line><line x1="150" y1="363" x2="150" y2="368" stroke-width="2" stroke="black"></line><line x1="150" y1="368" x2="165" y2="368" stroke-width="2" stroke="black"></line><line x1="147" y1="365" x2="150" y2="363" stroke-width="2" stroke="black"></line><line x1="305" y1="328" x2="308" y2="323" stroke-width="2" stroke="black"></line><line x1="308" y1="323" x2="313" y2="333" stroke-width="2" stroke="black"></line><line x1="313" y1="333" x2="318" y2="323" stroke-width="2" stroke="black"></line><line x1="318" y1="323" x2="323" y2="333" stroke-width="2" stroke="black"></line><line x1="323" y1="333" x2="328" y2="323" stroke-width="2" stroke="black"></line><line x1="328" y1="323" x2="333" y2="333" stroke-width="2" stroke="black"></line><line x1="333" y1="333" x2="335" y2="328" stroke-width="2" stroke="black"></line><line x1="295" y1="328" x2="305" y2="328" stroke-width="2" stroke="black"></line><line x1="335" y1="328" x2="345" y2="328" stroke-width="2" stroke="black"></line><line x1="325" y1="333" x2="325" y2="348" stroke-width="2" stroke="black"></line><line x1="325" y1="333" x2="320" y2="340" stroke-width="2" stroke="black"></line><line x1="325" y1="333" x2="330" y2="340" stroke-width="2" stroke="black"></line><line x1="110" y1="119" x2="110" y2="158" stroke-width="2" stroke="black"></line><line x1="110" y1="158" x2="165" y2="158" stroke-width="2" stroke="black"></line><line x1="110" y1="123" x2="105" y2="123" stroke-width="2" stroke="black"></line><line x1="105" y1="123" x2="105" y2="153" stroke-width="2" stroke="black"></line><line x1="105" y1="153" x2="110" y2="153" stroke-width="2" stroke="black"></line><line x1="134" y1="138" x2="137" y2="143" stroke-width="2" stroke="black"></line><line x1="137" y1="143" x2="140" y2="138" stroke-width="2" stroke="black"></line><line x1="140" y1="138" x2="165" y2="138" stroke-width="2" stroke="black"></line><line x1="153" y1="145" x2="150" y2="143" stroke-width="2" stroke="black"></line><line x1="150" y1="143" x2="150" y2="148" stroke-width="2" stroke="black"></line><line x1="150" y1="148" x2="165" y2="148" stroke-width="2" stroke="black"></line><line x1="147" y1="145" x2="150" y2="143" stroke-width="2" stroke="black"></line><line x1="510" y1="199" x2="510" y2="238" stroke-width="2" stroke="black"></line><line x1="510" y1="238" x2="455" y2="238" stroke-width="2" stroke="black"></line><line x1="510" y1="203" x2="515" y2="203" stroke-width="2" stroke="black"></line><line x1="515" y1="203" x2="515" y2="233" stroke-width="2" stroke="black"></line><line x1="515" y1="233" x2="510" y2="233" stroke-width="2" stroke="black"></line><line x1="486" y1="218" x2="483" y2="223" stroke-width="2" stroke="black"></line><line x1="483" y1="223" x2="480" y2="218" stroke-width="2" stroke="black"></line><line x1="480" y1="218" x2="455" y2="218" stroke-width="2" stroke="black"></line><line x1="467" y1="225" x2="470" y2="223" stroke-width="2" stroke="black"></line><line x1="470" y1="223" x2="470" y2="228" stroke-width="2" stroke="black"></line><line x1="470" y1="228" x2="455" y2="228" stroke-width="2" stroke="black"></line><line x1="473" y1="225" x2="470" y2="223" stroke-width="2" stroke="black"></line><line x1="305" y1="218" x2="308" y2="213" stroke-width="2" stroke="black"></line><line x1="308" y1="213" x2="313" y2="223" stroke-width="2" stroke="black"></line><line x1="313" y1="223" x2="318" y2="213" stroke-width="2" stroke="black"></line><line x1="318" y1="213" x2="323" y2="223" stroke-width="2" stroke="black"></line><line x1="323" y1="223" x2="328" y2="213" stroke-width="2" stroke="black"></line><line x1="328" y1="213" x2="333" y2="223" stroke-width="2" stroke="black"></line><line x1="333" y1="223" x2="335" y2="218" stroke-width="2" stroke="black"></line><line x1="295" y1="218" x2="305" y2="218" stroke-width="2" stroke="black"></line><line x1="335" y1="218" x2="345" y2="218" stroke-width="2" stroke="black"></line><line x1="325" y1="223" x2="325" y2="238" stroke-width="2" stroke="black"></line><line x1="325" y1="223" x2="320" y2="230" stroke-width="2" stroke="black"></line><line x1="325" y1="223" x2="330" y2="230" stroke-width="2" stroke="black"></line><line x1="215" y1="428" x2="215" y2="438" stroke-width="2" stroke="black"></line><line x1="205" y1="438" x2="225" y2="438" stroke-width="2" stroke="black"></line><line x1="208" y1="443" x2="222" y2="443" stroke-width="2" stroke="black"></line><line x1="211" y1="448" x2="219" y2="448" stroke-width="2" stroke="black"></line><line x1="305" y1="108" x2="308" y2="103" stroke-width="2" stroke="black"></line><line x1="308" y1="103" x2="313" y2="113" stroke-width="2" stroke="black"></line><line x1="313" y1="113" x2="318" y2="103" stroke-width="2" stroke="black"></line><line x1="318" y1="103" x2="323" y2="113" stroke-width="2" stroke="black"></line><line x1="323" y1="113" x2="328" y2="103" stroke-width="2" stroke="black"></line><line x1="328" y1="103" x2="333" y2="113" stroke-width="2" stroke="black"></line><line x1="333" y1="113" x2="335" y2="108" stroke-width="2" stroke="black"></line><line x1="295" y1="108" x2="305" y2="108" stroke-width="2" stroke="black"></line><line x1="335" y1="108" x2="345" y2="108" stroke-width="2" stroke="black"></line><line x1="325" y1="113" x2="325" y2="128" stroke-width="2" stroke="black"></line><line x1="325" y1="113" x2="320" y2="120" stroke-width="2" stroke="black"></line><line x1="325" y1="113" x2="330" y2="120" stroke-width="2" stroke="black"></line><line x1="110" y1="229" x2="110" y2="268" stroke-width="2" stroke="black"></line><line x1="110" y1="268" x2="165" y2="268" stroke-width="2" stroke="black"></line><line x1="110" y1="233" x2="105" y2="233" stroke-width="2" stroke="black"></line><line x1="105" y1="233" x2="105" y2="263" stroke-width="2" stroke="black"></line><line x1="105" y1="263" x2="110" y2="263" stroke-width="2" stroke="black"></line><line x1="134" y1="248" x2="137" y2="253" stroke-width="2" stroke="black"></line><line x1="137" y1="253" x2="140" y2="248" stroke-width="2" stroke="black"></line><line x1="140" y1="248" x2="165" y2="248" stroke-width="2" stroke="black"></line><line x1="153" y1="255" x2="150" y2="253" stroke-width="2" stroke="black"></line><line x1="150" y1="253" x2="150" y2="258" stroke-width="2" stroke="black"></line><line x1="150" y1="258" x2="165" y2="258" stroke-width="2" stroke="black"></line><line x1="147" y1="255" x2="150" y2="253" stroke-width="2" stroke="black"></line><line x1="425" y1="428" x2="425" y2="438" stroke-width="2" stroke="black"></line><line x1="415" y1="438" x2="435" y2="438" stroke-width="2" stroke="black"></line><line x1="418" y1="443" x2="432" y2="443" stroke-width="2" stroke="black"></line><line x1="421" y1="448" x2="429" y2="448" stroke-width="2" stroke="black"></line><circle cx="215" cy="158" r="2" style="stroke: #000; stroke-width: 1; fill: none;"></circle><circle cx="375" cy="218" r="2" style="stroke: #000; stroke-width: 1; fill: none;"></circle><circle cx="215" cy="368" r="2" style="stroke: #000; stroke-width: 1; fill: none;"></circle><circle cx="215" cy="258" r="2" style="stroke: #000; stroke-width: 1; fill: none;"></circle><circle cx="215" cy="378" r="2" style="stroke: #000; stroke-width: 1; fill: none;"></circle><circle cx="425" cy="238" r="2" style="stroke: #000; stroke-width: 1; fill: none;"></circle><circle cx="265" cy="328" r="2" style="stroke: #000; stroke-width: 1; fill: none;"></circle><circle cx="215" cy="268" r="2" style="stroke: #000; stroke-width: 1; fill: none;"></circle><circle cx="265" cy="218" r="2" style="stroke: #000; stroke-width: 1; fill: none;"></circle><line x1="325" y1="128" x2="325" y2="138" stroke-width="2" stroke="black"></line><line x1="375" y1="218" x2="415" y2="218" stroke-width="2" stroke="black"></line><line x1="375" y1="328" x2="375" y2="218" stroke-width="2" stroke="black"></line><line x1="375" y1="328" x2="345" y2="328" stroke-width="2" stroke="black"></line><line x1="375" y1="108" x2="375" y2="218" stroke-width="2" stroke="black"></line><line x1="215" y1="258" x2="215" y2="158" stroke-width="2" stroke="black"></line><line x1="325" y1="248" x2="165" y2="248" stroke-width="2" stroke="black"></line><line x1="165" y1="138" x2="325" y2="138" stroke-width="2" stroke="black"></line><line x1="215" y1="148" x2="215" y2="158" stroke-width="2" stroke="black"></line><line x1="215" y1="378" x2="215" y2="368" stroke-width="2" stroke="black"></line><line x1="265" y1="328" x2="265" y2="428" stroke-width="2" stroke="black"></line><line x1="265" y1="328" x2="265" y2="238" stroke-width="2" stroke="black"></line><line x1="265" y1="328" x2="295" y2="328" stroke-width="2" stroke="black"></line><line x1="215" y1="268" x2="165" y2="268" stroke-width="2" stroke="black"></line><line x1="215" y1="268" x2="215" y2="258" stroke-width="2" stroke="black"></line><line x1="215" y1="288" x2="215" y2="368" stroke-width="2" stroke="black"></line><line x1="215" y1="288" x2="215" y2="268" stroke-width="2" stroke="black"></line><line x1="455" y1="238" x2="425" y2="238" stroke-width="2" stroke="black"></line><line x1="165" y1="368" x2="215" y2="368" stroke-width="2" stroke="black"></line><line x1="185" y1="148" x2="165" y2="148" stroke-width="2" stroke="black"></line><line x1="185" y1="148" x2="215" y2="148" stroke-width="2" stroke="black"></line><line x1="265" y1="108" x2="295" y2="108" stroke-width="2" stroke="black"></line><line x1="265" y1="218" x2="265" y2="238" stroke-width="2" stroke="black"></line><line x1="265" y1="218" x2="265" y2="108" stroke-width="2" stroke="black"></line><line x1="265" y1="218" x2="295" y2="218" stroke-width="2" stroke="black"></line><line x1="455" y1="218" x2="415" y2="218" stroke-width="2" stroke="black"></line><line x1="425" y1="428" x2="425" y2="238" stroke-width="2" stroke="black"></line><line x1="325" y1="348" x2="325" y2="358" stroke-width="2" stroke="black"></line><line x1="165" y1="358" x2="325" y2="358" stroke-width="2" stroke="black"></line><line x1="425" y1="228" x2="425" y2="238" stroke-width="2" stroke="black"></line><line x1="215" y1="428" x2="215" y2="378" stroke-width="2" stroke="black"></line><line x1="165" y1="158" x2="215" y2="158" stroke-width="2" stroke="black"></line><line x1="325" y1="238" x2="325" y2="248" stroke-width="2" stroke="black"></line><line x1="455" y1="228" x2="425" y2="228" stroke-width="2" stroke="black"></line><line x1="345" y1="218" x2="375" y2="218" stroke-width="2" stroke="black"></line><line x1="185" y1="258" x2="165" y2="258" stroke-width="2" stroke="black"></line><line x1="185" y1="258" x2="215" y2="258" stroke-width="2" stroke="black"></line><line x1="165" y1="378" x2="215" y2="378" stroke-width="2" stroke="black"></line><line x1="345" y1="108" x2="375" y2="108" stroke-width="2" stroke="black"></line></svg>